<mxfile host="Electron" modified="2024-09-15T09:51:58.161Z" agent="Mozilla/5.0 (X11; Linux x86_64) AppleWebKit/537.36 (KHTML, like Gecko) draw.io/24.6.4 Chrome/124.0.6367.207 Electron/30.0.6 Safari/537.36" etag="hTJk73n-7REzise65Rwf" version="24.6.4" type="device">
  <diagram id="a45cf8ec-cd66-6f27-3ac3-be6e809c9e4a" name="Page-1">
    <mxGraphModel dx="3703" dy="3582" grid="1" gridSize="10" guides="1" tooltips="1" connect="1" arrows="1" fold="1" page="1" pageScale="1" pageWidth="827" pageHeight="1169" background="#ffffff" math="0" shadow="0">
      <root>
        <mxCell id="0" />
        <mxCell id="1" parent="0" />
        <mxCell id="1iWGnb8oRhfy1DBap_ar-207" value="Iface:&lt;br&gt;IP/CIDR:" style="text;html=1;strokeColor=none;fillColor=none;align=left;verticalAlign=middle;whiteSpace=wrap;rounded=0;rotation=-90;" parent="1" vertex="1">
          <mxGeometry x="-326.5" y="-190" width="80" height="30" as="geometry" />
        </mxCell>
        <mxCell id="1iWGnb8oRhfy1DBap_ar-252" value="" style="group" parent="1" vertex="1" connectable="0">
          <mxGeometry x="230" y="-1420" width="94" height="45" as="geometry" />
        </mxCell>
        <mxCell id="1iWGnb8oRhfy1DBap_ar-253" value="" style="group" parent="1iWGnb8oRhfy1DBap_ar-252" vertex="1" connectable="0">
          <mxGeometry width="94" height="45" as="geometry" />
        </mxCell>
        <mxCell id="1iWGnb8oRhfy1DBap_ar-254" value="" style="shape=image;verticalLabelPosition=bottom;labelBackgroundColor=#ffffff;verticalAlign=top;aspect=fixed;imageAspect=0;image=data:image/jpeg,/9j/4AAQSkZJRgABAQAAAQABAAD/2wCEAAkGBxISEBUQEhIVFRUWFRcVFRgWFxcYFRcXGBcXFhcYGBoYHiggGBolHhUVIjEjJSkrLi4uGB8zODUuNygtLisBCgoKDg0OGhAQGyslHyUtLS0tLysuLS4vLS8tLS0tLS0tLy0tLS0tLS0tLS0tLS0uLS0tLS0tLS0tLS0tLS0tLf/AABEIAJsBRQMBEQACEQEDEQH/xAAcAAACAwEBAQEAAAAAAAAAAAAAAQIFBgQDBwj/xABJEAABAwIBBwgFCAgFBQEAAAABAAIDBBEFBhIhMUFhcQcTMlGBkaGxIkJScsEUIzNigpKi0RU0Q2ODk7LCFiRTVHNE0tPh8cP/xAAaAQEAAwEBAQAAAAAAAAAAAAAAAQMEBQIG/8QAOBEAAgIAAwQHBwMEAwEBAAAAAAECAwQFESExMpESQVFhcaHRFCJCUoGx8BMV4SM0ksEzYvFyJP/aAAwDAQACEQMRAD8A+4oAQAgBACAEAIAQAgISytaM5xDR1kgDvKAztfl/hcOh9dASNFo3c66/VmxZxvusm8FXPyo0n7GCsn3sp3Nb96UtAV0cPbLdF8iqV9cd8kcEvKPVOPzWGEDrmqGN/CwOKvjl976tPqUyx1K69Tjly0xZ3RZRRceelPm0K6OV2Pe0VSzGHUmccmOYs6969jL7I6aPR2vLirVlS65eRU8yfVHzOaWeveLPxSq+xzUf9LLqxZXX1tnh5jZ1JHK6jlPSr693Gql8gVYsto7+ZW8fd3ciBwsHQ6aqd71TOf716WX0dnmzy8dd2+SPA5PU51iQ8ZpT5uXr2Gj5fuQ8Zd832IOyapTrivxc8+ZU+xUfKR7Xd8xD/DFH/oN8fzU+xUfKiPa7vmH/AIdptkZHB8g8nKPYaPlJ9su+YlHgsTdLTM33Z5h5PUewYf5fNk+23/N5I9fkTh0aqsbwqpv+5eXl1HZ5krH3dvkTZ8qb0MRrhxqHPHc+4Xl5ZS92p7WYWrfodTMZxNp9HEpeD4oH/wBgVbyqHVJntZlPrijphyvxdn/UU8v/ACU5b4xvHkqpZS+qXkWLM11x8zuh5R8Rb06Slk9yaSMn7zHKqWV3Lc0y1ZjU96Z3wcq1vp8OqG9fNOilH9TT4KiWBvj8JbHGUv4iyg5U8MP0kksJ/fQTN7yGlo7Ss8qpx4k19C+NkJbmmaHDMpaKo0QVcEh6mSsLhxaDcLwey1QAgBACAEAIAQAgBACAEAIAQAgBARe8AXJAA1k6AEBlsU5RcOhcWCfn5NPoUzXTu0bLxgtB4kL1GMpbIrU8yko73oUNVyg1sl/k1A2Nux9VKAduuKIOI2estcMvulvWniZZ46qO7b4FTVV+Jz/TYgYwfUpY2xD77s5/iFrhlcfilyM08xl8KKx+TtO4h0ofO4etPI+U/jJHgtcMFRH4eZmli7pdfI7qekjjFo42MHU1ob5LTGEY8K0M8pSlvZ6lejyIoCJQCKAiVJAigIlAIoCJQCUgRQEShBEoDlq6l7OjC+T3TGP6nAqqc5x3R1+qLYQi98tOZTT5SPabGiqL+7cd4WWzHShvrZphg4y3TQDF653QwqqcOvMl+EZWZ5t/08/4L/2z/t5fye8bsWf0MJmHvhw/qAXn92l8q5nr9sj8x7DDccd0cMt7z2jzeF5ea2dUUellsOtsP8PZQ2J+RRCwJ+kiJ4ACY6V5/dLuxfn1PX7dV2v8+hU4ZUU9XeOaBjZ2XD2ObZ1wbG19I06xrC3Ye2nFLSUV0vzcY767sO9YyfR/N5c0kUsFvk1VUwW1Bkriz7j7t8F6nltEt2q8DxDMLo79pe0WXGKw6HSU9S396wxP+9H6N/srJPKZfBLma4ZnH4o8jQYfysRjRWUk8H147TxcSWWePurFZg7q98eW0114uqe6XPYa/BMqKKsH+WqYpDa+aHWkHFjrOb2hZTQXCAEAIAQAgBACAEAICpx/KWkom51TOyO/Rbre7c1jbud2BAYquy+rJ9FFTCBn+tVXzzvbAw3GzS5w16ltqwFs9r2LvMduNrhsW19xnq6hdP6dfVS1NrGz3COAHdEyze+66FeAqhtlt8TDPG2z2R2eB3UsEbGhsbWtbsDAAPBboxilpExycm/ePQr0QIoCJUgRQEShAigEUBEoBFSQRKARQESgEUAipBEoBFCCJQHJX18ULc+V4YNl9Z4DWexV23QqWs3oWV1TsekVqVNDWV2IOMeG0zs29jPJoY3fc+iOvady5N+aSeytad7OnTlyW2x69x9oyKweakoo6eebnpQXOe8XIu5xdYF2kgXts1aguVKTk9XvOkkorRF6oJBAcOI4vBBbnZA0nZpLuNhpsrqsPbbwLUqsvrr4mYLLvJakxL/NUdRFFWt0tdnBoltqa8HSDsDrbjo1enRfU+l0WtDyrqbFpqmYLCsWcZHUtSwxVLDmua7RnW2jft3jSNC7WDxqt92WyX3ORisG6vejtj9i3K6BiIoDkqsPikN3MGcNThoeODhpCqsw9dnHFMtrvsr4WWuGZSYlS/Q1XPMH7OqHODgJBZ47SVzbcqT21vTxN1WZNbJrkbPBeVancQytidSPOjPJ5ynJ2WkaPR+0BbrXLuw1tXGvQ6VWIrt4Wb+nqGSND43Ne1wu1zSC0jrBGgqguPRACAEAIDwrq2OGN0sr2xsaLuc4gNA3koD5viuXNVVksw8cxB/uZWXlfvhidoaPrP69S24fAzt2vYjHfjIV7FtZSQYdDCXTvcXyHTJPM7OkPF7uiNwsF16sPVQtVzZy7LrLno+SKSsyy5yT5PQQuqpjoGaDmDfo0uGrqG9ZrsxjHZXtfkaacBKW2ez7lzhPJbVVhE2LVLg3WKeEjRts53RbtGgE/WXKtvstfvM6VdMK17qOyp5F4m3+SV9TAdlyHgdfQzCq4zlHhbR7lCMt61OCfITHYT8zWQVDRskGa4/eb/ctMcdfH4uZnlg6ZdRXT1GNU/6xhZkA9aEk6PsF/wAFohmc1xRT8vUoll0fhbOVmXsAdmTxTQu2hzb269/gtUMyqe9NGeWX2Lc0y1pMp6OTo1DLnY45p7nWWmGLplukiiWGtjviyzZIHC7SCOsG48FemnuKGmt4ypIIlAIoQRKkCKAiUAigEgIlSBFCDkxDEIoG58rwwbL6zwGs9iqtuhUtZvQsrqnY9Iop6GsrsRcY8Opjm3s6eQWY3tPog7tJ3Lk35nJ7K1p3nUpy6K22PXuNtk3yQQMeJ8QldVza80kiEbbe0+2nXYaeiuZKcpPWT1Z0IxUVokfSqeBsbQxjWsa0Wa1oAaB1ADQF5PR6ICvxTGYKcfOPAOxo0vPZ8Sr6cNZc/cX16im3EV1cTMVi+Wc0l2wjmm9euQ9upvZ3rsUZbXDbPa/I5V2YTnshsXmZh7iSSSSTrJNyeJOtdJJJaIwN6vVkCpIPKaBjrZzWutquAbW1W6l5cIy3o9KUluZIr0eRFARKECKAi4X0FNNQLCaqoon59FMYrm7oj6VO/jH6p3tsVzsRltdm2Gx+RvozCcNktq8z6dkfyiw1Tm01S0U1UdAaTeKXfE86yfZOkb9a4l1E6ZaTR2KroWrWLNwqS0EBX47jENHTvqZ3ZrGDZpc4nQ1rRtcTYAID5RXST4hKKmtFmNOdT0t7xxbA+T/Ult16Bc2XawmBUffs39hycTjHL3Ybu07l0znGexHJNlTMH1FRUPjBvzQcxreAs2w6r2Jtt2rBfgna9XN/nI2U4tVbOij6Bk7VUFJHzVPT8w3bmtuXb3OuXPO83WGWW2rc0zbHMK3v1RoIcWgdqlbwJsfFZ5YW6O+LL44mqW6SOxpvpGngs7Wm8vT1GgBAeNVSRyjNljZIDoIe1rh3OCAzOJcm2FT9KijaeuLOi8IyAe0IDN1XIrSgl1NVVMBOr0muaOrUGu7ypjJx3MhxT3orJ+TjGYf1fEI5gNkoIcdvrB/mtEcZfHdLnt+5RLCUy3x/0V1RDjtPfnsOErRthOcfwFx8Fqhmdi4kmZ5ZdB7m0cBy4Yx2ZUU88DupzfgbHwWmGZ1viTRnll01uaZ0S5a0QYXiQut6oa7OJ16iB36lc8woUddSlYG7XTQlQ4Zi+JsMkEfySnzSWvfcSSCxIzNpvo0gAbyubfmNk9kNi8zoU4CuG2W1+RcUs4kjZINT2tcODgD8V3oy6UU+040l0W0TKk8iUg5MQxGKBufK8MGy+s8BrPYqrboVLWb0LK6p2PSKKWhra/EXGPDac5gNnTyCzG9p9EHdpO5cm/M5PZWtO86dOXxW2zb3G3yc5IIGOE+ISOq5teaSRCDrtbpPtvsNy5kpOT1k9WdGMVFaJH0mngbG0MY1rGtFmtaA1oHUANAC8knogK/FMZgpx848X2NGl57NnEq+nDWXcK+vUU24iurif06zF4vllNJdsQ5pvWNLz2+r2d67FGW1w2z2vyOVdmE57IbF5mZe4kkkkk6ydJPErpJaLRGBvXayBUgRQgiUAigEUBEoBFCCJUgRQESgPCrpmSNLHtDmnYfMdR3rxZXGyPRktUe4TlB9KL0ZtuT/AC5khkjoK55exxDKeocfSv6sUx2k6g/bqK+cxmClQ9Vtj+bzu4XFq5aPYz6wsRsPk2VFf8txFwvenon83GNjqm3zjz15l8wdRzl08uo6T/UfVuOdj7+iv0117wXaOSCAEAIAQEo5HNN2ktO4keSiUVLY1qTGTjueh2w45UN1Sk+9Z3npWeWCol8PLYXxxd0fi5ndDlXIOkxjuF2n4rNLLK3wtrzNEcxmt6TO+HKyI9Jj28LOH5rNLLLFwtMvjmNb3po74Mcp3apWj3rt/qss8sHfHfF/Tb9jRHF0y+LnsO6OQOF2kEbiD5LM4uOxovTT3E1BIICE0TXjNe0OHU4AjuKAp2ZIYeJRM2ipw9puCImCx67AWvvtdAXd0B8gZT80Xw2sIpZYmj6jJHNZ2ZgaRuIX02Dl0qIv6cth89i49G6S/NoytJnEVIOKqwuCR2dJDG92jS5oJ0arnaNyqnRXPbKKZZC6yHC2aagyqnia2NrYsxos1oYGgAbAGWAHYsk8tpe7VfneaY5hat+jLany5b+0hI9xwPgbeazTyp/DLmaI5kvijyO9uWNLmk3eD7OYbncCNHis7y2/XTZzL/3CnTr5GdxbLCaS7Yvmm9Y0vPb6vZ3roUZbXDbPa/Iw3Y+c9kNi8zNOcSSSbk6STrPFdFLTYYH2kSpAkIIE7NqakiKkgRQCKAiUAigIlCBFSCJQCKARQHhUwNkYWOF2uFiF5nCM4uMtzPUJuElKO9H1XknyjdUUrqed+dPSuEbnE6XxkXikJOskAg72lfKX1OqxwfUfS02q2CmjE5KyZ9K2U65Hyyu958r3HzXcwSSoicbGPW6RbrWZgQAgBACASARQESpBEoBFCDrw7D5ZDeMEDa++a0fa/JUXX11r3+W8uppsm/c57jXYe6OBvztWHu6nPFhwF7rjXKdz9yvReB1qnGpe/Zq/EnLlJSt/aX91rj42svMcBe/h80epY2ldfkzjlywhHRZI77oHmro5Xa97SKZZjWtyZxS5Zu9WEfacT4AK+OVLrl5FLzJ9UfM4psrqg6sxvBtz4kq6OW0rfq/qVPMLXu0RRVEpe90jtLnnOcdVzYC+jcAttdca49GK2GSyyVkulLeea9ngiVIEUIIlAVuK43BTkCV+aSLgZrjcatgsqLsTXU9Jsvqw9lu2KKk5ZwOdmxRzSu2BrB+d/BZZZpStybNEcute9pHRDX4hKbQYVUuB1Oc17W9+bbxVMs2+WPmXRyztl5HbFk/j8p9Gjiiadr3x6OzPJ/CqJZpa9ySLY5dUt7Z2w8m2NSH5ysp4gfYzi7sswf1KiWOvfxF0cFSvhMx+g4HSZv6TfUgXDgDzYNtxeXW7AteGq/V222a92pmvt/S2V16d+he01KyJuZGwNaNgFv8A6uzCuMFpFaI5U5ym9ZPVnoV7PAigIlAIoCJQCKEESpAkBEoBFSCJQFFiuOTUk5MDs0yMZn78wvzf6ivns3WlqfcdvLHrW13mg5Oa28Bp3aHNJkZvje4m/Y7OB4ha8A2q1B9mq8H/ACZcak5uS8H4o163mMEAIAQAgEUBEoCJUgRQgRQCc46rpoNSKAiVJBX4tjMFMLzSBvU3W48GjSqbb66l77LaqJ2P3UVOHuxPEzagg5mHbPNoHYbHuaHFcm/Mpy2V7F5nUpy+Mds9v2LGoySyhgHo/J6ofVcAfxc2qo5jfHe0/EslgKX1aFZUYxX05tVYZOwDW5ocW9+aW/iWmGa/NHkzPLLflkQpst6R2hxfGfrsP9t1qhmNEt+q/O4zywFy3aMvaWqZK0PjcHNOojUtsJxmtYvYZJwcHpI9CvR4IlAaTIigp5ZJOdhike1rSwvY1xaLkOAJGgaWrkZrHZGXijqZbLbKPgbyGFrBZjWtHU0ADwXGOseiAEAIDDYpyT4VMS7mHROO2KRw8HXb4IDP1PIyWaaTEpo/qyNzx3tc23cVZC2cOFtHiVUJcSTKqpyDx2G5ZJTVIGoXzXHd6QYAftdq1QzG+PXr4maWBpl1aeBU1RxOn/WMMmttdGC5o6z6IcPFaYZtL4o8jPLLF8MuZxR5W09y14kjcNYe38rnvC1QzSl79UZ5Zdat2jLCnxenf0ZmHdex7jpWqGKpnukjNLD2x3xZ13V+8pYipIEUBFAIoCJUgRQGDyhqM+YyerbNYesNJBPC5K+ZzGfTs6fVuX0/k7+Bh0a+j1739f4NJhbHiGCaI5ssYu2+pwJOcx31T4aCu3Th3ZhK5Q2SS2ej7mci29V4myMuFvb6rvRucExmOpYS30Xt0SRu6TD1HrHUdqiu1T1W5reuwmytw2709z7SxVpWCAEAigEUAipBEoCJQgRQCKArsWxqCmbeaQNOxut54NGn4Km2+upe+y2qmdj91FTh7sTxQ2oYOYhOgzy6Bbcbf0hx3hcm7Mpy2Q2LzOnTgIR2z2/Y3GS/JLSU7ueqnGsn1kyfRg9YZpzjvcTq1Bc5tt6s3pJLRH0JrQAAAABoAGgAbgoJJICtxPHIYND3Xd7DdLu3q7Vpowlt3CtnazPdia6t729hgcoa9lWfSp4Q0G4vGxz9Gq7yL91l2KMvqr2y2vy5HLux1k9kdiK5bzEIoQRKAusj61sVVd7g1rmOaSdAGjO0/dWLH1OynSK1eq9P9mzBWKFusns0ZdYtlq0XbTtzj7b9Dexus9tljoytvba9O5Gq7MUtla+rKSHK6rbre125zBb8NitksuofVp4P/wBMscdeuvXxX/hZU+Xjh9JA072OI8CD5rNPKY/DLmi+OZv4o8i0pstaV3Sz2cW3He0lZp5Zct2j/O80xzGl79UWtNjdNJ0J4yerOAPcbFZZ4a6HFFmiGIqlukjvBVBcNACA5K7DIJhaaGOQfXY13mEBmMS5LsJm0mkEZ64nPZ+EHN8EBm6vkThH6rXVEJ2Z2a8cPQzF7jZKPC2jzKEZb0mVNVyaYzEfmaqCdvU+7XHvb/ctMMffH4tfEzSwVMurkU1VQYxACZsNe8DbF6Q/AXrVDNpriin5epnllkHwya8/Qhh9e6W+dBJHbQc8Aado06fBdTD4h3LXoteJzr6P0np0kztK0mciVIKbEKwykwRHdK8eqNrWn2j4LHZN3N1Vv/6fZ3Lv+xphBVL9Sf0Xb3vu+5n8p2Bro2gWAZYDddcvNoqMoRW5I6WVycozb36mnwL9Wi934ld/L/7avwOHjv7ifie01Mc8TRPMcrRYPbtHsvB0ObuK9YjCxtfST0kuv/T7URRiXWui1rHs9OxlzhmVIuIqoCGTUH/sZPdceidxWB2SrfRuWj7ep/nYzaq42LpVPXu61+dppAVeUggEgEUB4VVSyNue9wa0aydQ4nYN5USkorWW4mMXJ6IjT1UcgvG9rx1tcD5JGcZcL1EoyjvWh6FejyV2L41BTNvNIGnY0aXng0ae3UqbcRXUveZbVTOx+6iow52KYobUMHMQHQZ5dHGxt4NBO8Lk35lOWyGxeZ06cBCO2e1+RucmOSWjp3CaqJrJ9ZdL9Hfcwk532yeAXObberN6SS0R9Ba0AAAWA0ADUOCgkaArcTxuGDQ513ey3S7t6u1aaMJbbwrZ2sz3Ymure9vYZHFMqJpbtZ823qb0jxd+Vl2KMvqr2y2vv3cjl3Y6yeyOxfnWUJK3GIiVIEUIIlARKARUgigEUBEoBFARKkg9YKqSP6OR7Pdc5vkV4lXGXEk/FHqM5R4W14FpTZWVjP22cOp7Wu8bX8VmngMPL4dPA0Rxt8fi18S1puUCUfSQsdvaS0+N1lnlMHwya8dvoaY5nP4ootabLymd02yM7A4fhN/BZp5XcuFpmiOZVPemi2pco6STo1Edzscc09zrLLPB3w3xf3+xojiqZbpIs2OBFwQR1jSFnaa3mhPXcU2NZUU9NdrnZ7x6jNLu06m9q1UYK27alou1mW7GVVbG9X2IwWNZY1M92tPNM9lh9I+8/X3WC7VGX1VbXtff6HJux1tmxbF3epnSVuMZz1VUyNuc9waN/wAOteLLIVrWT0R7hXKb0itSplqZZ9DbxRdeqR43ewPFZ/6t+73Y+b9PuX/06d/vS8l6ntBC1jQxgsBqC1V1xrioxWiM05ynLpSe0zeVvTZ7p81w8344+B2cq4JeJpsB/Vovd+JXewH9tDwOJjv7ifiWC1mUjJGHAtcAQdYIuColFSWklqiYycXqnozxpefp/wBWls3/AEpLui+z6zOzQufPAuG2mWnc9q9Ubo4xS2XLXvWx+jLilyujHo1MboD7R9KI8HjV2gLPK2Vey6Lj371z9S9VKzbVLXu3PkX8E7JGh7HNe06i0gjvCujJSWqepU4uL0ZIqSCD2gggi4Ogg6iOopvBU0nJxh1Q+2fNTS3u0xuBYSToFnC7T1AELi4zBOH9Svd9v4OvhcWp+5Pf9zpn5KcQjv8AJsVJadGbKHiw3G7hfgAsccTbHdJmqWHqlvii+yX5J6OnPPVN6yfWXS6Y77mG+d9q6pbberLUkloj6A0AAACwGgAagFBI0BWYpjsEBzHvBktcRtsXkabG2waDpPUtFGGnc9IlF2IhUveMnimU00t2tPNt6mn0jxd+Vl2aMvrr2y2vv9DlXY6yexbEURW4xCKAipAigIlCCJQCKAiVIEUBEoBFARKARUkCKAiUAigIlAIoQOKVzOg5zb+ySPJQ4qW9akpuO7Z4HkvRBy1mIRRdN4B6tbjwaNJVVl9dfE/XkW10znwor34jNJ9FHzbfbk19jB8VV07rOCPRXbLfy9T30aq+N6vsXr6HnDQgOz3kyP8Aafpt7o1NHBWV4WMX0pe9Ltf+uw8TxEpLox2LsX++06VpKBFQSZjK3ps90+a4Gb8cfA7WV8EvE02Afq0Xu/Eru5f/AG0PA4uO/uJ+JYLYZQQAgEUBx/o1gdnxF0L/AGoiWX4gaD2hY7MBTJ6xXRfbHZ/BrhjbYrR+8ux7f5O2HFa2P1o5x9cc2/7zbtPcqHhsRDhkpLv2P0LliKJcScfDavU7YsrYx9PDNCdpzecZ96O/kqnbKH/JCS+mq5rUsVUZf8c0/J8mWdFjFPN9FNG49QcM77p0r1C6ufDJHmdM4cSZscLyoLGZkzXPt0XC17dTrnxWDEZd05dKtpfnUbaMf0Y6T2nU7LCPZE/vaFSsrn8yLv3KHys8nZZDZCe1/wD6XpZU+uXkeXmS6o+Z5OyzdshHa8/9q9rKl1y8v5PDzJ/L5/wYjLXCYMSlE8rXMkDAy7HaM1pJAs4W9Yr0srr65PyIeZT+VFdRZOc10aqp4GQEdxbZaK8Gobpy5meeKc98Y8i3iYWixc5292bfwAWuK069TO3r1EipPIipBEoBFCCJQESpAkBEoBFARKARUkESgEUAigIlARe4AXJsN6N6bwtpXTY5TtNucDj1Mu8/hus7xdSeier7tv2L1hrWtWtF37Pucz8Wld9FAR9aUhg+6LuT9S6fBDTvls8t4/Tqjxz/AMdvnuPF8Mz/AKSYgezEMwfe6RXr2ayf/JP6R2ee88+0Vx4IfV7fLcTpqKOPoMAO063HiTpKurorq4Fp9+ZVZfZZxM9laViUASgkRUEmXyt6bPdPmuDm/HHwO1lfBLxNPgA/y0Y6m2PEE3Xdy9//AJoeBxsd/cT8SwWwyAgBACAEAIAQHNUUMUnTja7eQL9+tU2YeqzjimW13218MmiEdCWfRTTR7myEt+664Wd5fWuByj4P11NCx03xpPxXpodDK2tZqnjk/wCSOx72EeSreEvjwzT8V6eh7WJpfFBrwfqe7cfqm9KmY/8A45beD2/FeXDEx3wT8H6pHpTw8t0mvFeh6jKlo0Pp6hu8Ma8fhcT4Lw7Zx4q5ctfselXB8M489PuejcqqT1pHM9+ORviW2Xn2qtcWq8U1/o9ezWPdo/Bo6I8cpXaqiL77R5le1iaXukuZ5dFq3xfI6o6qN3Rew8HA+RVinF7mitxkt6J3Xo8iKkCKEESgIlAIqQRQCIQEHOA1kKNRoc8tdE3pSxji9o+K8u2tb5Lme1XN7k+RySY9Sj9uw8DnHubdVPF0r4l9z2sNc/hZ4nKGH1RK/wB2J/xAT2qL4VJ+EWT7PJcTS8WjzdjTz0KWQ++WM+JU/qWvhrf1aX+zz+nUuKxfTVkHVlW7UyFnFznnwAC9dDFPqivq36EdPDr5nyXqeToZ3dOpcN0bWs8dJUrC2Pjsf0SXqR7TWuGtfVt+h5/omIm7w6Q9cjnO8CbL0sDTvktfFtnl4y3qengtDqjja0WaABuAHktMYRitIrQolKUnrJ6kipIEVAEVBIihIioJEVAIlQSZvKiFzpGZoJs3TbeT+S4Obv8AqR8DtZZwS8TdYxhxpK6ppHCwbI6aLYDDK4vbbgS5p3tXRya9SqdfXH7MwZtS42/qdT+6PFdg5QIAQAgBACAEAIAQAgBACARQHk+mYdbGni0FeJVVy3xXI9q2a3N8zwdhNOdcLPugeSpeCw73wXItWLvXxvmQ/Q0GxhHB7x5FeP2/D/L5v1Pft1/zeS9Btwpg1OlHCWT81H7fSt2v+T9SfbruvTkvQZw399Ufzn/mo/b6/ml/kx7dZ8seSAYcf9xU/wA0/EKP2+Hzz/yJ9un8seQfo93+5qP5n/pP2+Pzz5/wPbpfJHl/Iv0b+/qP5zvgn7fX80v8h7dP5Y8hjDBtlnPGZ/5r1+31dbl/kyPbrOyP+KI/oeLbnnjJIfin7dR1p836j2+7tXJegfoan/0geJcfMr0sBhvkXmzy8biPmZ6sw2FuqKMfZCsjhaI7oLkjw8Tc98nzPdsTRqaBwACtUIrcityk97JFSQRUASgkSgkRUEiQCUEiKgESoJEhIlBIioAlBJuOSbJZlWyoq52AxueyKG4GkRZ+e4X2Fz7fYK+Xx9ytubW5bD6LBVOupJ73tNnyj5HmuibNBZtVBcxE6BI09KF+52w7DY9apw98qLFOPUXX0xug4SPj0E1y5rmlkjDmyRuFnscNYcF9jhsVDEQ6UPquw+UxGHnRLoy/9PZaCgEAIAQAgBACAEAIAQAgBACAEAIAQAgBACAEAIAQAgEUAioJEVBIkJEoAioJEVBIlAEhJEqCRKCRKAJQSJCTtybwCXEqj5NDdsbT/mJhqjbta07ZDqA2a9i5GPxygnXB7evu/k6eCwbk1ZPd1d5+hcMw+OnhZTwtDY42hjGjYB5neuCdo6kBkMtsg4a8idjuYqmizZmgHOFuhK3126t4toOxW03zpn04PRlVtMLY9Ga1R8ixWlno5eYrY+acehILmCXex/X9U2IX02EzSu73Z+7LyZ8/istsq2w2rzEuoc0EAIAQAgBACAEAIAQAgBACAEAIAQAgBACAEAIAQCQkRUARUEiKgkRQCKgkiVBIlAEVBIihIlBIlAPKeZrBnOcGjrK8TsjBdKT0R7hCU3pFas02SeQVViFpJM+lpT6xFqiUfu2u6DT7ThwC4WKzNy92rYu3r/g7OGy9R96za+zqPtWCYPBRwNp6eMRxt1AbTtLjrc47SdK5J0zvQAgBAeFdRRzRuimjbIxws5r2hzTxBQHzXHeSgtJfh0wjGvmJs50XBj9Lo+GkLdhswuo2J6rsf5sMeIwNV21rR9qMFikE9I7NraeSDYHkZ0DvdlbdvYbFd3D5tRZsn7r793M41+V3Q2x95efIUcgcM5pBB1EG47wunGSktYvVHOlFxejWjJKSAQAgBACAEAIAQAgBACAEAIAQAgBACAEAkAISIqCSKgCUEiUARQkSgkRUEiKgCUEnPUVTGaHOAJ1DW48ANJVNt9dXHJItrpss4FqaDA8i8RrLFkPyaI/tKkFriPqRdI7s6wK5V+bdVS+r9Dp05Z12P6I+m5K8m9HRkSvBqagaedlAOaf3bOjH571x7bp2vpTep1K6oVrSC0NmqywEAIAQAgBACAjIwOBa4Ag6CCLgjeCgMZjPJhh85L42OpZDpz6c5gPFmlh7lbVdZU9YNorsqhYtJpMx+JcmWIxaYJoKpunQ+8Eu4C2cw8TZdOrObo7JpS8vzkc63KapcDa8/wA5mXr6eopyRU0lRDbW4xl8f8yPObs610qs4w8uLVeP8HPsyq+PDo/zvOenrY5OhI13Ai/cuhXfVZwST+pinTZXxRaOhWlQIAQAgBACAEAIAQAgBACAEAIAQCKASgkRQkSgCUEiUEiKgkiSoZJzGvjzsxrs92xrAXu7mAlZbMbRXvkvpt+xorwl090X9dn3LrDclsTqbc1RPY0+vUEQtGvTmn0zq2NWC3N4Lgjr47DbXlc3xvTwNZhXJDI6xraw746ZuaOHOv8ASI+yFzrcxvs2a6Lu/NTfXgKYdWvib3AMkKGi009MxjtryM6U8Xuu7xWFtt6s2JJbEXigkEAIAQAgBACAEAIAQAgBACApMXyRoKrTPSQvPtZgD/vts7xQGYq+SOiOmCaqg3Nlz2d0od5rTXjL6+GbM88LTPiiijq+SquYPma2CXqE0Toz2ujc7vzexbIZxiI79H9PQyzyqiW7VfneVNVkRi0f/SxS74Z2+UoatcM8+aHJ/wAGWWT/ACz5oqqigrIzaSgq27xCZG98ectMM5w736r6ehnllN63aMr5MSjboeXR/wDIx7P6gFojmWFl8fPVFEsvxEfh+xKPEIXapYz9pv5q+OJplumuaKZYa6O+L5Hu2QHUQeBBVylF7mVuMlvRNSeQQAgBACAEAIAQCJRko8n1DBre0cXAKuVkFva5nuNc3uT5HM/FYBrlZ2OBPgqJYzDx3zXMujhL3ug+R6wzOk+ihqJf+OCV3k1USzTDL4tfoy+OXYh/D5osqbJ/Epfo8On/AIhjiH43X8FmlnNS4Yt8kXxym34pItqfk3xZ+sUsI258j3uHYxlj3hZZ51N8MEvHb6GiOUwXFJ/b1Lqj5IHnTUYg63swRNjt9p5cT3BZZ5niJfFp4GqGX0R6tfEvqDkqwyOxfE+cjbPI947Wghvgsc7Zz4pN+LNUK4Q4UkazD8MggbmwQxxN6o2NaPwhVns60AIAQAgBACAEAIAQAgBACAEAIAQAgBACAEAIAQEXsB0EA8RdAVtTk5RSX5ykp33150MZPeQgKyo5PMKeLGggHuszD3ssgKfEeTPCmC7aZzeE9QP/ANF7Vk11vmeHCL6kZfE8j6ONpLI5B/HqP/IvaxNy3TfNnl4ep74rkjC19MGEhrpB/FkPm5evbMQvjfNnn2Wl/AuSKGtrJG9GR4+04+ZT2/Er42R7HQ/gRXwYvOTYyv71LzDE/Ox7Dh/kRd0cjndJ7z9t48int2IfxvmPZKPkXI0+A4RFK6z+cP8AGmHk9R7Xe/jlzZPs1PyLkjbUWQWHvPpQvP8AHqP/ACLw77Xvk+bPaprW6K5I0dNyX4QAD8jDj9eWZ47nvIXhzk97PailuRaQZD4Yw3bQUwI64mHzC8klpS4VTxfRwRM9yNrfIIDsQAgBACAEAIAQAgBACAEAIAQAgP/Z;" parent="1iWGnb8oRhfy1DBap_ar-253" vertex="1">
          <mxGeometry width="94" height="45" as="geometry" />
        </mxCell>
        <mxCell id="1iWGnb8oRhfy1DBap_ar-255" value="&lt;b&gt;Gateway - 10.0.0.62&lt;/b&gt;" style="text;html=1;strokeColor=none;fillColor=none;align=left;verticalAlign=middle;whiteSpace=wrap;rounded=0;fontColor=#FFFFFF;" parent="1iWGnb8oRhfy1DBap_ar-253" vertex="1">
          <mxGeometry x="17" y="25" width="70" height="20" as="geometry" />
        </mxCell>
        <mxCell id="1iWGnb8oRhfy1DBap_ar-257" value="Network/CIDR" style="ellipse;shape=cloud;whiteSpace=wrap;html=1;" parent="1" vertex="1">
          <mxGeometry x="-814" y="-1070" width="120" height="80" as="geometry" />
        </mxCell>
        <mxCell id="1iWGnb8oRhfy1DBap_ar-261" value="Text" style="text;html=1;align=center;verticalAlign=middle;resizable=0;points=[];;autosize=1;fontColor=#FFFFFF;" parent="1" vertex="1">
          <mxGeometry x="-737" y="-342" width="40" height="20" as="geometry" />
        </mxCell>
        <mxCell id="LMzbSZaPqSbP6ukTdfSf-4" value="" style="group" vertex="1" connectable="0" parent="1">
          <mxGeometry x="-30" y="-1610" width="230" height="220" as="geometry" />
        </mxCell>
        <object label="" placeholders="1" deviceType="" Hostname="" InterfaceType="" InterfaceIP="" SubnetMaskCIDR="" RoutingProtocol="" IPnetwork="" NetworkName="" OpenPorts="" OStype="" OSVersion="" id="1iWGnb8oRhfy1DBap_ar-248">
          <mxCell style="group" parent="LMzbSZaPqSbP6ukTdfSf-4" vertex="1" connectable="0">
            <mxGeometry x="10" width="220" height="142" as="geometry" />
          </mxCell>
        </object>
        <mxCell id="1iWGnb8oRhfy1DBap_ar-249" value="Hostname:&lt;br&gt;IP/CIDR:&amp;nbsp;&lt;br&gt;Iface:&lt;br&gt;TCP Ports:&lt;br&gt;UDP Ports" style="text;html=1;strokeColor=none;fillColor=none;align=left;verticalAlign=middle;whiteSpace=wrap;rounded=0;" parent="1iWGnb8oRhfy1DBap_ar-248" vertex="1">
          <mxGeometry y="62" width="80" height="80" as="geometry" />
        </mxCell>
        <mxCell id="1iWGnb8oRhfy1DBap_ar-250" value="" style="points=[];aspect=fixed;html=1;align=center;shadow=0;dashed=0;image;image=img/lib/allied_telesis/computer_and_terminals/Personal_Computer.svg;" parent="1iWGnb8oRhfy1DBap_ar-248" vertex="1">
          <mxGeometry width="45.6" height="61.800000000000004" as="geometry" />
        </mxCell>
        <mxCell id="LMzbSZaPqSbP6ukTdfSf-1" value="&lt;div style=&quot;&quot;&gt;&lt;font color=&quot;#000000&quot; style=&quot;background-color: initial;&quot;&gt;&lt;span style=&quot;background-color: rgb(255, 255, 255);&quot;&gt;red-internet-host&lt;/span&gt;&lt;/font&gt;&lt;/div&gt;&lt;div style=&quot;&quot;&gt;&lt;font color=&quot;#000000&quot; style=&quot;background-color: initial;&quot;&gt;&lt;span style=&quot;background-color: rgb(255, 255, 255);&quot;&gt;Device Ty&lt;/span&gt;&lt;/font&gt;&lt;span style=&quot;background-color: rgb(255, 255, 255); color: rgb(0, 0, 0);&quot;&gt;pe:computer&lt;/span&gt;&lt;br&gt;&lt;/div&gt;&lt;div style=&quot;&quot;&gt;&lt;font color=&quot;#000000&quot;&gt;&lt;span style=&quot;background-color: rgb(255, 255, 255);&quot;&gt;OS: Debian 10 (buster)&lt;/span&gt;&lt;/font&gt;&lt;/div&gt;&lt;div style=&quot;&quot;&gt;&lt;font color=&quot;#000000&quot;&gt;&lt;span style=&quot;background-color: rgb(255, 255, 255);&quot;&gt;Interface Type: eth0&lt;/span&gt;&lt;/font&gt;&lt;/div&gt;&lt;div style=&quot;&quot;&gt;&lt;span style=&quot;background-color: rgb(255, 255, 255); color: rgb(0, 0, 0);&quot;&gt;Interface IP: 10.0.0.33/27&lt;/span&gt;&lt;br&gt;&lt;/div&gt;&lt;div style=&quot;&quot;&gt;&lt;font color=&quot;#000000&quot;&gt;&lt;span style=&quot;background-color: rgb(255, 255, 255);&quot;&gt;Subnet Mask CIDR:&lt;/span&gt;&lt;/font&gt;&lt;/div&gt;&lt;div style=&quot;&quot;&gt;&lt;font color=&quot;#000000&quot;&gt;&lt;span style=&quot;background-color: rgb(255, 255, 255);&quot;&gt;Routing Protocol:&lt;/span&gt;&lt;/font&gt;&lt;/div&gt;&lt;div style=&quot;&quot;&gt;&lt;font color=&quot;#000000&quot;&gt;&lt;span style=&quot;background-color: rgb(255, 255, 255);&quot;&gt;IP Network:&lt;/span&gt;&lt;/font&gt;&lt;/div&gt;&lt;div style=&quot;&quot;&gt;&lt;font color=&quot;#000000&quot;&gt;&lt;span style=&quot;background-color: rgb(255, 255, 255);&quot;&gt;Network Name:&lt;/span&gt;&lt;/font&gt;&lt;/div&gt;&lt;div style=&quot;&quot;&gt;&lt;font color=&quot;#000000&quot;&gt;&lt;span style=&quot;background-color: rgb(255, 255, 255);&quot;&gt;Ports:&lt;/span&gt;&lt;/font&gt;&lt;/div&gt;" style="whiteSpace=wrap;html=1;fillColor=none;align=left;verticalAlign=top;" vertex="1" parent="LMzbSZaPqSbP6ukTdfSf-4">
          <mxGeometry y="64" width="190" height="156" as="geometry" />
        </mxCell>
        <mxCell id="LMzbSZaPqSbP6ukTdfSf-13" value="" style="group" vertex="1" connectable="0" parent="1">
          <mxGeometry x="240" y="-1020" width="190" height="201" as="geometry" />
        </mxCell>
        <mxCell id="LMzbSZaPqSbP6ukTdfSf-9" value="" style="group" vertex="1" connectable="0" parent="LMzbSZaPqSbP6ukTdfSf-13">
          <mxGeometry width="94" height="45" as="geometry" />
        </mxCell>
        <mxCell id="LMzbSZaPqSbP6ukTdfSf-10" value="" style="shape=image;verticalLabelPosition=bottom;labelBackgroundColor=#ffffff;verticalAlign=top;aspect=fixed;imageAspect=0;image=data:image/jpeg,/9j/4AAQSkZJRgABAQAAAQABAAD/2wCEAAkGBxISEBUQEhIVFRUWFRcVFRgWFxcYFRcXGBcXFhcYGBoYHiggGBolHhUVIjEjJSkrLi4uGB8zODUuNygtLisBCgoKDg0OGhAQGyslHyUtLS0tLysuLS4vLS8tLS0tLS0tLy0tLS0tLS0tLS0tLS0uLS0tLS0tLS0tLS0tLS0tLf/AABEIAJsBRQMBEQACEQEDEQH/xAAcAAACAwEBAQEAAAAAAAAAAAAAAQIFBgQDBwj/xABJEAABAwIBBwgFCAgFBQEAAAABAAIDBBEFBhIhMUFhcQcTMlGBkaGxIkJScsEUIzNigpKi0RU0Q2ODk7LCFiRTVHNE0tPh8cP/xAAaAQEAAwEBAQAAAAAAAAAAAAAAAQMEBQIG/8QAOBEAAgIAAwQHBwMEAwEBAAAAAAECAwQFESExMpESQVFhcaHRFCJCUoGx8BMV4SM0ksEzYvFyJP/aAAwDAQACEQMRAD8A+4oAQAgBACAEAIAQAgISytaM5xDR1kgDvKAztfl/hcOh9dASNFo3c66/VmxZxvusm8FXPyo0n7GCsn3sp3Nb96UtAV0cPbLdF8iqV9cd8kcEvKPVOPzWGEDrmqGN/CwOKvjl976tPqUyx1K69Tjly0xZ3RZRRceelPm0K6OV2Pe0VSzGHUmccmOYs6969jL7I6aPR2vLirVlS65eRU8yfVHzOaWeveLPxSq+xzUf9LLqxZXX1tnh5jZ1JHK6jlPSr693Gql8gVYsto7+ZW8fd3ciBwsHQ6aqd71TOf716WX0dnmzy8dd2+SPA5PU51iQ8ZpT5uXr2Gj5fuQ8Zd832IOyapTrivxc8+ZU+xUfKR7Xd8xD/DFH/oN8fzU+xUfKiPa7vmH/AIdptkZHB8g8nKPYaPlJ9su+YlHgsTdLTM33Z5h5PUewYf5fNk+23/N5I9fkTh0aqsbwqpv+5eXl1HZ5krH3dvkTZ8qb0MRrhxqHPHc+4Xl5ZS92p7WYWrfodTMZxNp9HEpeD4oH/wBgVbyqHVJntZlPrijphyvxdn/UU8v/ACU5b4xvHkqpZS+qXkWLM11x8zuh5R8Rb06Slk9yaSMn7zHKqWV3Lc0y1ZjU96Z3wcq1vp8OqG9fNOilH9TT4KiWBvj8JbHGUv4iyg5U8MP0kksJ/fQTN7yGlo7Ss8qpx4k19C+NkJbmmaHDMpaKo0QVcEh6mSsLhxaDcLwey1QAgBACAEAIAQAgBACAEAIAQAgBARe8AXJAA1k6AEBlsU5RcOhcWCfn5NPoUzXTu0bLxgtB4kL1GMpbIrU8yko73oUNVyg1sl/k1A2Nux9VKAduuKIOI2estcMvulvWniZZ46qO7b4FTVV+Jz/TYgYwfUpY2xD77s5/iFrhlcfilyM08xl8KKx+TtO4h0ofO4etPI+U/jJHgtcMFRH4eZmli7pdfI7qekjjFo42MHU1ob5LTGEY8K0M8pSlvZ6lejyIoCJQCKAiVJAigIlAIoCJQCUgRQEShBEoDlq6l7OjC+T3TGP6nAqqc5x3R1+qLYQi98tOZTT5SPabGiqL+7cd4WWzHShvrZphg4y3TQDF653QwqqcOvMl+EZWZ5t/08/4L/2z/t5fye8bsWf0MJmHvhw/qAXn92l8q5nr9sj8x7DDccd0cMt7z2jzeF5ea2dUUellsOtsP8PZQ2J+RRCwJ+kiJ4ACY6V5/dLuxfn1PX7dV2v8+hU4ZUU9XeOaBjZ2XD2ObZ1wbG19I06xrC3Ye2nFLSUV0vzcY767sO9YyfR/N5c0kUsFvk1VUwW1Bkriz7j7t8F6nltEt2q8DxDMLo79pe0WXGKw6HSU9S396wxP+9H6N/srJPKZfBLma4ZnH4o8jQYfysRjRWUk8H147TxcSWWePurFZg7q98eW0114uqe6XPYa/BMqKKsH+WqYpDa+aHWkHFjrOb2hZTQXCAEAIAQAgBACAEAICpx/KWkom51TOyO/Rbre7c1jbud2BAYquy+rJ9FFTCBn+tVXzzvbAw3GzS5w16ltqwFs9r2LvMduNrhsW19xnq6hdP6dfVS1NrGz3COAHdEyze+66FeAqhtlt8TDPG2z2R2eB3UsEbGhsbWtbsDAAPBboxilpExycm/ePQr0QIoCJUgRQEShAigEUBEoBFSQRKARQESgEUAipBEoBFCCJQHJX18ULc+V4YNl9Z4DWexV23QqWs3oWV1TsekVqVNDWV2IOMeG0zs29jPJoY3fc+iOvady5N+aSeytad7OnTlyW2x69x9oyKweakoo6eebnpQXOe8XIu5xdYF2kgXts1aguVKTk9XvOkkorRF6oJBAcOI4vBBbnZA0nZpLuNhpsrqsPbbwLUqsvrr4mYLLvJakxL/NUdRFFWt0tdnBoltqa8HSDsDrbjo1enRfU+l0WtDyrqbFpqmYLCsWcZHUtSwxVLDmua7RnW2jft3jSNC7WDxqt92WyX3ORisG6vejtj9i3K6BiIoDkqsPikN3MGcNThoeODhpCqsw9dnHFMtrvsr4WWuGZSYlS/Q1XPMH7OqHODgJBZ47SVzbcqT21vTxN1WZNbJrkbPBeVancQytidSPOjPJ5ynJ2WkaPR+0BbrXLuw1tXGvQ6VWIrt4Wb+nqGSND43Ne1wu1zSC0jrBGgqguPRACAEAIDwrq2OGN0sr2xsaLuc4gNA3koD5viuXNVVksw8cxB/uZWXlfvhidoaPrP69S24fAzt2vYjHfjIV7FtZSQYdDCXTvcXyHTJPM7OkPF7uiNwsF16sPVQtVzZy7LrLno+SKSsyy5yT5PQQuqpjoGaDmDfo0uGrqG9ZrsxjHZXtfkaacBKW2ez7lzhPJbVVhE2LVLg3WKeEjRts53RbtGgE/WXKtvstfvM6VdMK17qOyp5F4m3+SV9TAdlyHgdfQzCq4zlHhbR7lCMt61OCfITHYT8zWQVDRskGa4/eb/ctMcdfH4uZnlg6ZdRXT1GNU/6xhZkA9aEk6PsF/wAFohmc1xRT8vUoll0fhbOVmXsAdmTxTQu2hzb269/gtUMyqe9NGeWX2Lc0y1pMp6OTo1DLnY45p7nWWmGLplukiiWGtjviyzZIHC7SCOsG48FemnuKGmt4ypIIlAIoQRKkCKAiUAigEgIlSBFCDkxDEIoG58rwwbL6zwGs9iqtuhUtZvQsrqnY9Iop6GsrsRcY8Opjm3s6eQWY3tPog7tJ3Lk35nJ7K1p3nUpy6K22PXuNtk3yQQMeJ8QldVza80kiEbbe0+2nXYaeiuZKcpPWT1Z0IxUVokfSqeBsbQxjWsa0Wa1oAaB1ADQF5PR6ICvxTGYKcfOPAOxo0vPZ8Sr6cNZc/cX16im3EV1cTMVi+Wc0l2wjmm9euQ9upvZ3rsUZbXDbPa/I5V2YTnshsXmZh7iSSSSTrJNyeJOtdJJJaIwN6vVkCpIPKaBjrZzWutquAbW1W6l5cIy3o9KUluZIr0eRFARKECKAi4X0FNNQLCaqoon59FMYrm7oj6VO/jH6p3tsVzsRltdm2Gx+RvozCcNktq8z6dkfyiw1Tm01S0U1UdAaTeKXfE86yfZOkb9a4l1E6ZaTR2KroWrWLNwqS0EBX47jENHTvqZ3ZrGDZpc4nQ1rRtcTYAID5RXST4hKKmtFmNOdT0t7xxbA+T/Ult16Bc2XawmBUffs39hycTjHL3Ybu07l0znGexHJNlTMH1FRUPjBvzQcxreAs2w6r2Jtt2rBfgna9XN/nI2U4tVbOij6Bk7VUFJHzVPT8w3bmtuXb3OuXPO83WGWW2rc0zbHMK3v1RoIcWgdqlbwJsfFZ5YW6O+LL44mqW6SOxpvpGngs7Wm8vT1GgBAeNVSRyjNljZIDoIe1rh3OCAzOJcm2FT9KijaeuLOi8IyAe0IDN1XIrSgl1NVVMBOr0muaOrUGu7ypjJx3MhxT3orJ+TjGYf1fEI5gNkoIcdvrB/mtEcZfHdLnt+5RLCUy3x/0V1RDjtPfnsOErRthOcfwFx8Fqhmdi4kmZ5ZdB7m0cBy4Yx2ZUU88DupzfgbHwWmGZ1viTRnll01uaZ0S5a0QYXiQut6oa7OJ16iB36lc8woUddSlYG7XTQlQ4Zi+JsMkEfySnzSWvfcSSCxIzNpvo0gAbyubfmNk9kNi8zoU4CuG2W1+RcUs4kjZINT2tcODgD8V3oy6UU+040l0W0TKk8iUg5MQxGKBufK8MGy+s8BrPYqrboVLWb0LK6p2PSKKWhra/EXGPDac5gNnTyCzG9p9EHdpO5cm/M5PZWtO86dOXxW2zb3G3yc5IIGOE+ISOq5teaSRCDrtbpPtvsNy5kpOT1k9WdGMVFaJH0mngbG0MY1rGtFmtaA1oHUANAC8knogK/FMZgpx848X2NGl57NnEq+nDWXcK+vUU24iurif06zF4vllNJdsQ5pvWNLz2+r2d67FGW1w2z2vyOVdmE57IbF5mZe4kkkkk6ydJPErpJaLRGBvXayBUgRQgiUAigEUBEoBFCCJUgRQESgPCrpmSNLHtDmnYfMdR3rxZXGyPRktUe4TlB9KL0ZtuT/AC5khkjoK55exxDKeocfSv6sUx2k6g/bqK+cxmClQ9Vtj+bzu4XFq5aPYz6wsRsPk2VFf8txFwvenon83GNjqm3zjz15l8wdRzl08uo6T/UfVuOdj7+iv0117wXaOSCAEAIAQEo5HNN2ktO4keSiUVLY1qTGTjueh2w45UN1Sk+9Z3npWeWCol8PLYXxxd0fi5ndDlXIOkxjuF2n4rNLLK3wtrzNEcxmt6TO+HKyI9Jj28LOH5rNLLLFwtMvjmNb3po74Mcp3apWj3rt/qss8sHfHfF/Tb9jRHF0y+LnsO6OQOF2kEbiD5LM4uOxovTT3E1BIICE0TXjNe0OHU4AjuKAp2ZIYeJRM2ipw9puCImCx67AWvvtdAXd0B8gZT80Xw2sIpZYmj6jJHNZ2ZgaRuIX02Dl0qIv6cth89i49G6S/NoytJnEVIOKqwuCR2dJDG92jS5oJ0arnaNyqnRXPbKKZZC6yHC2aagyqnia2NrYsxos1oYGgAbAGWAHYsk8tpe7VfneaY5hat+jLany5b+0hI9xwPgbeazTyp/DLmaI5kvijyO9uWNLmk3eD7OYbncCNHis7y2/XTZzL/3CnTr5GdxbLCaS7Yvmm9Y0vPb6vZ3roUZbXDbPa/Iw3Y+c9kNi8zNOcSSSbk6STrPFdFLTYYH2kSpAkIIE7NqakiKkgRQCKAiUAigIlCBFSCJQCKARQHhUwNkYWOF2uFiF5nCM4uMtzPUJuElKO9H1XknyjdUUrqed+dPSuEbnE6XxkXikJOskAg72lfKX1OqxwfUfS02q2CmjE5KyZ9K2U65Hyyu958r3HzXcwSSoicbGPW6RbrWZgQAgBACASARQESpBEoBFCDrw7D5ZDeMEDa++a0fa/JUXX11r3+W8uppsm/c57jXYe6OBvztWHu6nPFhwF7rjXKdz9yvReB1qnGpe/Zq/EnLlJSt/aX91rj42svMcBe/h80epY2ldfkzjlywhHRZI77oHmro5Xa97SKZZjWtyZxS5Zu9WEfacT4AK+OVLrl5FLzJ9UfM4psrqg6sxvBtz4kq6OW0rfq/qVPMLXu0RRVEpe90jtLnnOcdVzYC+jcAttdca49GK2GSyyVkulLeea9ngiVIEUIIlAVuK43BTkCV+aSLgZrjcatgsqLsTXU9Jsvqw9lu2KKk5ZwOdmxRzSu2BrB+d/BZZZpStybNEcute9pHRDX4hKbQYVUuB1Oc17W9+bbxVMs2+WPmXRyztl5HbFk/j8p9Gjiiadr3x6OzPJ/CqJZpa9ySLY5dUt7Z2w8m2NSH5ysp4gfYzi7sswf1KiWOvfxF0cFSvhMx+g4HSZv6TfUgXDgDzYNtxeXW7AteGq/V222a92pmvt/S2V16d+he01KyJuZGwNaNgFv8A6uzCuMFpFaI5U5ym9ZPVnoV7PAigIlAIoCJQCKEESpAkBEoBFSCJQFFiuOTUk5MDs0yMZn78wvzf6ivns3WlqfcdvLHrW13mg5Oa28Bp3aHNJkZvje4m/Y7OB4ha8A2q1B9mq8H/ACZcak5uS8H4o163mMEAIAQAgEUBEoCJUgRQgRQCc46rpoNSKAiVJBX4tjMFMLzSBvU3W48GjSqbb66l77LaqJ2P3UVOHuxPEzagg5mHbPNoHYbHuaHFcm/Mpy2V7F5nUpy+Mds9v2LGoySyhgHo/J6ofVcAfxc2qo5jfHe0/EslgKX1aFZUYxX05tVYZOwDW5ocW9+aW/iWmGa/NHkzPLLflkQpst6R2hxfGfrsP9t1qhmNEt+q/O4zywFy3aMvaWqZK0PjcHNOojUtsJxmtYvYZJwcHpI9CvR4IlAaTIigp5ZJOdhike1rSwvY1xaLkOAJGgaWrkZrHZGXijqZbLbKPgbyGFrBZjWtHU0ADwXGOseiAEAIDDYpyT4VMS7mHROO2KRw8HXb4IDP1PIyWaaTEpo/qyNzx3tc23cVZC2cOFtHiVUJcSTKqpyDx2G5ZJTVIGoXzXHd6QYAftdq1QzG+PXr4maWBpl1aeBU1RxOn/WMMmttdGC5o6z6IcPFaYZtL4o8jPLLF8MuZxR5W09y14kjcNYe38rnvC1QzSl79UZ5Zdat2jLCnxenf0ZmHdex7jpWqGKpnukjNLD2x3xZ13V+8pYipIEUBFAIoCJUgRQGDyhqM+YyerbNYesNJBPC5K+ZzGfTs6fVuX0/k7+Bh0a+j1739f4NJhbHiGCaI5ssYu2+pwJOcx31T4aCu3Th3ZhK5Q2SS2ej7mci29V4myMuFvb6rvRucExmOpYS30Xt0SRu6TD1HrHUdqiu1T1W5reuwmytw2709z7SxVpWCAEAigEUAipBEoCJQgRQCKArsWxqCmbeaQNOxut54NGn4Km2+upe+y2qmdj91FTh7sTxQ2oYOYhOgzy6Bbcbf0hx3hcm7Mpy2Q2LzOnTgIR2z2/Y3GS/JLSU7ueqnGsn1kyfRg9YZpzjvcTq1Bc5tt6s3pJLRH0JrQAAAABoAGgAbgoJJICtxPHIYND3Xd7DdLu3q7Vpowlt3CtnazPdia6t729hgcoa9lWfSp4Q0G4vGxz9Gq7yL91l2KMvqr2y2vy5HLux1k9kdiK5bzEIoQRKAusj61sVVd7g1rmOaSdAGjO0/dWLH1OynSK1eq9P9mzBWKFusns0ZdYtlq0XbTtzj7b9Dexus9tljoytvba9O5Gq7MUtla+rKSHK6rbre125zBb8NitksuofVp4P/wBMscdeuvXxX/hZU+Xjh9JA072OI8CD5rNPKY/DLmi+OZv4o8i0pstaV3Sz2cW3He0lZp5Zct2j/O80xzGl79UWtNjdNJ0J4yerOAPcbFZZ4a6HFFmiGIqlukjvBVBcNACA5K7DIJhaaGOQfXY13mEBmMS5LsJm0mkEZ64nPZ+EHN8EBm6vkThH6rXVEJ2Z2a8cPQzF7jZKPC2jzKEZb0mVNVyaYzEfmaqCdvU+7XHvb/ctMMffH4tfEzSwVMurkU1VQYxACZsNe8DbF6Q/AXrVDNpriin5epnllkHwya8/Qhh9e6W+dBJHbQc8Aado06fBdTD4h3LXoteJzr6P0np0kztK0mciVIKbEKwykwRHdK8eqNrWn2j4LHZN3N1Vv/6fZ3Lv+xphBVL9Sf0Xb3vu+5n8p2Bro2gWAZYDddcvNoqMoRW5I6WVycozb36mnwL9Wi934ld/L/7avwOHjv7ifie01Mc8TRPMcrRYPbtHsvB0ObuK9YjCxtfST0kuv/T7URRiXWui1rHs9OxlzhmVIuIqoCGTUH/sZPdceidxWB2SrfRuWj7ep/nYzaq42LpVPXu61+dppAVeUggEgEUB4VVSyNue9wa0aydQ4nYN5USkorWW4mMXJ6IjT1UcgvG9rx1tcD5JGcZcL1EoyjvWh6FejyV2L41BTNvNIGnY0aXng0ae3UqbcRXUveZbVTOx+6iow52KYobUMHMQHQZ5dHGxt4NBO8Lk35lOWyGxeZ06cBCO2e1+RucmOSWjp3CaqJrJ9ZdL9Hfcwk532yeAXObberN6SS0R9Ba0AAAWA0ADUOCgkaArcTxuGDQ513ey3S7t6u1aaMJbbwrZ2sz3Ymure9vYZHFMqJpbtZ823qb0jxd+Vl2KMvqr2y2vv3cjl3Y6yeyOxfnWUJK3GIiVIEUIIlARKARUgigEUBEoBFARKkg9YKqSP6OR7Pdc5vkV4lXGXEk/FHqM5R4W14FpTZWVjP22cOp7Wu8bX8VmngMPL4dPA0Rxt8fi18S1puUCUfSQsdvaS0+N1lnlMHwya8dvoaY5nP4ootabLymd02yM7A4fhN/BZp5XcuFpmiOZVPemi2pco6STo1Edzscc09zrLLPB3w3xf3+xojiqZbpIs2OBFwQR1jSFnaa3mhPXcU2NZUU9NdrnZ7x6jNLu06m9q1UYK27alou1mW7GVVbG9X2IwWNZY1M92tPNM9lh9I+8/X3WC7VGX1VbXtff6HJux1tmxbF3epnSVuMZz1VUyNuc9waN/wAOteLLIVrWT0R7hXKb0itSplqZZ9DbxRdeqR43ewPFZ/6t+73Y+b9PuX/06d/vS8l6ntBC1jQxgsBqC1V1xrioxWiM05ynLpSe0zeVvTZ7p81w8344+B2cq4JeJpsB/Vovd+JXewH9tDwOJjv7ifiWC1mUjJGHAtcAQdYIuColFSWklqiYycXqnozxpefp/wBWls3/AEpLui+z6zOzQufPAuG2mWnc9q9Ubo4xS2XLXvWx+jLilyujHo1MboD7R9KI8HjV2gLPK2Vey6Lj371z9S9VKzbVLXu3PkX8E7JGh7HNe06i0gjvCujJSWqepU4uL0ZIqSCD2gggi4Ogg6iOopvBU0nJxh1Q+2fNTS3u0xuBYSToFnC7T1AELi4zBOH9Svd9v4OvhcWp+5Pf9zpn5KcQjv8AJsVJadGbKHiw3G7hfgAsccTbHdJmqWHqlvii+yX5J6OnPPVN6yfWXS6Y77mG+d9q6pbberLUkloj6A0AAACwGgAagFBI0BWYpjsEBzHvBktcRtsXkabG2waDpPUtFGGnc9IlF2IhUveMnimU00t2tPNt6mn0jxd+Vl2aMvrr2y2vv9DlXY6yexbEURW4xCKAipAigIlCCJQCKAiVIEUBEoBFARKARUkCKAiUAigIlAIoQOKVzOg5zb+ySPJQ4qW9akpuO7Z4HkvRBy1mIRRdN4B6tbjwaNJVVl9dfE/XkW10znwor34jNJ9FHzbfbk19jB8VV07rOCPRXbLfy9T30aq+N6vsXr6HnDQgOz3kyP8Aafpt7o1NHBWV4WMX0pe9Ltf+uw8TxEpLox2LsX++06VpKBFQSZjK3ps90+a4Gb8cfA7WV8EvE02Afq0Xu/Eru5f/AG0PA4uO/uJ+JYLYZQQAgEUBx/o1gdnxF0L/AGoiWX4gaD2hY7MBTJ6xXRfbHZ/BrhjbYrR+8ux7f5O2HFa2P1o5x9cc2/7zbtPcqHhsRDhkpLv2P0LliKJcScfDavU7YsrYx9PDNCdpzecZ96O/kqnbKH/JCS+mq5rUsVUZf8c0/J8mWdFjFPN9FNG49QcM77p0r1C6ufDJHmdM4cSZscLyoLGZkzXPt0XC17dTrnxWDEZd05dKtpfnUbaMf0Y6T2nU7LCPZE/vaFSsrn8yLv3KHys8nZZDZCe1/wD6XpZU+uXkeXmS6o+Z5OyzdshHa8/9q9rKl1y8v5PDzJ/L5/wYjLXCYMSlE8rXMkDAy7HaM1pJAs4W9Yr0srr65PyIeZT+VFdRZOc10aqp4GQEdxbZaK8Gobpy5meeKc98Y8i3iYWixc5292bfwAWuK069TO3r1EipPIipBEoBFCCJQESpAkBEoBFARKARUkESgEUAigIlARe4AXJsN6N6bwtpXTY5TtNucDj1Mu8/hus7xdSeier7tv2L1hrWtWtF37Pucz8Wld9FAR9aUhg+6LuT9S6fBDTvls8t4/Tqjxz/AMdvnuPF8Mz/AKSYgezEMwfe6RXr2ayf/JP6R2ee88+0Vx4IfV7fLcTpqKOPoMAO063HiTpKurorq4Fp9+ZVZfZZxM9laViUASgkRUEmXyt6bPdPmuDm/HHwO1lfBLxNPgA/y0Y6m2PEE3Xdy9//AJoeBxsd/cT8SwWwyAgBACAEAIAQHNUUMUnTja7eQL9+tU2YeqzjimW13218MmiEdCWfRTTR7myEt+664Wd5fWuByj4P11NCx03xpPxXpodDK2tZqnjk/wCSOx72EeSreEvjwzT8V6eh7WJpfFBrwfqe7cfqm9KmY/8A45beD2/FeXDEx3wT8H6pHpTw8t0mvFeh6jKlo0Pp6hu8Ma8fhcT4Lw7Zx4q5ctfselXB8M489PuejcqqT1pHM9+ORviW2Xn2qtcWq8U1/o9ezWPdo/Bo6I8cpXaqiL77R5le1iaXukuZ5dFq3xfI6o6qN3Rew8HA+RVinF7mitxkt6J3Xo8iKkCKEESgIlAIqQRQCIQEHOA1kKNRoc8tdE3pSxji9o+K8u2tb5Lme1XN7k+RySY9Sj9uw8DnHubdVPF0r4l9z2sNc/hZ4nKGH1RK/wB2J/xAT2qL4VJ+EWT7PJcTS8WjzdjTz0KWQ++WM+JU/qWvhrf1aX+zz+nUuKxfTVkHVlW7UyFnFznnwAC9dDFPqivq36EdPDr5nyXqeToZ3dOpcN0bWs8dJUrC2Pjsf0SXqR7TWuGtfVt+h5/omIm7w6Q9cjnO8CbL0sDTvktfFtnl4y3qengtDqjja0WaABuAHktMYRitIrQolKUnrJ6kipIEVAEVBIihIioJEVAIlQSZvKiFzpGZoJs3TbeT+S4Obv8AqR8DtZZwS8TdYxhxpK6ppHCwbI6aLYDDK4vbbgS5p3tXRya9SqdfXH7MwZtS42/qdT+6PFdg5QIAQAgBACAEAIAQAgBACARQHk+mYdbGni0FeJVVy3xXI9q2a3N8zwdhNOdcLPugeSpeCw73wXItWLvXxvmQ/Q0GxhHB7x5FeP2/D/L5v1Pft1/zeS9Btwpg1OlHCWT81H7fSt2v+T9SfbruvTkvQZw399Ufzn/mo/b6/ml/kx7dZ8seSAYcf9xU/wA0/EKP2+Hzz/yJ9un8seQfo93+5qP5n/pP2+Pzz5/wPbpfJHl/Iv0b+/qP5zvgn7fX80v8h7dP5Y8hjDBtlnPGZ/5r1+31dbl/kyPbrOyP+KI/oeLbnnjJIfin7dR1p836j2+7tXJegfoan/0geJcfMr0sBhvkXmzy8biPmZ6sw2FuqKMfZCsjhaI7oLkjw8Tc98nzPdsTRqaBwACtUIrcityk97JFSQRUASgkSgkRUEiQCUEiKgESoJEhIlBIioAlBJuOSbJZlWyoq52AxueyKG4GkRZ+e4X2Fz7fYK+Xx9ytubW5bD6LBVOupJ73tNnyj5HmuibNBZtVBcxE6BI09KF+52w7DY9apw98qLFOPUXX0xug4SPj0E1y5rmlkjDmyRuFnscNYcF9jhsVDEQ6UPquw+UxGHnRLoy/9PZaCgEAIAQAgBACAEAIAQAgBACAEAIAQAgBACAEAIAQAgEUAioJEVBIkJEoAioJEVBIlAEhJEqCRKCRKAJQSJCTtybwCXEqj5NDdsbT/mJhqjbta07ZDqA2a9i5GPxygnXB7evu/k6eCwbk1ZPd1d5+hcMw+OnhZTwtDY42hjGjYB5neuCdo6kBkMtsg4a8idjuYqmizZmgHOFuhK3126t4toOxW03zpn04PRlVtMLY9Ga1R8ixWlno5eYrY+acehILmCXex/X9U2IX02EzSu73Z+7LyZ8/istsq2w2rzEuoc0EAIAQAgBACAEAIAQAgBACAEAIAQAgBACAEAIAQCQkRUARUEiKgkRQCKgkiVBIlAEVBIihIlBIlAPKeZrBnOcGjrK8TsjBdKT0R7hCU3pFas02SeQVViFpJM+lpT6xFqiUfu2u6DT7ThwC4WKzNy92rYu3r/g7OGy9R96za+zqPtWCYPBRwNp6eMRxt1AbTtLjrc47SdK5J0zvQAgBAeFdRRzRuimjbIxws5r2hzTxBQHzXHeSgtJfh0wjGvmJs50XBj9Lo+GkLdhswuo2J6rsf5sMeIwNV21rR9qMFikE9I7NraeSDYHkZ0DvdlbdvYbFd3D5tRZsn7r793M41+V3Q2x95efIUcgcM5pBB1EG47wunGSktYvVHOlFxejWjJKSAQAgBACAEAIAQAgBACAEAIAQAgBACAEAkAISIqCSKgCUEiUARQkSgkRUEiKgCUEnPUVTGaHOAJ1DW48ANJVNt9dXHJItrpss4FqaDA8i8RrLFkPyaI/tKkFriPqRdI7s6wK5V+bdVS+r9Dp05Z12P6I+m5K8m9HRkSvBqagaedlAOaf3bOjH571x7bp2vpTep1K6oVrSC0NmqywEAIAQAgBACAjIwOBa4Ag6CCLgjeCgMZjPJhh85L42OpZDpz6c5gPFmlh7lbVdZU9YNorsqhYtJpMx+JcmWIxaYJoKpunQ+8Eu4C2cw8TZdOrObo7JpS8vzkc63KapcDa8/wA5mXr6eopyRU0lRDbW4xl8f8yPObs610qs4w8uLVeP8HPsyq+PDo/zvOenrY5OhI13Ai/cuhXfVZwST+pinTZXxRaOhWlQIAQAgBACAEAIAQAgBACAEAIAQCKASgkRQkSgCUEiUEiKgkiSoZJzGvjzsxrs92xrAXu7mAlZbMbRXvkvpt+xorwl090X9dn3LrDclsTqbc1RPY0+vUEQtGvTmn0zq2NWC3N4Lgjr47DbXlc3xvTwNZhXJDI6xraw746ZuaOHOv8ASI+yFzrcxvs2a6Lu/NTfXgKYdWvib3AMkKGi009MxjtryM6U8Xuu7xWFtt6s2JJbEXigkEAIAQAgBACAEAIAQAgBACApMXyRoKrTPSQvPtZgD/vts7xQGYq+SOiOmCaqg3Nlz2d0od5rTXjL6+GbM88LTPiiijq+SquYPma2CXqE0Toz2ujc7vzexbIZxiI79H9PQyzyqiW7VfneVNVkRi0f/SxS74Z2+UoatcM8+aHJ/wAGWWT/ACz5oqqigrIzaSgq27xCZG98ectMM5w736r6ehnllN63aMr5MSjboeXR/wDIx7P6gFojmWFl8fPVFEsvxEfh+xKPEIXapYz9pv5q+OJplumuaKZYa6O+L5Hu2QHUQeBBVylF7mVuMlvRNSeQQAgBACAEAIAQCJRko8n1DBre0cXAKuVkFva5nuNc3uT5HM/FYBrlZ2OBPgqJYzDx3zXMujhL3ug+R6wzOk+ihqJf+OCV3k1USzTDL4tfoy+OXYh/D5osqbJ/Epfo8On/AIhjiH43X8FmlnNS4Yt8kXxym34pItqfk3xZ+sUsI258j3uHYxlj3hZZ51N8MEvHb6GiOUwXFJ/b1Lqj5IHnTUYg63swRNjt9p5cT3BZZ5niJfFp4GqGX0R6tfEvqDkqwyOxfE+cjbPI947Wghvgsc7Zz4pN+LNUK4Q4UkazD8MggbmwQxxN6o2NaPwhVns60AIAQAgBACAEAIAQAgBACAEAIAQAgBACAEAIAQEXsB0EA8RdAVtTk5RSX5ykp33150MZPeQgKyo5PMKeLGggHuszD3ssgKfEeTPCmC7aZzeE9QP/ANF7Vk11vmeHCL6kZfE8j6ONpLI5B/HqP/IvaxNy3TfNnl4ep74rkjC19MGEhrpB/FkPm5evbMQvjfNnn2Wl/AuSKGtrJG9GR4+04+ZT2/Er42R7HQ/gRXwYvOTYyv71LzDE/Ox7Dh/kRd0cjndJ7z9t48int2IfxvmPZKPkXI0+A4RFK6z+cP8AGmHk9R7Xe/jlzZPs1PyLkjbUWQWHvPpQvP8AHqP/ACLw77Xvk+bPaprW6K5I0dNyX4QAD8jDj9eWZ47nvIXhzk97PailuRaQZD4Yw3bQUwI64mHzC8klpS4VTxfRwRM9yNrfIIDsQAgBACAEAIAQAgBACAEAIAQAgP/Z;" vertex="1" parent="LMzbSZaPqSbP6ukTdfSf-9">
          <mxGeometry width="94" height="45" as="geometry" />
        </mxCell>
        <mxCell id="LMzbSZaPqSbP6ukTdfSf-11" value="&lt;b&gt;UNKNOWN&lt;/b&gt;" style="text;html=1;strokeColor=none;fillColor=none;align=left;verticalAlign=middle;whiteSpace=wrap;rounded=0;fontColor=#FFFFFF;" vertex="1" parent="LMzbSZaPqSbP6ukTdfSf-9">
          <mxGeometry x="17" y="25" width="70" height="20" as="geometry" />
        </mxCell>
        <mxCell id="LMzbSZaPqSbP6ukTdfSf-12" value="&lt;div style=&quot;&quot;&gt;&lt;font style=&quot;background-color: initial;&quot; color=&quot;#000000&quot;&gt;&lt;span style=&quot;background-color: rgb(255, 255, 255);&quot;&gt;UNKNOWN&lt;/span&gt;&lt;/font&gt;&lt;/div&gt;&lt;div style=&quot;&quot;&gt;&lt;font style=&quot;background-color: initial;&quot; color=&quot;#000000&quot;&gt;&lt;span style=&quot;background-color: rgb(255, 255, 255);&quot;&gt;Device Ty&lt;/span&gt;&lt;/font&gt;&lt;span style=&quot;background-color: rgb(255, 255, 255); color: rgb(0, 0, 0);&quot;&gt;pe:router&lt;/span&gt;&lt;br&gt;&lt;/div&gt;&lt;div style=&quot;&quot;&gt;&lt;font color=&quot;#000000&quot;&gt;&lt;span style=&quot;background-color: rgb(255, 255, 255);&quot;&gt;OS:&amp;nbsp;&lt;/span&gt;&lt;/font&gt;&lt;/div&gt;&lt;div style=&quot;&quot;&gt;&lt;font color=&quot;#000000&quot;&gt;&lt;span style=&quot;background-color: rgb(255, 255, 255);&quot;&gt;Interface Type:&amp;nbsp;&lt;/span&gt;&lt;/font&gt;&lt;/div&gt;&lt;div style=&quot;&quot;&gt;&lt;span style=&quot;background-color: rgb(255, 255, 255); color: rgb(0, 0, 0);&quot;&gt;Interface IP: 172.16.120.2/29&lt;/span&gt;&lt;/div&gt;&lt;div style=&quot;&quot;&gt;&lt;font color=&quot;#000000&quot;&gt;&lt;span style=&quot;background-color: rgb(255, 255, 255);&quot;&gt;Routing Protocol:BGP&lt;/span&gt;&lt;/font&gt;&lt;/div&gt;&lt;div style=&quot;&quot;&gt;&lt;font color=&quot;#000000&quot;&gt;&lt;span style=&quot;background-color: rgb(255, 255, 255);&quot;&gt;IP Network: INTERNET&lt;/span&gt;&lt;/font&gt;&lt;/div&gt;&lt;div style=&quot;&quot;&gt;&lt;font color=&quot;#000000&quot;&gt;&lt;span style=&quot;background-color: rgb(255, 255, 255);&quot;&gt;Network Name:INTERNET&lt;/span&gt;&lt;/font&gt;&lt;/div&gt;&lt;div style=&quot;&quot;&gt;&lt;font color=&quot;#000000&quot;&gt;&lt;span style=&quot;background-color: rgb(255, 255, 255);&quot;&gt;Ports:179&lt;/span&gt;&lt;/font&gt;&lt;/div&gt;" style="whiteSpace=wrap;html=1;fillColor=none;align=left;verticalAlign=top;" vertex="1" parent="LMzbSZaPqSbP6ukTdfSf-13">
          <mxGeometry y="45" width="190" height="156" as="geometry" />
        </mxCell>
        <mxCell id="LMzbSZaPqSbP6ukTdfSf-14" value="" style="group" vertex="1" connectable="0" parent="1">
          <mxGeometry x="-413" y="-1590" width="206.5" height="270" as="geometry" />
        </mxCell>
        <mxCell id="LMzbSZaPqSbP6ukTdfSf-2" value="" style="image;aspect=fixed;perimeter=ellipsePerimeter;html=1;align=center;shadow=0;dashed=0;spacingTop=3;image=img/lib/active_directory/web_server.svg;" vertex="1" parent="LMzbSZaPqSbP6ukTdfSf-14">
          <mxGeometry x="20.5" width="88" height="110" as="geometry" />
        </mxCell>
        <mxCell id="LMzbSZaPqSbP6ukTdfSf-3" value="&lt;font color=&quot;#000000&quot;&gt;&lt;span style=&quot;background-color: rgb(255, 255, 255);&quot;&gt;networking-ctfd-2.server.vta&lt;/span&gt;&lt;/font&gt;&lt;div&gt;&lt;font color=&quot;#000000&quot;&gt;&lt;span style=&quot;background-color: rgb(255, 255, 255);&quot;&gt;Device Type: Web Server&lt;/span&gt;&lt;/font&gt;&lt;/div&gt;&lt;div&gt;&lt;font color=&quot;#000000&quot;&gt;&lt;span style=&quot;background-color: rgb(255, 255, 255);&quot;&gt;OS: Linux 3.10-4.11&lt;/span&gt;&lt;/font&gt;&lt;/div&gt;&lt;div&gt;&lt;font color=&quot;#000000&quot;&gt;&lt;span style=&quot;background-color: rgb(255, 255, 255);&quot;&gt;Interface Type:&lt;/span&gt;&lt;/font&gt;&lt;/div&gt;&lt;div&gt;&lt;span style=&quot;background-color: rgb(255, 255, 255); color: rgb(0, 0, 0);&quot;&gt;Interface IP: 10.50.23.63&lt;/span&gt;&lt;br&gt;&lt;/div&gt;&lt;div&gt;&lt;font color=&quot;#000000&quot;&gt;&lt;span style=&quot;background-color: rgb(255, 255, 255);&quot;&gt;Subnet Mask CIDR:&lt;/span&gt;&lt;/font&gt;&lt;/div&gt;&lt;div&gt;&lt;font color=&quot;#000000&quot;&gt;&lt;span style=&quot;background-color: rgb(255, 255, 255);&quot;&gt;Routing Protocol:&lt;/span&gt;&lt;/font&gt;&lt;/div&gt;&lt;div&gt;&lt;font color=&quot;#000000&quot;&gt;&lt;span style=&quot;background-color: rgb(255, 255, 255);&quot;&gt;IP Network:&lt;/span&gt;&lt;/font&gt;&lt;/div&gt;&lt;div&gt;&lt;font color=&quot;#000000&quot;&gt;&lt;span style=&quot;background-color: rgb(255, 255, 255);&quot;&gt;Network Name:&lt;/span&gt;&lt;/font&gt;&lt;/div&gt;&lt;div&gt;&lt;font color=&quot;#000000&quot;&gt;&lt;span style=&quot;background-color: rgb(255, 255, 255);&quot;&gt;Ports: 53,8000&lt;/span&gt;&lt;/font&gt;&lt;/div&gt;&lt;div&gt;&lt;font color=&quot;#000000&quot;&gt;&lt;span style=&quot;background-color: rgb(255, 255, 255);&quot;&gt;&lt;br&gt;&lt;/span&gt;&lt;/font&gt;&lt;/div&gt;" style="whiteSpace=wrap;html=1;fillColor=none;align=left;verticalAlign=top;" vertex="1" parent="LMzbSZaPqSbP6ukTdfSf-14">
          <mxGeometry y="110" width="206.5" height="160" as="geometry" />
        </mxCell>
        <mxCell id="LMzbSZaPqSbP6ukTdfSf-15" value="" style="group" vertex="1" connectable="0" parent="1">
          <mxGeometry x="-40" y="-1020" width="190" height="201" as="geometry" />
        </mxCell>
        <mxCell id="LMzbSZaPqSbP6ukTdfSf-5" value="" style="group" vertex="1" connectable="0" parent="LMzbSZaPqSbP6ukTdfSf-15">
          <mxGeometry width="94" height="45" as="geometry" />
        </mxCell>
        <mxCell id="LMzbSZaPqSbP6ukTdfSf-6" value="" style="shape=image;verticalLabelPosition=bottom;labelBackgroundColor=#ffffff;verticalAlign=top;aspect=fixed;imageAspect=0;image=data:image/jpeg,/9j/4AAQSkZJRgABAQAAAQABAAD/2wCEAAkGBxISEBUQEhIVFRUWFRcVFRgWFxcYFRcXGBcXFhcYGBoYHiggGBolHhUVIjEjJSkrLi4uGB8zODUuNygtLisBCgoKDg0OGhAQGyslHyUtLS0tLysuLS4vLS8tLS0tLS0tLy0tLS0tLS0tLS0tLS0uLS0tLS0tLS0tLS0tLS0tLf/AABEIAJsBRQMBEQACEQEDEQH/xAAcAAACAwEBAQEAAAAAAAAAAAAAAQIFBgQDBwj/xABJEAABAwIBBwgFCAgFBQEAAAABAAIDBBEFBhIhMUFhcQcTMlGBkaGxIkJScsEUIzNigpKi0RU0Q2ODk7LCFiRTVHNE0tPh8cP/xAAaAQEAAwEBAQAAAAAAAAAAAAAAAQMEBQIG/8QAOBEAAgIAAwQHBwMEAwEBAAAAAAECAwQFESExMpESQVFhcaHRFCJCUoGx8BMV4SM0ksEzYvFyJP/aAAwDAQACEQMRAD8A+4oAQAgBACAEAIAQAgISytaM5xDR1kgDvKAztfl/hcOh9dASNFo3c66/VmxZxvusm8FXPyo0n7GCsn3sp3Nb96UtAV0cPbLdF8iqV9cd8kcEvKPVOPzWGEDrmqGN/CwOKvjl976tPqUyx1K69Tjly0xZ3RZRRceelPm0K6OV2Pe0VSzGHUmccmOYs6969jL7I6aPR2vLirVlS65eRU8yfVHzOaWeveLPxSq+xzUf9LLqxZXX1tnh5jZ1JHK6jlPSr693Gql8gVYsto7+ZW8fd3ciBwsHQ6aqd71TOf716WX0dnmzy8dd2+SPA5PU51iQ8ZpT5uXr2Gj5fuQ8Zd832IOyapTrivxc8+ZU+xUfKR7Xd8xD/DFH/oN8fzU+xUfKiPa7vmH/AIdptkZHB8g8nKPYaPlJ9su+YlHgsTdLTM33Z5h5PUewYf5fNk+23/N5I9fkTh0aqsbwqpv+5eXl1HZ5krH3dvkTZ8qb0MRrhxqHPHc+4Xl5ZS92p7WYWrfodTMZxNp9HEpeD4oH/wBgVbyqHVJntZlPrijphyvxdn/UU8v/ACU5b4xvHkqpZS+qXkWLM11x8zuh5R8Rb06Slk9yaSMn7zHKqWV3Lc0y1ZjU96Z3wcq1vp8OqG9fNOilH9TT4KiWBvj8JbHGUv4iyg5U8MP0kksJ/fQTN7yGlo7Ss8qpx4k19C+NkJbmmaHDMpaKo0QVcEh6mSsLhxaDcLwey1QAgBACAEAIAQAgBACAEAIAQAgBARe8AXJAA1k6AEBlsU5RcOhcWCfn5NPoUzXTu0bLxgtB4kL1GMpbIrU8yko73oUNVyg1sl/k1A2Nux9VKAduuKIOI2estcMvulvWniZZ46qO7b4FTVV+Jz/TYgYwfUpY2xD77s5/iFrhlcfilyM08xl8KKx+TtO4h0ofO4etPI+U/jJHgtcMFRH4eZmli7pdfI7qekjjFo42MHU1ob5LTGEY8K0M8pSlvZ6lejyIoCJQCKAiVJAigIlAIoCJQCUgRQEShBEoDlq6l7OjC+T3TGP6nAqqc5x3R1+qLYQi98tOZTT5SPabGiqL+7cd4WWzHShvrZphg4y3TQDF653QwqqcOvMl+EZWZ5t/08/4L/2z/t5fye8bsWf0MJmHvhw/qAXn92l8q5nr9sj8x7DDccd0cMt7z2jzeF5ea2dUUellsOtsP8PZQ2J+RRCwJ+kiJ4ACY6V5/dLuxfn1PX7dV2v8+hU4ZUU9XeOaBjZ2XD2ObZ1wbG19I06xrC3Ye2nFLSUV0vzcY767sO9YyfR/N5c0kUsFvk1VUwW1Bkriz7j7t8F6nltEt2q8DxDMLo79pe0WXGKw6HSU9S396wxP+9H6N/srJPKZfBLma4ZnH4o8jQYfysRjRWUk8H147TxcSWWePurFZg7q98eW0114uqe6XPYa/BMqKKsH+WqYpDa+aHWkHFjrOb2hZTQXCAEAIAQAgBACAEAICpx/KWkom51TOyO/Rbre7c1jbud2BAYquy+rJ9FFTCBn+tVXzzvbAw3GzS5w16ltqwFs9r2LvMduNrhsW19xnq6hdP6dfVS1NrGz3COAHdEyze+66FeAqhtlt8TDPG2z2R2eB3UsEbGhsbWtbsDAAPBboxilpExycm/ePQr0QIoCJUgRQEShAigEUBEoBFSQRKARQESgEUAipBEoBFCCJQHJX18ULc+V4YNl9Z4DWexV23QqWs3oWV1TsekVqVNDWV2IOMeG0zs29jPJoY3fc+iOvady5N+aSeytad7OnTlyW2x69x9oyKweakoo6eebnpQXOe8XIu5xdYF2kgXts1aguVKTk9XvOkkorRF6oJBAcOI4vBBbnZA0nZpLuNhpsrqsPbbwLUqsvrr4mYLLvJakxL/NUdRFFWt0tdnBoltqa8HSDsDrbjo1enRfU+l0WtDyrqbFpqmYLCsWcZHUtSwxVLDmua7RnW2jft3jSNC7WDxqt92WyX3ORisG6vejtj9i3K6BiIoDkqsPikN3MGcNThoeODhpCqsw9dnHFMtrvsr4WWuGZSYlS/Q1XPMH7OqHODgJBZ47SVzbcqT21vTxN1WZNbJrkbPBeVancQytidSPOjPJ5ynJ2WkaPR+0BbrXLuw1tXGvQ6VWIrt4Wb+nqGSND43Ne1wu1zSC0jrBGgqguPRACAEAIDwrq2OGN0sr2xsaLuc4gNA3koD5viuXNVVksw8cxB/uZWXlfvhidoaPrP69S24fAzt2vYjHfjIV7FtZSQYdDCXTvcXyHTJPM7OkPF7uiNwsF16sPVQtVzZy7LrLno+SKSsyy5yT5PQQuqpjoGaDmDfo0uGrqG9ZrsxjHZXtfkaacBKW2ez7lzhPJbVVhE2LVLg3WKeEjRts53RbtGgE/WXKtvstfvM6VdMK17qOyp5F4m3+SV9TAdlyHgdfQzCq4zlHhbR7lCMt61OCfITHYT8zWQVDRskGa4/eb/ctMcdfH4uZnlg6ZdRXT1GNU/6xhZkA9aEk6PsF/wAFohmc1xRT8vUoll0fhbOVmXsAdmTxTQu2hzb269/gtUMyqe9NGeWX2Lc0y1pMp6OTo1DLnY45p7nWWmGLplukiiWGtjviyzZIHC7SCOsG48FemnuKGmt4ypIIlAIoQRKkCKAiUAigEgIlSBFCDkxDEIoG58rwwbL6zwGs9iqtuhUtZvQsrqnY9Iop6GsrsRcY8Opjm3s6eQWY3tPog7tJ3Lk35nJ7K1p3nUpy6K22PXuNtk3yQQMeJ8QldVza80kiEbbe0+2nXYaeiuZKcpPWT1Z0IxUVokfSqeBsbQxjWsa0Wa1oAaB1ADQF5PR6ICvxTGYKcfOPAOxo0vPZ8Sr6cNZc/cX16im3EV1cTMVi+Wc0l2wjmm9euQ9upvZ3rsUZbXDbPa/I5V2YTnshsXmZh7iSSSSTrJNyeJOtdJJJaIwN6vVkCpIPKaBjrZzWutquAbW1W6l5cIy3o9KUluZIr0eRFARKECKAi4X0FNNQLCaqoon59FMYrm7oj6VO/jH6p3tsVzsRltdm2Gx+RvozCcNktq8z6dkfyiw1Tm01S0U1UdAaTeKXfE86yfZOkb9a4l1E6ZaTR2KroWrWLNwqS0EBX47jENHTvqZ3ZrGDZpc4nQ1rRtcTYAID5RXST4hKKmtFmNOdT0t7xxbA+T/Ult16Bc2XawmBUffs39hycTjHL3Ybu07l0znGexHJNlTMH1FRUPjBvzQcxreAs2w6r2Jtt2rBfgna9XN/nI2U4tVbOij6Bk7VUFJHzVPT8w3bmtuXb3OuXPO83WGWW2rc0zbHMK3v1RoIcWgdqlbwJsfFZ5YW6O+LL44mqW6SOxpvpGngs7Wm8vT1GgBAeNVSRyjNljZIDoIe1rh3OCAzOJcm2FT9KijaeuLOi8IyAe0IDN1XIrSgl1NVVMBOr0muaOrUGu7ypjJx3MhxT3orJ+TjGYf1fEI5gNkoIcdvrB/mtEcZfHdLnt+5RLCUy3x/0V1RDjtPfnsOErRthOcfwFx8Fqhmdi4kmZ5ZdB7m0cBy4Yx2ZUU88DupzfgbHwWmGZ1viTRnll01uaZ0S5a0QYXiQut6oa7OJ16iB36lc8woUddSlYG7XTQlQ4Zi+JsMkEfySnzSWvfcSSCxIzNpvo0gAbyubfmNk9kNi8zoU4CuG2W1+RcUs4kjZINT2tcODgD8V3oy6UU+040l0W0TKk8iUg5MQxGKBufK8MGy+s8BrPYqrboVLWb0LK6p2PSKKWhra/EXGPDac5gNnTyCzG9p9EHdpO5cm/M5PZWtO86dOXxW2zb3G3yc5IIGOE+ISOq5teaSRCDrtbpPtvsNy5kpOT1k9WdGMVFaJH0mngbG0MY1rGtFmtaA1oHUANAC8knogK/FMZgpx848X2NGl57NnEq+nDWXcK+vUU24iurif06zF4vllNJdsQ5pvWNLz2+r2d67FGW1w2z2vyOVdmE57IbF5mZe4kkkkk6ydJPErpJaLRGBvXayBUgRQgiUAigEUBEoBFCCJUgRQESgPCrpmSNLHtDmnYfMdR3rxZXGyPRktUe4TlB9KL0ZtuT/AC5khkjoK55exxDKeocfSv6sUx2k6g/bqK+cxmClQ9Vtj+bzu4XFq5aPYz6wsRsPk2VFf8txFwvenon83GNjqm3zjz15l8wdRzl08uo6T/UfVuOdj7+iv0117wXaOSCAEAIAQEo5HNN2ktO4keSiUVLY1qTGTjueh2w45UN1Sk+9Z3npWeWCol8PLYXxxd0fi5ndDlXIOkxjuF2n4rNLLK3wtrzNEcxmt6TO+HKyI9Jj28LOH5rNLLLFwtMvjmNb3po74Mcp3apWj3rt/qss8sHfHfF/Tb9jRHF0y+LnsO6OQOF2kEbiD5LM4uOxovTT3E1BIICE0TXjNe0OHU4AjuKAp2ZIYeJRM2ipw9puCImCx67AWvvtdAXd0B8gZT80Xw2sIpZYmj6jJHNZ2ZgaRuIX02Dl0qIv6cth89i49G6S/NoytJnEVIOKqwuCR2dJDG92jS5oJ0arnaNyqnRXPbKKZZC6yHC2aagyqnia2NrYsxos1oYGgAbAGWAHYsk8tpe7VfneaY5hat+jLany5b+0hI9xwPgbeazTyp/DLmaI5kvijyO9uWNLmk3eD7OYbncCNHis7y2/XTZzL/3CnTr5GdxbLCaS7Yvmm9Y0vPb6vZ3roUZbXDbPa/Iw3Y+c9kNi8zNOcSSSbk6STrPFdFLTYYH2kSpAkIIE7NqakiKkgRQCKAiUAigIlCBFSCJQCKARQHhUwNkYWOF2uFiF5nCM4uMtzPUJuElKO9H1XknyjdUUrqed+dPSuEbnE6XxkXikJOskAg72lfKX1OqxwfUfS02q2CmjE5KyZ9K2U65Hyyu958r3HzXcwSSoicbGPW6RbrWZgQAgBACASARQESpBEoBFCDrw7D5ZDeMEDa++a0fa/JUXX11r3+W8uppsm/c57jXYe6OBvztWHu6nPFhwF7rjXKdz9yvReB1qnGpe/Zq/EnLlJSt/aX91rj42svMcBe/h80epY2ldfkzjlywhHRZI77oHmro5Xa97SKZZjWtyZxS5Zu9WEfacT4AK+OVLrl5FLzJ9UfM4psrqg6sxvBtz4kq6OW0rfq/qVPMLXu0RRVEpe90jtLnnOcdVzYC+jcAttdca49GK2GSyyVkulLeea9ngiVIEUIIlAVuK43BTkCV+aSLgZrjcatgsqLsTXU9Jsvqw9lu2KKk5ZwOdmxRzSu2BrB+d/BZZZpStybNEcute9pHRDX4hKbQYVUuB1Oc17W9+bbxVMs2+WPmXRyztl5HbFk/j8p9Gjiiadr3x6OzPJ/CqJZpa9ySLY5dUt7Z2w8m2NSH5ysp4gfYzi7sswf1KiWOvfxF0cFSvhMx+g4HSZv6TfUgXDgDzYNtxeXW7AteGq/V222a92pmvt/S2V16d+he01KyJuZGwNaNgFv8A6uzCuMFpFaI5U5ym9ZPVnoV7PAigIlAIoCJQCKEESpAkBEoBFSCJQFFiuOTUk5MDs0yMZn78wvzf6ivns3WlqfcdvLHrW13mg5Oa28Bp3aHNJkZvje4m/Y7OB4ha8A2q1B9mq8H/ACZcak5uS8H4o163mMEAIAQAgEUBEoCJUgRQgRQCc46rpoNSKAiVJBX4tjMFMLzSBvU3W48GjSqbb66l77LaqJ2P3UVOHuxPEzagg5mHbPNoHYbHuaHFcm/Mpy2V7F5nUpy+Mds9v2LGoySyhgHo/J6ofVcAfxc2qo5jfHe0/EslgKX1aFZUYxX05tVYZOwDW5ocW9+aW/iWmGa/NHkzPLLflkQpst6R2hxfGfrsP9t1qhmNEt+q/O4zywFy3aMvaWqZK0PjcHNOojUtsJxmtYvYZJwcHpI9CvR4IlAaTIigp5ZJOdhike1rSwvY1xaLkOAJGgaWrkZrHZGXijqZbLbKPgbyGFrBZjWtHU0ADwXGOseiAEAIDDYpyT4VMS7mHROO2KRw8HXb4IDP1PIyWaaTEpo/qyNzx3tc23cVZC2cOFtHiVUJcSTKqpyDx2G5ZJTVIGoXzXHd6QYAftdq1QzG+PXr4maWBpl1aeBU1RxOn/WMMmttdGC5o6z6IcPFaYZtL4o8jPLLF8MuZxR5W09y14kjcNYe38rnvC1QzSl79UZ5Zdat2jLCnxenf0ZmHdex7jpWqGKpnukjNLD2x3xZ13V+8pYipIEUBFAIoCJUgRQGDyhqM+YyerbNYesNJBPC5K+ZzGfTs6fVuX0/k7+Bh0a+j1739f4NJhbHiGCaI5ssYu2+pwJOcx31T4aCu3Th3ZhK5Q2SS2ej7mci29V4myMuFvb6rvRucExmOpYS30Xt0SRu6TD1HrHUdqiu1T1W5reuwmytw2709z7SxVpWCAEAigEUAipBEoCJQgRQCKArsWxqCmbeaQNOxut54NGn4Km2+upe+y2qmdj91FTh7sTxQ2oYOYhOgzy6Bbcbf0hx3hcm7Mpy2Q2LzOnTgIR2z2/Y3GS/JLSU7ueqnGsn1kyfRg9YZpzjvcTq1Bc5tt6s3pJLRH0JrQAAAABoAGgAbgoJJICtxPHIYND3Xd7DdLu3q7Vpowlt3CtnazPdia6t729hgcoa9lWfSp4Q0G4vGxz9Gq7yL91l2KMvqr2y2vy5HLux1k9kdiK5bzEIoQRKAusj61sVVd7g1rmOaSdAGjO0/dWLH1OynSK1eq9P9mzBWKFusns0ZdYtlq0XbTtzj7b9Dexus9tljoytvba9O5Gq7MUtla+rKSHK6rbre125zBb8NitksuofVp4P/wBMscdeuvXxX/hZU+Xjh9JA072OI8CD5rNPKY/DLmi+OZv4o8i0pstaV3Sz2cW3He0lZp5Zct2j/O80xzGl79UWtNjdNJ0J4yerOAPcbFZZ4a6HFFmiGIqlukjvBVBcNACA5K7DIJhaaGOQfXY13mEBmMS5LsJm0mkEZ64nPZ+EHN8EBm6vkThH6rXVEJ2Z2a8cPQzF7jZKPC2jzKEZb0mVNVyaYzEfmaqCdvU+7XHvb/ctMMffH4tfEzSwVMurkU1VQYxACZsNe8DbF6Q/AXrVDNpriin5epnllkHwya8/Qhh9e6W+dBJHbQc8Aado06fBdTD4h3LXoteJzr6P0np0kztK0mciVIKbEKwykwRHdK8eqNrWn2j4LHZN3N1Vv/6fZ3Lv+xphBVL9Sf0Xb3vu+5n8p2Bro2gWAZYDddcvNoqMoRW5I6WVycozb36mnwL9Wi934ld/L/7avwOHjv7ifie01Mc8TRPMcrRYPbtHsvB0ObuK9YjCxtfST0kuv/T7URRiXWui1rHs9OxlzhmVIuIqoCGTUH/sZPdceidxWB2SrfRuWj7ep/nYzaq42LpVPXu61+dppAVeUggEgEUB4VVSyNue9wa0aydQ4nYN5USkorWW4mMXJ6IjT1UcgvG9rx1tcD5JGcZcL1EoyjvWh6FejyV2L41BTNvNIGnY0aXng0ae3UqbcRXUveZbVTOx+6iow52KYobUMHMQHQZ5dHGxt4NBO8Lk35lOWyGxeZ06cBCO2e1+RucmOSWjp3CaqJrJ9ZdL9Hfcwk532yeAXObberN6SS0R9Ba0AAAWA0ADUOCgkaArcTxuGDQ513ey3S7t6u1aaMJbbwrZ2sz3Ymure9vYZHFMqJpbtZ823qb0jxd+Vl2KMvqr2y2vv3cjl3Y6yeyOxfnWUJK3GIiVIEUIIlARKARUgigEUBEoBFARKkg9YKqSP6OR7Pdc5vkV4lXGXEk/FHqM5R4W14FpTZWVjP22cOp7Wu8bX8VmngMPL4dPA0Rxt8fi18S1puUCUfSQsdvaS0+N1lnlMHwya8dvoaY5nP4ootabLymd02yM7A4fhN/BZp5XcuFpmiOZVPemi2pco6STo1Edzscc09zrLLPB3w3xf3+xojiqZbpIs2OBFwQR1jSFnaa3mhPXcU2NZUU9NdrnZ7x6jNLu06m9q1UYK27alou1mW7GVVbG9X2IwWNZY1M92tPNM9lh9I+8/X3WC7VGX1VbXtff6HJux1tmxbF3epnSVuMZz1VUyNuc9waN/wAOteLLIVrWT0R7hXKb0itSplqZZ9DbxRdeqR43ewPFZ/6t+73Y+b9PuX/06d/vS8l6ntBC1jQxgsBqC1V1xrioxWiM05ynLpSe0zeVvTZ7p81w8344+B2cq4JeJpsB/Vovd+JXewH9tDwOJjv7ifiWC1mUjJGHAtcAQdYIuColFSWklqiYycXqnozxpefp/wBWls3/AEpLui+z6zOzQufPAuG2mWnc9q9Ubo4xS2XLXvWx+jLilyujHo1MboD7R9KI8HjV2gLPK2Vey6Lj371z9S9VKzbVLXu3PkX8E7JGh7HNe06i0gjvCujJSWqepU4uL0ZIqSCD2gggi4Ogg6iOopvBU0nJxh1Q+2fNTS3u0xuBYSToFnC7T1AELi4zBOH9Svd9v4OvhcWp+5Pf9zpn5KcQjv8AJsVJadGbKHiw3G7hfgAsccTbHdJmqWHqlvii+yX5J6OnPPVN6yfWXS6Y77mG+d9q6pbberLUkloj6A0AAACwGgAagFBI0BWYpjsEBzHvBktcRtsXkabG2waDpPUtFGGnc9IlF2IhUveMnimU00t2tPNt6mn0jxd+Vl2aMvrr2y2vv9DlXY6yexbEURW4xCKAipAigIlCCJQCKAiVIEUBEoBFARKARUkCKAiUAigIlAIoQOKVzOg5zb+ySPJQ4qW9akpuO7Z4HkvRBy1mIRRdN4B6tbjwaNJVVl9dfE/XkW10znwor34jNJ9FHzbfbk19jB8VV07rOCPRXbLfy9T30aq+N6vsXr6HnDQgOz3kyP8Aafpt7o1NHBWV4WMX0pe9Ltf+uw8TxEpLox2LsX++06VpKBFQSZjK3ps90+a4Gb8cfA7WV8EvE02Afq0Xu/Eru5f/AG0PA4uO/uJ+JYLYZQQAgEUBx/o1gdnxF0L/AGoiWX4gaD2hY7MBTJ6xXRfbHZ/BrhjbYrR+8ux7f5O2HFa2P1o5x9cc2/7zbtPcqHhsRDhkpLv2P0LliKJcScfDavU7YsrYx9PDNCdpzecZ96O/kqnbKH/JCS+mq5rUsVUZf8c0/J8mWdFjFPN9FNG49QcM77p0r1C6ufDJHmdM4cSZscLyoLGZkzXPt0XC17dTrnxWDEZd05dKtpfnUbaMf0Y6T2nU7LCPZE/vaFSsrn8yLv3KHys8nZZDZCe1/wD6XpZU+uXkeXmS6o+Z5OyzdshHa8/9q9rKl1y8v5PDzJ/L5/wYjLXCYMSlE8rXMkDAy7HaM1pJAs4W9Yr0srr65PyIeZT+VFdRZOc10aqp4GQEdxbZaK8Gobpy5meeKc98Y8i3iYWixc5292bfwAWuK069TO3r1EipPIipBEoBFCCJQESpAkBEoBFARKARUkESgEUAigIlARe4AXJsN6N6bwtpXTY5TtNucDj1Mu8/hus7xdSeier7tv2L1hrWtWtF37Pucz8Wld9FAR9aUhg+6LuT9S6fBDTvls8t4/Tqjxz/AMdvnuPF8Mz/AKSYgezEMwfe6RXr2ayf/JP6R2ee88+0Vx4IfV7fLcTpqKOPoMAO063HiTpKurorq4Fp9+ZVZfZZxM9laViUASgkRUEmXyt6bPdPmuDm/HHwO1lfBLxNPgA/y0Y6m2PEE3Xdy9//AJoeBxsd/cT8SwWwyAgBACAEAIAQHNUUMUnTja7eQL9+tU2YeqzjimW13218MmiEdCWfRTTR7myEt+664Wd5fWuByj4P11NCx03xpPxXpodDK2tZqnjk/wCSOx72EeSreEvjwzT8V6eh7WJpfFBrwfqe7cfqm9KmY/8A45beD2/FeXDEx3wT8H6pHpTw8t0mvFeh6jKlo0Pp6hu8Ma8fhcT4Lw7Zx4q5ctfselXB8M489PuejcqqT1pHM9+ORviW2Xn2qtcWq8U1/o9ezWPdo/Bo6I8cpXaqiL77R5le1iaXukuZ5dFq3xfI6o6qN3Rew8HA+RVinF7mitxkt6J3Xo8iKkCKEESgIlAIqQRQCIQEHOA1kKNRoc8tdE3pSxji9o+K8u2tb5Lme1XN7k+RySY9Sj9uw8DnHubdVPF0r4l9z2sNc/hZ4nKGH1RK/wB2J/xAT2qL4VJ+EWT7PJcTS8WjzdjTz0KWQ++WM+JU/qWvhrf1aX+zz+nUuKxfTVkHVlW7UyFnFznnwAC9dDFPqivq36EdPDr5nyXqeToZ3dOpcN0bWs8dJUrC2Pjsf0SXqR7TWuGtfVt+h5/omIm7w6Q9cjnO8CbL0sDTvktfFtnl4y3qengtDqjja0WaABuAHktMYRitIrQolKUnrJ6kipIEVAEVBIihIioJEVAIlQSZvKiFzpGZoJs3TbeT+S4Obv8AqR8DtZZwS8TdYxhxpK6ppHCwbI6aLYDDK4vbbgS5p3tXRya9SqdfXH7MwZtS42/qdT+6PFdg5QIAQAgBACAEAIAQAgBACARQHk+mYdbGni0FeJVVy3xXI9q2a3N8zwdhNOdcLPugeSpeCw73wXItWLvXxvmQ/Q0GxhHB7x5FeP2/D/L5v1Pft1/zeS9Btwpg1OlHCWT81H7fSt2v+T9SfbruvTkvQZw399Ufzn/mo/b6/ml/kx7dZ8seSAYcf9xU/wA0/EKP2+Hzz/yJ9un8seQfo93+5qP5n/pP2+Pzz5/wPbpfJHl/Iv0b+/qP5zvgn7fX80v8h7dP5Y8hjDBtlnPGZ/5r1+31dbl/kyPbrOyP+KI/oeLbnnjJIfin7dR1p836j2+7tXJegfoan/0geJcfMr0sBhvkXmzy8biPmZ6sw2FuqKMfZCsjhaI7oLkjw8Tc98nzPdsTRqaBwACtUIrcityk97JFSQRUASgkSgkRUEiQCUEiKgESoJEhIlBIioAlBJuOSbJZlWyoq52AxueyKG4GkRZ+e4X2Fz7fYK+Xx9ytubW5bD6LBVOupJ73tNnyj5HmuibNBZtVBcxE6BI09KF+52w7DY9apw98qLFOPUXX0xug4SPj0E1y5rmlkjDmyRuFnscNYcF9jhsVDEQ6UPquw+UxGHnRLoy/9PZaCgEAIAQAgBACAEAIAQAgBACAEAIAQAgBACAEAIAQAgEUAioJEVBIkJEoAioJEVBIlAEhJEqCRKCRKAJQSJCTtybwCXEqj5NDdsbT/mJhqjbta07ZDqA2a9i5GPxygnXB7evu/k6eCwbk1ZPd1d5+hcMw+OnhZTwtDY42hjGjYB5neuCdo6kBkMtsg4a8idjuYqmizZmgHOFuhK3126t4toOxW03zpn04PRlVtMLY9Ga1R8ixWlno5eYrY+acehILmCXex/X9U2IX02EzSu73Z+7LyZ8/istsq2w2rzEuoc0EAIAQAgBACAEAIAQAgBACAEAIAQAgBACAEAIAQCQkRUARUEiKgkRQCKgkiVBIlAEVBIihIlBIlAPKeZrBnOcGjrK8TsjBdKT0R7hCU3pFas02SeQVViFpJM+lpT6xFqiUfu2u6DT7ThwC4WKzNy92rYu3r/g7OGy9R96za+zqPtWCYPBRwNp6eMRxt1AbTtLjrc47SdK5J0zvQAgBAeFdRRzRuimjbIxws5r2hzTxBQHzXHeSgtJfh0wjGvmJs50XBj9Lo+GkLdhswuo2J6rsf5sMeIwNV21rR9qMFikE9I7NraeSDYHkZ0DvdlbdvYbFd3D5tRZsn7r793M41+V3Q2x95efIUcgcM5pBB1EG47wunGSktYvVHOlFxejWjJKSAQAgBACAEAIAQAgBACAEAIAQAgBACAEAkAISIqCSKgCUEiUARQkSgkRUEiKgCUEnPUVTGaHOAJ1DW48ANJVNt9dXHJItrpss4FqaDA8i8RrLFkPyaI/tKkFriPqRdI7s6wK5V+bdVS+r9Dp05Z12P6I+m5K8m9HRkSvBqagaedlAOaf3bOjH571x7bp2vpTep1K6oVrSC0NmqywEAIAQAgBACAjIwOBa4Ag6CCLgjeCgMZjPJhh85L42OpZDpz6c5gPFmlh7lbVdZU9YNorsqhYtJpMx+JcmWIxaYJoKpunQ+8Eu4C2cw8TZdOrObo7JpS8vzkc63KapcDa8/wA5mXr6eopyRU0lRDbW4xl8f8yPObs610qs4w8uLVeP8HPsyq+PDo/zvOenrY5OhI13Ai/cuhXfVZwST+pinTZXxRaOhWlQIAQAgBACAEAIAQAgBACAEAIAQCKASgkRQkSgCUEiUEiKgkiSoZJzGvjzsxrs92xrAXu7mAlZbMbRXvkvpt+xorwl090X9dn3LrDclsTqbc1RPY0+vUEQtGvTmn0zq2NWC3N4Lgjr47DbXlc3xvTwNZhXJDI6xraw746ZuaOHOv8ASI+yFzrcxvs2a6Lu/NTfXgKYdWvib3AMkKGi009MxjtryM6U8Xuu7xWFtt6s2JJbEXigkEAIAQAgBACAEAIAQAgBACApMXyRoKrTPSQvPtZgD/vts7xQGYq+SOiOmCaqg3Nlz2d0od5rTXjL6+GbM88LTPiiijq+SquYPma2CXqE0Toz2ujc7vzexbIZxiI79H9PQyzyqiW7VfneVNVkRi0f/SxS74Z2+UoatcM8+aHJ/wAGWWT/ACz5oqqigrIzaSgq27xCZG98ectMM5w736r6ehnllN63aMr5MSjboeXR/wDIx7P6gFojmWFl8fPVFEsvxEfh+xKPEIXapYz9pv5q+OJplumuaKZYa6O+L5Hu2QHUQeBBVylF7mVuMlvRNSeQQAgBACAEAIAQCJRko8n1DBre0cXAKuVkFva5nuNc3uT5HM/FYBrlZ2OBPgqJYzDx3zXMujhL3ug+R6wzOk+ihqJf+OCV3k1USzTDL4tfoy+OXYh/D5osqbJ/Epfo8On/AIhjiH43X8FmlnNS4Yt8kXxym34pItqfk3xZ+sUsI258j3uHYxlj3hZZ51N8MEvHb6GiOUwXFJ/b1Lqj5IHnTUYg63swRNjt9p5cT3BZZ5niJfFp4GqGX0R6tfEvqDkqwyOxfE+cjbPI947Wghvgsc7Zz4pN+LNUK4Q4UkazD8MggbmwQxxN6o2NaPwhVns60AIAQAgBACAEAIAQAgBACAEAIAQAgBACAEAIAQEXsB0EA8RdAVtTk5RSX5ykp33150MZPeQgKyo5PMKeLGggHuszD3ssgKfEeTPCmC7aZzeE9QP/ANF7Vk11vmeHCL6kZfE8j6ONpLI5B/HqP/IvaxNy3TfNnl4ep74rkjC19MGEhrpB/FkPm5evbMQvjfNnn2Wl/AuSKGtrJG9GR4+04+ZT2/Er42R7HQ/gRXwYvOTYyv71LzDE/Ox7Dh/kRd0cjndJ7z9t48int2IfxvmPZKPkXI0+A4RFK6z+cP8AGmHk9R7Xe/jlzZPs1PyLkjbUWQWHvPpQvP8AHqP/ACLw77Xvk+bPaprW6K5I0dNyX4QAD8jDj9eWZ47nvIXhzk97PailuRaQZD4Yw3bQUwI64mHzC8klpS4VTxfRwRM9yNrfIIDsQAgBACAEAIAQAgBACAEAIAQAgP/Z;" vertex="1" parent="LMzbSZaPqSbP6ukTdfSf-5">
          <mxGeometry width="94" height="45" as="geometry" />
        </mxCell>
        <mxCell id="LMzbSZaPqSbP6ukTdfSf-7" value="&lt;b&gt;RED-SCR&lt;/b&gt;" style="text;html=1;strokeColor=none;fillColor=none;align=left;verticalAlign=middle;whiteSpace=wrap;rounded=0;fontColor=#FFFFFF;" vertex="1" parent="LMzbSZaPqSbP6ukTdfSf-5">
          <mxGeometry x="17" y="25" width="70" height="20" as="geometry" />
        </mxCell>
        <mxCell id="LMzbSZaPqSbP6ukTdfSf-8" value="&lt;div style=&quot;&quot;&gt;&lt;font style=&quot;background-color: initial;&quot; color=&quot;#000000&quot;&gt;&lt;span style=&quot;background-color: rgb(255, 255, 255);&quot;&gt;VyOS RED-SCR&lt;/span&gt;&lt;/font&gt;&lt;/div&gt;&lt;div style=&quot;&quot;&gt;&lt;font style=&quot;background-color: initial;&quot; color=&quot;#000000&quot;&gt;&lt;span style=&quot;background-color: rgb(255, 255, 255);&quot;&gt;Device Ty&lt;/span&gt;&lt;/font&gt;&lt;span style=&quot;background-color: rgb(255, 255, 255); color: rgb(0, 0, 0);&quot;&gt;pe:router&lt;/span&gt;&lt;br&gt;&lt;/div&gt;&lt;div style=&quot;&quot;&gt;&lt;font color=&quot;#000000&quot;&gt;&lt;span style=&quot;background-color: rgb(255, 255, 255);&quot;&gt;OS: Linux VyOS&lt;/span&gt;&lt;/font&gt;&lt;/div&gt;&lt;div style=&quot;&quot;&gt;&lt;font color=&quot;#000000&quot;&gt;&lt;span style=&quot;background-color: rgb(255, 255, 255);&quot;&gt;Interface Type: eth0 - INTERNET&lt;/span&gt;&lt;/font&gt;&lt;/div&gt;&lt;div style=&quot;&quot;&gt;&lt;span style=&quot;background-color: rgb(255, 255, 255); color: rgb(0, 0, 0);&quot;&gt;Interface IP: 172.16.120.1/29&lt;/span&gt;&lt;br&gt;&lt;/div&gt;&lt;div style=&quot;&quot;&gt;&lt;font color=&quot;#000000&quot;&gt;&lt;span style=&quot;background-color: rgb(255, 255, 255);&quot;&gt;Interface: eth1 - REDNET&lt;/span&gt;&lt;/font&gt;&lt;/div&gt;&lt;div style=&quot;&quot;&gt;&lt;font color=&quot;#000000&quot;&gt;&lt;span style=&quot;background-color: rgb(255, 255, 255);&quot;&gt;Interface IP: 172.16.120.10/29&lt;/span&gt;&lt;/font&gt;&lt;/div&gt;&lt;div style=&quot;&quot;&gt;&lt;font color=&quot;#000000&quot;&gt;&lt;span style=&quot;background-color: rgb(255, 255, 255);&quot;&gt;Interface: eth2 - DMZ&lt;/span&gt;&lt;/font&gt;&lt;/div&gt;&lt;div style=&quot;&quot;&gt;&lt;font color=&quot;#000000&quot;&gt;&lt;span style=&quot;background-color: rgb(255, 255, 255);&quot;&gt;Interface IP: 172.16.101.30/27&lt;/span&gt;&lt;/font&gt;&lt;/div&gt;&lt;div style=&quot;&quot;&gt;&lt;font color=&quot;#000000&quot;&gt;&lt;span style=&quot;background-color: rgb(255, 255, 255);&quot;&gt;Routing Protocol:BGP&lt;/span&gt;&lt;/font&gt;&lt;/div&gt;&lt;div style=&quot;&quot;&gt;&lt;font color=&quot;#000000&quot;&gt;&lt;span style=&quot;background-color: rgb(255, 255, 255);&quot;&gt;IP Network:&lt;/span&gt;&lt;/font&gt;&lt;/div&gt;&lt;div style=&quot;&quot;&gt;&lt;font color=&quot;#000000&quot;&gt;&lt;span style=&quot;background-color: rgb(255, 255, 255);&quot;&gt;Network Name:&lt;/span&gt;&lt;/font&gt;&lt;/div&gt;&lt;div style=&quot;&quot;&gt;&lt;font color=&quot;#000000&quot;&gt;&lt;span style=&quot;background-color: rgb(255, 255, 255);&quot;&gt;Ports:22, 179&lt;/span&gt;&lt;/font&gt;&lt;/div&gt;" style="whiteSpace=wrap;html=1;fillColor=none;align=left;verticalAlign=top;" vertex="1" parent="LMzbSZaPqSbP6ukTdfSf-15">
          <mxGeometry y="45" width="190" height="156" as="geometry" />
        </mxCell>
        <mxCell id="LMzbSZaPqSbP6ukTdfSf-16" value="" style="group" vertex="1" connectable="0" parent="1">
          <mxGeometry x="-30" y="-1330" width="190" height="201" as="geometry" />
        </mxCell>
        <mxCell id="LMzbSZaPqSbP6ukTdfSf-17" value="" style="group" vertex="1" connectable="0" parent="LMzbSZaPqSbP6ukTdfSf-16">
          <mxGeometry width="94" height="45" as="geometry" />
        </mxCell>
        <mxCell id="LMzbSZaPqSbP6ukTdfSf-18" value="" style="shape=image;verticalLabelPosition=bottom;labelBackgroundColor=#ffffff;verticalAlign=top;aspect=fixed;imageAspect=0;image=data:image/jpeg,/9j/4AAQSkZJRgABAQAAAQABAAD/2wCEAAkGBxISEBUQEhIVFRUWFRcVFRgWFxcYFRcXGBcXFhcYGBoYHiggGBolHhUVIjEjJSkrLi4uGB8zODUuNygtLisBCgoKDg0OGhAQGyslHyUtLS0tLysuLS4vLS8tLS0tLS0tLy0tLS0tLS0tLS0tLS0uLS0tLS0tLS0tLS0tLS0tLf/AABEIAJsBRQMBEQACEQEDEQH/xAAcAAACAwEBAQEAAAAAAAAAAAAAAQIFBgQDBwj/xABJEAABAwIBBwgFCAgFBQEAAAABAAIDBBEFBhIhMUFhcQcTMlGBkaGxIkJScsEUIzNigpKi0RU0Q2ODk7LCFiRTVHNE0tPh8cP/xAAaAQEAAwEBAQAAAAAAAAAAAAAAAQMEBQIG/8QAOBEAAgIAAwQHBwMEAwEBAAAAAAECAwQFESExMpESQVFhcaHRFCJCUoGx8BMV4SM0ksEzYvFyJP/aAAwDAQACEQMRAD8A+4oAQAgBACAEAIAQAgISytaM5xDR1kgDvKAztfl/hcOh9dASNFo3c66/VmxZxvusm8FXPyo0n7GCsn3sp3Nb96UtAV0cPbLdF8iqV9cd8kcEvKPVOPzWGEDrmqGN/CwOKvjl976tPqUyx1K69Tjly0xZ3RZRRceelPm0K6OV2Pe0VSzGHUmccmOYs6969jL7I6aPR2vLirVlS65eRU8yfVHzOaWeveLPxSq+xzUf9LLqxZXX1tnh5jZ1JHK6jlPSr693Gql8gVYsto7+ZW8fd3ciBwsHQ6aqd71TOf716WX0dnmzy8dd2+SPA5PU51iQ8ZpT5uXr2Gj5fuQ8Zd832IOyapTrivxc8+ZU+xUfKR7Xd8xD/DFH/oN8fzU+xUfKiPa7vmH/AIdptkZHB8g8nKPYaPlJ9su+YlHgsTdLTM33Z5h5PUewYf5fNk+23/N5I9fkTh0aqsbwqpv+5eXl1HZ5krH3dvkTZ8qb0MRrhxqHPHc+4Xl5ZS92p7WYWrfodTMZxNp9HEpeD4oH/wBgVbyqHVJntZlPrijphyvxdn/UU8v/ACU5b4xvHkqpZS+qXkWLM11x8zuh5R8Rb06Slk9yaSMn7zHKqWV3Lc0y1ZjU96Z3wcq1vp8OqG9fNOilH9TT4KiWBvj8JbHGUv4iyg5U8MP0kksJ/fQTN7yGlo7Ss8qpx4k19C+NkJbmmaHDMpaKo0QVcEh6mSsLhxaDcLwey1QAgBACAEAIAQAgBACAEAIAQAgBARe8AXJAA1k6AEBlsU5RcOhcWCfn5NPoUzXTu0bLxgtB4kL1GMpbIrU8yko73oUNVyg1sl/k1A2Nux9VKAduuKIOI2estcMvulvWniZZ46qO7b4FTVV+Jz/TYgYwfUpY2xD77s5/iFrhlcfilyM08xl8KKx+TtO4h0ofO4etPI+U/jJHgtcMFRH4eZmli7pdfI7qekjjFo42MHU1ob5LTGEY8K0M8pSlvZ6lejyIoCJQCKAiVJAigIlAIoCJQCUgRQEShBEoDlq6l7OjC+T3TGP6nAqqc5x3R1+qLYQi98tOZTT5SPabGiqL+7cd4WWzHShvrZphg4y3TQDF653QwqqcOvMl+EZWZ5t/08/4L/2z/t5fye8bsWf0MJmHvhw/qAXn92l8q5nr9sj8x7DDccd0cMt7z2jzeF5ea2dUUellsOtsP8PZQ2J+RRCwJ+kiJ4ACY6V5/dLuxfn1PX7dV2v8+hU4ZUU9XeOaBjZ2XD2ObZ1wbG19I06xrC3Ye2nFLSUV0vzcY767sO9YyfR/N5c0kUsFvk1VUwW1Bkriz7j7t8F6nltEt2q8DxDMLo79pe0WXGKw6HSU9S396wxP+9H6N/srJPKZfBLma4ZnH4o8jQYfysRjRWUk8H147TxcSWWePurFZg7q98eW0114uqe6XPYa/BMqKKsH+WqYpDa+aHWkHFjrOb2hZTQXCAEAIAQAgBACAEAICpx/KWkom51TOyO/Rbre7c1jbud2BAYquy+rJ9FFTCBn+tVXzzvbAw3GzS5w16ltqwFs9r2LvMduNrhsW19xnq6hdP6dfVS1NrGz3COAHdEyze+66FeAqhtlt8TDPG2z2R2eB3UsEbGhsbWtbsDAAPBboxilpExycm/ePQr0QIoCJUgRQEShAigEUBEoBFSQRKARQESgEUAipBEoBFCCJQHJX18ULc+V4YNl9Z4DWexV23QqWs3oWV1TsekVqVNDWV2IOMeG0zs29jPJoY3fc+iOvady5N+aSeytad7OnTlyW2x69x9oyKweakoo6eebnpQXOe8XIu5xdYF2kgXts1aguVKTk9XvOkkorRF6oJBAcOI4vBBbnZA0nZpLuNhpsrqsPbbwLUqsvrr4mYLLvJakxL/NUdRFFWt0tdnBoltqa8HSDsDrbjo1enRfU+l0WtDyrqbFpqmYLCsWcZHUtSwxVLDmua7RnW2jft3jSNC7WDxqt92WyX3ORisG6vejtj9i3K6BiIoDkqsPikN3MGcNThoeODhpCqsw9dnHFMtrvsr4WWuGZSYlS/Q1XPMH7OqHODgJBZ47SVzbcqT21vTxN1WZNbJrkbPBeVancQytidSPOjPJ5ynJ2WkaPR+0BbrXLuw1tXGvQ6VWIrt4Wb+nqGSND43Ne1wu1zSC0jrBGgqguPRACAEAIDwrq2OGN0sr2xsaLuc4gNA3koD5viuXNVVksw8cxB/uZWXlfvhidoaPrP69S24fAzt2vYjHfjIV7FtZSQYdDCXTvcXyHTJPM7OkPF7uiNwsF16sPVQtVzZy7LrLno+SKSsyy5yT5PQQuqpjoGaDmDfo0uGrqG9ZrsxjHZXtfkaacBKW2ez7lzhPJbVVhE2LVLg3WKeEjRts53RbtGgE/WXKtvstfvM6VdMK17qOyp5F4m3+SV9TAdlyHgdfQzCq4zlHhbR7lCMt61OCfITHYT8zWQVDRskGa4/eb/ctMcdfH4uZnlg6ZdRXT1GNU/6xhZkA9aEk6PsF/wAFohmc1xRT8vUoll0fhbOVmXsAdmTxTQu2hzb269/gtUMyqe9NGeWX2Lc0y1pMp6OTo1DLnY45p7nWWmGLplukiiWGtjviyzZIHC7SCOsG48FemnuKGmt4ypIIlAIoQRKkCKAiUAigEgIlSBFCDkxDEIoG58rwwbL6zwGs9iqtuhUtZvQsrqnY9Iop6GsrsRcY8Opjm3s6eQWY3tPog7tJ3Lk35nJ7K1p3nUpy6K22PXuNtk3yQQMeJ8QldVza80kiEbbe0+2nXYaeiuZKcpPWT1Z0IxUVokfSqeBsbQxjWsa0Wa1oAaB1ADQF5PR6ICvxTGYKcfOPAOxo0vPZ8Sr6cNZc/cX16im3EV1cTMVi+Wc0l2wjmm9euQ9upvZ3rsUZbXDbPa/I5V2YTnshsXmZh7iSSSSTrJNyeJOtdJJJaIwN6vVkCpIPKaBjrZzWutquAbW1W6l5cIy3o9KUluZIr0eRFARKECKAi4X0FNNQLCaqoon59FMYrm7oj6VO/jH6p3tsVzsRltdm2Gx+RvozCcNktq8z6dkfyiw1Tm01S0U1UdAaTeKXfE86yfZOkb9a4l1E6ZaTR2KroWrWLNwqS0EBX47jENHTvqZ3ZrGDZpc4nQ1rRtcTYAID5RXST4hKKmtFmNOdT0t7xxbA+T/Ult16Bc2XawmBUffs39hycTjHL3Ybu07l0znGexHJNlTMH1FRUPjBvzQcxreAs2w6r2Jtt2rBfgna9XN/nI2U4tVbOij6Bk7VUFJHzVPT8w3bmtuXb3OuXPO83WGWW2rc0zbHMK3v1RoIcWgdqlbwJsfFZ5YW6O+LL44mqW6SOxpvpGngs7Wm8vT1GgBAeNVSRyjNljZIDoIe1rh3OCAzOJcm2FT9KijaeuLOi8IyAe0IDN1XIrSgl1NVVMBOr0muaOrUGu7ypjJx3MhxT3orJ+TjGYf1fEI5gNkoIcdvrB/mtEcZfHdLnt+5RLCUy3x/0V1RDjtPfnsOErRthOcfwFx8Fqhmdi4kmZ5ZdB7m0cBy4Yx2ZUU88DupzfgbHwWmGZ1viTRnll01uaZ0S5a0QYXiQut6oa7OJ16iB36lc8woUddSlYG7XTQlQ4Zi+JsMkEfySnzSWvfcSSCxIzNpvo0gAbyubfmNk9kNi8zoU4CuG2W1+RcUs4kjZINT2tcODgD8V3oy6UU+040l0W0TKk8iUg5MQxGKBufK8MGy+s8BrPYqrboVLWb0LK6p2PSKKWhra/EXGPDac5gNnTyCzG9p9EHdpO5cm/M5PZWtO86dOXxW2zb3G3yc5IIGOE+ISOq5teaSRCDrtbpPtvsNy5kpOT1k9WdGMVFaJH0mngbG0MY1rGtFmtaA1oHUANAC8knogK/FMZgpx848X2NGl57NnEq+nDWXcK+vUU24iurif06zF4vllNJdsQ5pvWNLz2+r2d67FGW1w2z2vyOVdmE57IbF5mZe4kkkkk6ydJPErpJaLRGBvXayBUgRQgiUAigEUBEoBFCCJUgRQESgPCrpmSNLHtDmnYfMdR3rxZXGyPRktUe4TlB9KL0ZtuT/AC5khkjoK55exxDKeocfSv6sUx2k6g/bqK+cxmClQ9Vtj+bzu4XFq5aPYz6wsRsPk2VFf8txFwvenon83GNjqm3zjz15l8wdRzl08uo6T/UfVuOdj7+iv0117wXaOSCAEAIAQEo5HNN2ktO4keSiUVLY1qTGTjueh2w45UN1Sk+9Z3npWeWCol8PLYXxxd0fi5ndDlXIOkxjuF2n4rNLLK3wtrzNEcxmt6TO+HKyI9Jj28LOH5rNLLLFwtMvjmNb3po74Mcp3apWj3rt/qss8sHfHfF/Tb9jRHF0y+LnsO6OQOF2kEbiD5LM4uOxovTT3E1BIICE0TXjNe0OHU4AjuKAp2ZIYeJRM2ipw9puCImCx67AWvvtdAXd0B8gZT80Xw2sIpZYmj6jJHNZ2ZgaRuIX02Dl0qIv6cth89i49G6S/NoytJnEVIOKqwuCR2dJDG92jS5oJ0arnaNyqnRXPbKKZZC6yHC2aagyqnia2NrYsxos1oYGgAbAGWAHYsk8tpe7VfneaY5hat+jLany5b+0hI9xwPgbeazTyp/DLmaI5kvijyO9uWNLmk3eD7OYbncCNHis7y2/XTZzL/3CnTr5GdxbLCaS7Yvmm9Y0vPb6vZ3roUZbXDbPa/Iw3Y+c9kNi8zNOcSSSbk6STrPFdFLTYYH2kSpAkIIE7NqakiKkgRQCKAiUAigIlCBFSCJQCKARQHhUwNkYWOF2uFiF5nCM4uMtzPUJuElKO9H1XknyjdUUrqed+dPSuEbnE6XxkXikJOskAg72lfKX1OqxwfUfS02q2CmjE5KyZ9K2U65Hyyu958r3HzXcwSSoicbGPW6RbrWZgQAgBACASARQESpBEoBFCDrw7D5ZDeMEDa++a0fa/JUXX11r3+W8uppsm/c57jXYe6OBvztWHu6nPFhwF7rjXKdz9yvReB1qnGpe/Zq/EnLlJSt/aX91rj42svMcBe/h80epY2ldfkzjlywhHRZI77oHmro5Xa97SKZZjWtyZxS5Zu9WEfacT4AK+OVLrl5FLzJ9UfM4psrqg6sxvBtz4kq6OW0rfq/qVPMLXu0RRVEpe90jtLnnOcdVzYC+jcAttdca49GK2GSyyVkulLeea9ngiVIEUIIlAVuK43BTkCV+aSLgZrjcatgsqLsTXU9Jsvqw9lu2KKk5ZwOdmxRzSu2BrB+d/BZZZpStybNEcute9pHRDX4hKbQYVUuB1Oc17W9+bbxVMs2+WPmXRyztl5HbFk/j8p9Gjiiadr3x6OzPJ/CqJZpa9ySLY5dUt7Z2w8m2NSH5ysp4gfYzi7sswf1KiWOvfxF0cFSvhMx+g4HSZv6TfUgXDgDzYNtxeXW7AteGq/V222a92pmvt/S2V16d+he01KyJuZGwNaNgFv8A6uzCuMFpFaI5U5ym9ZPVnoV7PAigIlAIoCJQCKEESpAkBEoBFSCJQFFiuOTUk5MDs0yMZn78wvzf6ivns3WlqfcdvLHrW13mg5Oa28Bp3aHNJkZvje4m/Y7OB4ha8A2q1B9mq8H/ACZcak5uS8H4o163mMEAIAQAgEUBEoCJUgRQgRQCc46rpoNSKAiVJBX4tjMFMLzSBvU3W48GjSqbb66l77LaqJ2P3UVOHuxPEzagg5mHbPNoHYbHuaHFcm/Mpy2V7F5nUpy+Mds9v2LGoySyhgHo/J6ofVcAfxc2qo5jfHe0/EslgKX1aFZUYxX05tVYZOwDW5ocW9+aW/iWmGa/NHkzPLLflkQpst6R2hxfGfrsP9t1qhmNEt+q/O4zywFy3aMvaWqZK0PjcHNOojUtsJxmtYvYZJwcHpI9CvR4IlAaTIigp5ZJOdhike1rSwvY1xaLkOAJGgaWrkZrHZGXijqZbLbKPgbyGFrBZjWtHU0ADwXGOseiAEAIDDYpyT4VMS7mHROO2KRw8HXb4IDP1PIyWaaTEpo/qyNzx3tc23cVZC2cOFtHiVUJcSTKqpyDx2G5ZJTVIGoXzXHd6QYAftdq1QzG+PXr4maWBpl1aeBU1RxOn/WMMmttdGC5o6z6IcPFaYZtL4o8jPLLF8MuZxR5W09y14kjcNYe38rnvC1QzSl79UZ5Zdat2jLCnxenf0ZmHdex7jpWqGKpnukjNLD2x3xZ13V+8pYipIEUBFAIoCJUgRQGDyhqM+YyerbNYesNJBPC5K+ZzGfTs6fVuX0/k7+Bh0a+j1739f4NJhbHiGCaI5ssYu2+pwJOcx31T4aCu3Th3ZhK5Q2SS2ej7mci29V4myMuFvb6rvRucExmOpYS30Xt0SRu6TD1HrHUdqiu1T1W5reuwmytw2709z7SxVpWCAEAigEUAipBEoCJQgRQCKArsWxqCmbeaQNOxut54NGn4Km2+upe+y2qmdj91FTh7sTxQ2oYOYhOgzy6Bbcbf0hx3hcm7Mpy2Q2LzOnTgIR2z2/Y3GS/JLSU7ueqnGsn1kyfRg9YZpzjvcTq1Bc5tt6s3pJLRH0JrQAAAABoAGgAbgoJJICtxPHIYND3Xd7DdLu3q7Vpowlt3CtnazPdia6t729hgcoa9lWfSp4Q0G4vGxz9Gq7yL91l2KMvqr2y2vy5HLux1k9kdiK5bzEIoQRKAusj61sVVd7g1rmOaSdAGjO0/dWLH1OynSK1eq9P9mzBWKFusns0ZdYtlq0XbTtzj7b9Dexus9tljoytvba9O5Gq7MUtla+rKSHK6rbre125zBb8NitksuofVp4P/wBMscdeuvXxX/hZU+Xjh9JA072OI8CD5rNPKY/DLmi+OZv4o8i0pstaV3Sz2cW3He0lZp5Zct2j/O80xzGl79UWtNjdNJ0J4yerOAPcbFZZ4a6HFFmiGIqlukjvBVBcNACA5K7DIJhaaGOQfXY13mEBmMS5LsJm0mkEZ64nPZ+EHN8EBm6vkThH6rXVEJ2Z2a8cPQzF7jZKPC2jzKEZb0mVNVyaYzEfmaqCdvU+7XHvb/ctMMffH4tfEzSwVMurkU1VQYxACZsNe8DbF6Q/AXrVDNpriin5epnllkHwya8/Qhh9e6W+dBJHbQc8Aado06fBdTD4h3LXoteJzr6P0np0kztK0mciVIKbEKwykwRHdK8eqNrWn2j4LHZN3N1Vv/6fZ3Lv+xphBVL9Sf0Xb3vu+5n8p2Bro2gWAZYDddcvNoqMoRW5I6WVycozb36mnwL9Wi934ld/L/7avwOHjv7ifie01Mc8TRPMcrRYPbtHsvB0ObuK9YjCxtfST0kuv/T7URRiXWui1rHs9OxlzhmVIuIqoCGTUH/sZPdceidxWB2SrfRuWj7ep/nYzaq42LpVPXu61+dppAVeUggEgEUB4VVSyNue9wa0aydQ4nYN5USkorWW4mMXJ6IjT1UcgvG9rx1tcD5JGcZcL1EoyjvWh6FejyV2L41BTNvNIGnY0aXng0ae3UqbcRXUveZbVTOx+6iow52KYobUMHMQHQZ5dHGxt4NBO8Lk35lOWyGxeZ06cBCO2e1+RucmOSWjp3CaqJrJ9ZdL9Hfcwk532yeAXObberN6SS0R9Ba0AAAWA0ADUOCgkaArcTxuGDQ513ey3S7t6u1aaMJbbwrZ2sz3Ymure9vYZHFMqJpbtZ823qb0jxd+Vl2KMvqr2y2vv3cjl3Y6yeyOxfnWUJK3GIiVIEUIIlARKARUgigEUBEoBFARKkg9YKqSP6OR7Pdc5vkV4lXGXEk/FHqM5R4W14FpTZWVjP22cOp7Wu8bX8VmngMPL4dPA0Rxt8fi18S1puUCUfSQsdvaS0+N1lnlMHwya8dvoaY5nP4ootabLymd02yM7A4fhN/BZp5XcuFpmiOZVPemi2pco6STo1Edzscc09zrLLPB3w3xf3+xojiqZbpIs2OBFwQR1jSFnaa3mhPXcU2NZUU9NdrnZ7x6jNLu06m9q1UYK27alou1mW7GVVbG9X2IwWNZY1M92tPNM9lh9I+8/X3WC7VGX1VbXtff6HJux1tmxbF3epnSVuMZz1VUyNuc9waN/wAOteLLIVrWT0R7hXKb0itSplqZZ9DbxRdeqR43ewPFZ/6t+73Y+b9PuX/06d/vS8l6ntBC1jQxgsBqC1V1xrioxWiM05ynLpSe0zeVvTZ7p81w8344+B2cq4JeJpsB/Vovd+JXewH9tDwOJjv7ifiWC1mUjJGHAtcAQdYIuColFSWklqiYycXqnozxpefp/wBWls3/AEpLui+z6zOzQufPAuG2mWnc9q9Ubo4xS2XLXvWx+jLilyujHo1MboD7R9KI8HjV2gLPK2Vey6Lj371z9S9VKzbVLXu3PkX8E7JGh7HNe06i0gjvCujJSWqepU4uL0ZIqSCD2gggi4Ogg6iOopvBU0nJxh1Q+2fNTS3u0xuBYSToFnC7T1AELi4zBOH9Svd9v4OvhcWp+5Pf9zpn5KcQjv8AJsVJadGbKHiw3G7hfgAsccTbHdJmqWHqlvii+yX5J6OnPPVN6yfWXS6Y77mG+d9q6pbberLUkloj6A0AAACwGgAagFBI0BWYpjsEBzHvBktcRtsXkabG2waDpPUtFGGnc9IlF2IhUveMnimU00t2tPNt6mn0jxd+Vl2aMvrr2y2vv9DlXY6yexbEURW4xCKAipAigIlCCJQCKAiVIEUBEoBFARKARUkCKAiUAigIlAIoQOKVzOg5zb+ySPJQ4qW9akpuO7Z4HkvRBy1mIRRdN4B6tbjwaNJVVl9dfE/XkW10znwor34jNJ9FHzbfbk19jB8VV07rOCPRXbLfy9T30aq+N6vsXr6HnDQgOz3kyP8Aafpt7o1NHBWV4WMX0pe9Ltf+uw8TxEpLox2LsX++06VpKBFQSZjK3ps90+a4Gb8cfA7WV8EvE02Afq0Xu/Eru5f/AG0PA4uO/uJ+JYLYZQQAgEUBx/o1gdnxF0L/AGoiWX4gaD2hY7MBTJ6xXRfbHZ/BrhjbYrR+8ux7f5O2HFa2P1o5x9cc2/7zbtPcqHhsRDhkpLv2P0LliKJcScfDavU7YsrYx9PDNCdpzecZ96O/kqnbKH/JCS+mq5rUsVUZf8c0/J8mWdFjFPN9FNG49QcM77p0r1C6ufDJHmdM4cSZscLyoLGZkzXPt0XC17dTrnxWDEZd05dKtpfnUbaMf0Y6T2nU7LCPZE/vaFSsrn8yLv3KHys8nZZDZCe1/wD6XpZU+uXkeXmS6o+Z5OyzdshHa8/9q9rKl1y8v5PDzJ/L5/wYjLXCYMSlE8rXMkDAy7HaM1pJAs4W9Yr0srr65PyIeZT+VFdRZOc10aqp4GQEdxbZaK8Gobpy5meeKc98Y8i3iYWixc5292bfwAWuK069TO3r1EipPIipBEoBFCCJQESpAkBEoBFARKARUkESgEUAigIlARe4AXJsN6N6bwtpXTY5TtNucDj1Mu8/hus7xdSeier7tv2L1hrWtWtF37Pucz8Wld9FAR9aUhg+6LuT9S6fBDTvls8t4/Tqjxz/AMdvnuPF8Mz/AKSYgezEMwfe6RXr2ayf/JP6R2ee88+0Vx4IfV7fLcTpqKOPoMAO063HiTpKurorq4Fp9+ZVZfZZxM9laViUASgkRUEmXyt6bPdPmuDm/HHwO1lfBLxNPgA/y0Y6m2PEE3Xdy9//AJoeBxsd/cT8SwWwyAgBACAEAIAQHNUUMUnTja7eQL9+tU2YeqzjimW13218MmiEdCWfRTTR7myEt+664Wd5fWuByj4P11NCx03xpPxXpodDK2tZqnjk/wCSOx72EeSreEvjwzT8V6eh7WJpfFBrwfqe7cfqm9KmY/8A45beD2/FeXDEx3wT8H6pHpTw8t0mvFeh6jKlo0Pp6hu8Ma8fhcT4Lw7Zx4q5ctfselXB8M489PuejcqqT1pHM9+ORviW2Xn2qtcWq8U1/o9ezWPdo/Bo6I8cpXaqiL77R5le1iaXukuZ5dFq3xfI6o6qN3Rew8HA+RVinF7mitxkt6J3Xo8iKkCKEESgIlAIqQRQCIQEHOA1kKNRoc8tdE3pSxji9o+K8u2tb5Lme1XN7k+RySY9Sj9uw8DnHubdVPF0r4l9z2sNc/hZ4nKGH1RK/wB2J/xAT2qL4VJ+EWT7PJcTS8WjzdjTz0KWQ++WM+JU/qWvhrf1aX+zz+nUuKxfTVkHVlW7UyFnFznnwAC9dDFPqivq36EdPDr5nyXqeToZ3dOpcN0bWs8dJUrC2Pjsf0SXqR7TWuGtfVt+h5/omIm7w6Q9cjnO8CbL0sDTvktfFtnl4y3qengtDqjja0WaABuAHktMYRitIrQolKUnrJ6kipIEVAEVBIihIioJEVAIlQSZvKiFzpGZoJs3TbeT+S4Obv8AqR8DtZZwS8TdYxhxpK6ppHCwbI6aLYDDK4vbbgS5p3tXRya9SqdfXH7MwZtS42/qdT+6PFdg5QIAQAgBACAEAIAQAgBACARQHk+mYdbGni0FeJVVy3xXI9q2a3N8zwdhNOdcLPugeSpeCw73wXItWLvXxvmQ/Q0GxhHB7x5FeP2/D/L5v1Pft1/zeS9Btwpg1OlHCWT81H7fSt2v+T9SfbruvTkvQZw399Ufzn/mo/b6/ml/kx7dZ8seSAYcf9xU/wA0/EKP2+Hzz/yJ9un8seQfo93+5qP5n/pP2+Pzz5/wPbpfJHl/Iv0b+/qP5zvgn7fX80v8h7dP5Y8hjDBtlnPGZ/5r1+31dbl/kyPbrOyP+KI/oeLbnnjJIfin7dR1p836j2+7tXJegfoan/0geJcfMr0sBhvkXmzy8biPmZ6sw2FuqKMfZCsjhaI7oLkjw8Tc98nzPdsTRqaBwACtUIrcityk97JFSQRUASgkSgkRUEiQCUEiKgESoJEhIlBIioAlBJuOSbJZlWyoq52AxueyKG4GkRZ+e4X2Fz7fYK+Xx9ytubW5bD6LBVOupJ73tNnyj5HmuibNBZtVBcxE6BI09KF+52w7DY9apw98qLFOPUXX0xug4SPj0E1y5rmlkjDmyRuFnscNYcF9jhsVDEQ6UPquw+UxGHnRLoy/9PZaCgEAIAQAgBACAEAIAQAgBACAEAIAQAgBACAEAIAQAgEUAioJEVBIkJEoAioJEVBIlAEhJEqCRKCRKAJQSJCTtybwCXEqj5NDdsbT/mJhqjbta07ZDqA2a9i5GPxygnXB7evu/k6eCwbk1ZPd1d5+hcMw+OnhZTwtDY42hjGjYB5neuCdo6kBkMtsg4a8idjuYqmizZmgHOFuhK3126t4toOxW03zpn04PRlVtMLY9Ga1R8ixWlno5eYrY+acehILmCXex/X9U2IX02EzSu73Z+7LyZ8/istsq2w2rzEuoc0EAIAQAgBACAEAIAQAgBACAEAIAQAgBACAEAIAQCQkRUARUEiKgkRQCKgkiVBIlAEVBIihIlBIlAPKeZrBnOcGjrK8TsjBdKT0R7hCU3pFas02SeQVViFpJM+lpT6xFqiUfu2u6DT7ThwC4WKzNy92rYu3r/g7OGy9R96za+zqPtWCYPBRwNp6eMRxt1AbTtLjrc47SdK5J0zvQAgBAeFdRRzRuimjbIxws5r2hzTxBQHzXHeSgtJfh0wjGvmJs50XBj9Lo+GkLdhswuo2J6rsf5sMeIwNV21rR9qMFikE9I7NraeSDYHkZ0DvdlbdvYbFd3D5tRZsn7r793M41+V3Q2x95efIUcgcM5pBB1EG47wunGSktYvVHOlFxejWjJKSAQAgBACAEAIAQAgBACAEAIAQAgBACAEAkAISIqCSKgCUEiUARQkSgkRUEiKgCUEnPUVTGaHOAJ1DW48ANJVNt9dXHJItrpss4FqaDA8i8RrLFkPyaI/tKkFriPqRdI7s6wK5V+bdVS+r9Dp05Z12P6I+m5K8m9HRkSvBqagaedlAOaf3bOjH571x7bp2vpTep1K6oVrSC0NmqywEAIAQAgBACAjIwOBa4Ag6CCLgjeCgMZjPJhh85L42OpZDpz6c5gPFmlh7lbVdZU9YNorsqhYtJpMx+JcmWIxaYJoKpunQ+8Eu4C2cw8TZdOrObo7JpS8vzkc63KapcDa8/wA5mXr6eopyRU0lRDbW4xl8f8yPObs610qs4w8uLVeP8HPsyq+PDo/zvOenrY5OhI13Ai/cuhXfVZwST+pinTZXxRaOhWlQIAQAgBACAEAIAQAgBACAEAIAQCKASgkRQkSgCUEiUEiKgkiSoZJzGvjzsxrs92xrAXu7mAlZbMbRXvkvpt+xorwl090X9dn3LrDclsTqbc1RPY0+vUEQtGvTmn0zq2NWC3N4Lgjr47DbXlc3xvTwNZhXJDI6xraw746ZuaOHOv8ASI+yFzrcxvs2a6Lu/NTfXgKYdWvib3AMkKGi009MxjtryM6U8Xuu7xWFtt6s2JJbEXigkEAIAQAgBACAEAIAQAgBACApMXyRoKrTPSQvPtZgD/vts7xQGYq+SOiOmCaqg3Nlz2d0od5rTXjL6+GbM88LTPiiijq+SquYPma2CXqE0Toz2ujc7vzexbIZxiI79H9PQyzyqiW7VfneVNVkRi0f/SxS74Z2+UoatcM8+aHJ/wAGWWT/ACz5oqqigrIzaSgq27xCZG98ectMM5w736r6ehnllN63aMr5MSjboeXR/wDIx7P6gFojmWFl8fPVFEsvxEfh+xKPEIXapYz9pv5q+OJplumuaKZYa6O+L5Hu2QHUQeBBVylF7mVuMlvRNSeQQAgBACAEAIAQCJRko8n1DBre0cXAKuVkFva5nuNc3uT5HM/FYBrlZ2OBPgqJYzDx3zXMujhL3ug+R6wzOk+ihqJf+OCV3k1USzTDL4tfoy+OXYh/D5osqbJ/Epfo8On/AIhjiH43X8FmlnNS4Yt8kXxym34pItqfk3xZ+sUsI258j3uHYxlj3hZZ51N8MEvHb6GiOUwXFJ/b1Lqj5IHnTUYg63swRNjt9p5cT3BZZ5niJfFp4GqGX0R6tfEvqDkqwyOxfE+cjbPI947Wghvgsc7Zz4pN+LNUK4Q4UkazD8MggbmwQxxN6o2NaPwhVns60AIAQAgBACAEAIAQAgBACAEAIAQAgBACAEAIAQEXsB0EA8RdAVtTk5RSX5ykp33150MZPeQgKyo5PMKeLGggHuszD3ssgKfEeTPCmC7aZzeE9QP/ANF7Vk11vmeHCL6kZfE8j6ONpLI5B/HqP/IvaxNy3TfNnl4ep74rkjC19MGEhrpB/FkPm5evbMQvjfNnn2Wl/AuSKGtrJG9GR4+04+ZT2/Er42R7HQ/gRXwYvOTYyv71LzDE/Ox7Dh/kRd0cjndJ7z9t48int2IfxvmPZKPkXI0+A4RFK6z+cP8AGmHk9R7Xe/jlzZPs1PyLkjbUWQWHvPpQvP8AHqP/ACLw77Xvk+bPaprW6K5I0dNyX4QAD8jDj9eWZ47nvIXhzk97PailuRaQZD4Yw3bQUwI64mHzC8klpS4VTxfRwRM9yNrfIIDsQAgBACAEAIAQAgBACAEAIAQAgP/Z;" vertex="1" parent="LMzbSZaPqSbP6ukTdfSf-17">
          <mxGeometry width="94" height="45" as="geometry" />
        </mxCell>
        <mxCell id="LMzbSZaPqSbP6ukTdfSf-19" value="&lt;b&gt;UNKNOWN&lt;/b&gt;" style="text;html=1;strokeColor=none;fillColor=none;align=left;verticalAlign=middle;whiteSpace=wrap;rounded=0;fontColor=#FFFFFF;" vertex="1" parent="LMzbSZaPqSbP6ukTdfSf-17">
          <mxGeometry x="17" y="25" width="70" height="20" as="geometry" />
        </mxCell>
        <mxCell id="LMzbSZaPqSbP6ukTdfSf-20" value="&lt;div style=&quot;&quot;&gt;&lt;font style=&quot;background-color: initial;&quot; color=&quot;#000000&quot;&gt;&lt;span style=&quot;background-color: rgb(255, 255, 255);&quot;&gt;UNKNOWN&lt;/span&gt;&lt;/font&gt;&lt;/div&gt;&lt;div style=&quot;&quot;&gt;&lt;font style=&quot;background-color: initial;&quot; color=&quot;#000000&quot;&gt;&lt;span style=&quot;background-color: rgb(255, 255, 255);&quot;&gt;Device Ty&lt;/span&gt;&lt;/font&gt;&lt;span style=&quot;background-color: rgb(255, 255, 255); color: rgb(0, 0, 0);&quot;&gt;pe:router&lt;/span&gt;&lt;br&gt;&lt;/div&gt;&lt;div style=&quot;&quot;&gt;&lt;font color=&quot;#000000&quot;&gt;&lt;span style=&quot;background-color: rgb(255, 255, 255);&quot;&gt;OS:&amp;nbsp;&lt;/span&gt;&lt;/font&gt;&lt;/div&gt;&lt;div style=&quot;&quot;&gt;&lt;font color=&quot;#000000&quot;&gt;&lt;span style=&quot;background-color: rgb(255, 255, 255);&quot;&gt;Interface Type:&amp;nbsp;&lt;/span&gt;&lt;/font&gt;&lt;/div&gt;&lt;div style=&quot;&quot;&gt;&lt;span style=&quot;background-color: rgb(255, 255, 255); color: rgb(0, 0, 0);&quot;&gt;Interface IP: 10.10.205.253&lt;/span&gt;&lt;/div&gt;&lt;div style=&quot;&quot;&gt;&lt;font color=&quot;#000000&quot;&gt;&lt;span style=&quot;background-color: rgb(255, 255, 255);&quot;&gt;Routing Protocol:BGP&lt;/span&gt;&lt;/font&gt;&lt;/div&gt;&lt;div style=&quot;&quot;&gt;&lt;font color=&quot;#000000&quot;&gt;&lt;span style=&quot;background-color: rgb(255, 255, 255);&quot;&gt;IP Network:&lt;/span&gt;&lt;/font&gt;&lt;/div&gt;&lt;div style=&quot;&quot;&gt;&lt;font color=&quot;#000000&quot;&gt;&lt;span style=&quot;background-color: rgb(255, 255, 255);&quot;&gt;Network Name:&lt;/span&gt;&lt;/font&gt;&lt;/div&gt;&lt;div style=&quot;&quot;&gt;&lt;font color=&quot;#000000&quot;&gt;&lt;span style=&quot;background-color: rgb(255, 255, 255);&quot;&gt;Ports:179&lt;/span&gt;&lt;/font&gt;&lt;/div&gt;" style="whiteSpace=wrap;html=1;fillColor=none;align=left;verticalAlign=top;" vertex="1" parent="LMzbSZaPqSbP6ukTdfSf-16">
          <mxGeometry y="45" width="190" height="156" as="geometry" />
        </mxCell>
        <mxCell id="LMzbSZaPqSbP6ukTdfSf-21" value="" style="group" vertex="1" connectable="0" parent="1">
          <mxGeometry x="-381.5" y="-1029.5" width="230" height="220" as="geometry" />
        </mxCell>
        <object label="" placeholders="1" deviceType="" Hostname="" InterfaceType="" InterfaceIP="" SubnetMaskCIDR="" RoutingProtocol="" IPnetwork="" NetworkName="" OpenPorts="" OStype="" OSVersion="" id="LMzbSZaPqSbP6ukTdfSf-22">
          <mxCell style="group" vertex="1" connectable="0" parent="LMzbSZaPqSbP6ukTdfSf-21">
            <mxGeometry x="10" width="220" height="142" as="geometry" />
          </mxCell>
        </object>
        <mxCell id="LMzbSZaPqSbP6ukTdfSf-23" value="Hostname:&lt;br&gt;IP/CIDR:&amp;nbsp;&lt;br&gt;Iface:&lt;br&gt;TCP Ports:&lt;br&gt;UDP Ports" style="text;html=1;strokeColor=none;fillColor=none;align=left;verticalAlign=middle;whiteSpace=wrap;rounded=0;" vertex="1" parent="LMzbSZaPqSbP6ukTdfSf-22">
          <mxGeometry y="62" width="80" height="80" as="geometry" />
        </mxCell>
        <mxCell id="LMzbSZaPqSbP6ukTdfSf-24" value="" style="points=[];aspect=fixed;html=1;align=center;shadow=0;dashed=0;image;image=img/lib/allied_telesis/computer_and_terminals/Personal_Computer.svg;" vertex="1" parent="LMzbSZaPqSbP6ukTdfSf-22">
          <mxGeometry width="45.6" height="61.800000000000004" as="geometry" />
        </mxCell>
        <mxCell id="LMzbSZaPqSbP6ukTdfSf-25" value="&lt;div style=&quot;&quot;&gt;&lt;font color=&quot;#000000&quot; style=&quot;background-color: initial;&quot;&gt;&lt;span style=&quot;background-color: rgb(255, 255, 255);&quot;&gt;red-dmz-host-1&lt;/span&gt;&lt;/font&gt;&lt;/div&gt;&lt;div style=&quot;&quot;&gt;&lt;font color=&quot;#000000&quot; style=&quot;background-color: initial;&quot;&gt;&lt;span style=&quot;background-color: rgb(255, 255, 255);&quot;&gt;Device Ty&lt;/span&gt;&lt;/font&gt;&lt;span style=&quot;background-color: rgb(255, 255, 255); color: rgb(0, 0, 0);&quot;&gt;pe:computer&lt;/span&gt;&lt;br&gt;&lt;/div&gt;&lt;div style=&quot;&quot;&gt;&lt;font color=&quot;#000000&quot;&gt;&lt;span style=&quot;background-color: rgb(255, 255, 255);&quot;&gt;OS: Debian 10 (buster)&lt;/span&gt;&lt;/font&gt;&lt;/div&gt;&lt;div style=&quot;&quot;&gt;&lt;font color=&quot;#000000&quot;&gt;&lt;span style=&quot;background-color: rgb(255, 255, 255);&quot;&gt;Interface Type: eth0&lt;/span&gt;&lt;/font&gt;&lt;/div&gt;&lt;div style=&quot;&quot;&gt;&lt;span style=&quot;background-color: rgb(255, 255, 255); color: rgb(0, 0, 0);&quot;&gt;Interface IP: 172.16.101.2/27&lt;/span&gt;&lt;br&gt;&lt;/div&gt;&lt;div style=&quot;&quot;&gt;&lt;font color=&quot;#000000&quot;&gt;&lt;span style=&quot;background-color: rgb(255, 255, 255);&quot;&gt;Subnet Mask CIDR:&lt;/span&gt;&lt;/font&gt;&lt;/div&gt;&lt;div style=&quot;&quot;&gt;&lt;font color=&quot;#000000&quot;&gt;&lt;span style=&quot;background-color: rgb(255, 255, 255);&quot;&gt;Routing Protocol:&lt;/span&gt;&lt;/font&gt;&lt;/div&gt;&lt;div style=&quot;&quot;&gt;&lt;font color=&quot;#000000&quot;&gt;&lt;span style=&quot;background-color: rgb(255, 255, 255);&quot;&gt;IP Network:172.16.101.30/27&lt;/span&gt;&lt;/font&gt;&lt;/div&gt;&lt;div style=&quot;&quot;&gt;&lt;font color=&quot;#000000&quot;&gt;&lt;span style=&quot;background-color: rgb(255, 255, 255);&quot;&gt;Network Name:DMZ&lt;/span&gt;&lt;/font&gt;&lt;/div&gt;&lt;div style=&quot;&quot;&gt;&lt;font color=&quot;#000000&quot;&gt;&lt;span style=&quot;background-color: rgb(255, 255, 255);&quot;&gt;Ports:22&lt;/span&gt;&lt;/font&gt;&lt;/div&gt;" style="whiteSpace=wrap;html=1;fillColor=none;align=left;verticalAlign=top;" vertex="1" parent="LMzbSZaPqSbP6ukTdfSf-21">
          <mxGeometry y="64" width="190" height="156" as="geometry" />
        </mxCell>
        <mxCell id="LMzbSZaPqSbP6ukTdfSf-27" value="" style="group" vertex="1" connectable="0" parent="1">
          <mxGeometry x="-40" y="-710" width="190" height="201" as="geometry" />
        </mxCell>
        <mxCell id="LMzbSZaPqSbP6ukTdfSf-28" value="" style="group" vertex="1" connectable="0" parent="LMzbSZaPqSbP6ukTdfSf-27">
          <mxGeometry width="94" height="45" as="geometry" />
        </mxCell>
        <mxCell id="LMzbSZaPqSbP6ukTdfSf-29" value="" style="shape=image;verticalLabelPosition=bottom;labelBackgroundColor=#ffffff;verticalAlign=top;aspect=fixed;imageAspect=0;image=data:image/jpeg,/9j/4AAQSkZJRgABAQAAAQABAAD/2wCEAAkGBxISEBUQEhIVFRUWFRcVFRgWFxcYFRcXGBcXFhcYGBoYHiggGBolHhUVIjEjJSkrLi4uGB8zODUuNygtLisBCgoKDg0OGhAQGyslHyUtLS0tLysuLS4vLS8tLS0tLS0tLy0tLS0tLS0tLS0tLS0uLS0tLS0tLS0tLS0tLS0tLf/AABEIAJsBRQMBEQACEQEDEQH/xAAcAAACAwEBAQEAAAAAAAAAAAAAAQIFBgQDBwj/xABJEAABAwIBBwgFCAgFBQEAAAABAAIDBBEFBhIhMUFhcQcTMlGBkaGxIkJScsEUIzNigpKi0RU0Q2ODk7LCFiRTVHNE0tPh8cP/xAAaAQEAAwEBAQAAAAAAAAAAAAAAAQMEBQIG/8QAOBEAAgIAAwQHBwMEAwEBAAAAAAECAwQFESExMpESQVFhcaHRFCJCUoGx8BMV4SM0ksEzYvFyJP/aAAwDAQACEQMRAD8A+4oAQAgBACAEAIAQAgISytaM5xDR1kgDvKAztfl/hcOh9dASNFo3c66/VmxZxvusm8FXPyo0n7GCsn3sp3Nb96UtAV0cPbLdF8iqV9cd8kcEvKPVOPzWGEDrmqGN/CwOKvjl976tPqUyx1K69Tjly0xZ3RZRRceelPm0K6OV2Pe0VSzGHUmccmOYs6969jL7I6aPR2vLirVlS65eRU8yfVHzOaWeveLPxSq+xzUf9LLqxZXX1tnh5jZ1JHK6jlPSr693Gql8gVYsto7+ZW8fd3ciBwsHQ6aqd71TOf716WX0dnmzy8dd2+SPA5PU51iQ8ZpT5uXr2Gj5fuQ8Zd832IOyapTrivxc8+ZU+xUfKR7Xd8xD/DFH/oN8fzU+xUfKiPa7vmH/AIdptkZHB8g8nKPYaPlJ9su+YlHgsTdLTM33Z5h5PUewYf5fNk+23/N5I9fkTh0aqsbwqpv+5eXl1HZ5krH3dvkTZ8qb0MRrhxqHPHc+4Xl5ZS92p7WYWrfodTMZxNp9HEpeD4oH/wBgVbyqHVJntZlPrijphyvxdn/UU8v/ACU5b4xvHkqpZS+qXkWLM11x8zuh5R8Rb06Slk9yaSMn7zHKqWV3Lc0y1ZjU96Z3wcq1vp8OqG9fNOilH9TT4KiWBvj8JbHGUv4iyg5U8MP0kksJ/fQTN7yGlo7Ss8qpx4k19C+NkJbmmaHDMpaKo0QVcEh6mSsLhxaDcLwey1QAgBACAEAIAQAgBACAEAIAQAgBARe8AXJAA1k6AEBlsU5RcOhcWCfn5NPoUzXTu0bLxgtB4kL1GMpbIrU8yko73oUNVyg1sl/k1A2Nux9VKAduuKIOI2estcMvulvWniZZ46qO7b4FTVV+Jz/TYgYwfUpY2xD77s5/iFrhlcfilyM08xl8KKx+TtO4h0ofO4etPI+U/jJHgtcMFRH4eZmli7pdfI7qekjjFo42MHU1ob5LTGEY8K0M8pSlvZ6lejyIoCJQCKAiVJAigIlAIoCJQCUgRQEShBEoDlq6l7OjC+T3TGP6nAqqc5x3R1+qLYQi98tOZTT5SPabGiqL+7cd4WWzHShvrZphg4y3TQDF653QwqqcOvMl+EZWZ5t/08/4L/2z/t5fye8bsWf0MJmHvhw/qAXn92l8q5nr9sj8x7DDccd0cMt7z2jzeF5ea2dUUellsOtsP8PZQ2J+RRCwJ+kiJ4ACY6V5/dLuxfn1PX7dV2v8+hU4ZUU9XeOaBjZ2XD2ObZ1wbG19I06xrC3Ye2nFLSUV0vzcY767sO9YyfR/N5c0kUsFvk1VUwW1Bkriz7j7t8F6nltEt2q8DxDMLo79pe0WXGKw6HSU9S396wxP+9H6N/srJPKZfBLma4ZnH4o8jQYfysRjRWUk8H147TxcSWWePurFZg7q98eW0114uqe6XPYa/BMqKKsH+WqYpDa+aHWkHFjrOb2hZTQXCAEAIAQAgBACAEAICpx/KWkom51TOyO/Rbre7c1jbud2BAYquy+rJ9FFTCBn+tVXzzvbAw3GzS5w16ltqwFs9r2LvMduNrhsW19xnq6hdP6dfVS1NrGz3COAHdEyze+66FeAqhtlt8TDPG2z2R2eB3UsEbGhsbWtbsDAAPBboxilpExycm/ePQr0QIoCJUgRQEShAigEUBEoBFSQRKARQESgEUAipBEoBFCCJQHJX18ULc+V4YNl9Z4DWexV23QqWs3oWV1TsekVqVNDWV2IOMeG0zs29jPJoY3fc+iOvady5N+aSeytad7OnTlyW2x69x9oyKweakoo6eebnpQXOe8XIu5xdYF2kgXts1aguVKTk9XvOkkorRF6oJBAcOI4vBBbnZA0nZpLuNhpsrqsPbbwLUqsvrr4mYLLvJakxL/NUdRFFWt0tdnBoltqa8HSDsDrbjo1enRfU+l0WtDyrqbFpqmYLCsWcZHUtSwxVLDmua7RnW2jft3jSNC7WDxqt92WyX3ORisG6vejtj9i3K6BiIoDkqsPikN3MGcNThoeODhpCqsw9dnHFMtrvsr4WWuGZSYlS/Q1XPMH7OqHODgJBZ47SVzbcqT21vTxN1WZNbJrkbPBeVancQytidSPOjPJ5ynJ2WkaPR+0BbrXLuw1tXGvQ6VWIrt4Wb+nqGSND43Ne1wu1zSC0jrBGgqguPRACAEAIDwrq2OGN0sr2xsaLuc4gNA3koD5viuXNVVksw8cxB/uZWXlfvhidoaPrP69S24fAzt2vYjHfjIV7FtZSQYdDCXTvcXyHTJPM7OkPF7uiNwsF16sPVQtVzZy7LrLno+SKSsyy5yT5PQQuqpjoGaDmDfo0uGrqG9ZrsxjHZXtfkaacBKW2ez7lzhPJbVVhE2LVLg3WKeEjRts53RbtGgE/WXKtvstfvM6VdMK17qOyp5F4m3+SV9TAdlyHgdfQzCq4zlHhbR7lCMt61OCfITHYT8zWQVDRskGa4/eb/ctMcdfH4uZnlg6ZdRXT1GNU/6xhZkA9aEk6PsF/wAFohmc1xRT8vUoll0fhbOVmXsAdmTxTQu2hzb269/gtUMyqe9NGeWX2Lc0y1pMp6OTo1DLnY45p7nWWmGLplukiiWGtjviyzZIHC7SCOsG48FemnuKGmt4ypIIlAIoQRKkCKAiUAigEgIlSBFCDkxDEIoG58rwwbL6zwGs9iqtuhUtZvQsrqnY9Iop6GsrsRcY8Opjm3s6eQWY3tPog7tJ3Lk35nJ7K1p3nUpy6K22PXuNtk3yQQMeJ8QldVza80kiEbbe0+2nXYaeiuZKcpPWT1Z0IxUVokfSqeBsbQxjWsa0Wa1oAaB1ADQF5PR6ICvxTGYKcfOPAOxo0vPZ8Sr6cNZc/cX16im3EV1cTMVi+Wc0l2wjmm9euQ9upvZ3rsUZbXDbPa/I5V2YTnshsXmZh7iSSSSTrJNyeJOtdJJJaIwN6vVkCpIPKaBjrZzWutquAbW1W6l5cIy3o9KUluZIr0eRFARKECKAi4X0FNNQLCaqoon59FMYrm7oj6VO/jH6p3tsVzsRltdm2Gx+RvozCcNktq8z6dkfyiw1Tm01S0U1UdAaTeKXfE86yfZOkb9a4l1E6ZaTR2KroWrWLNwqS0EBX47jENHTvqZ3ZrGDZpc4nQ1rRtcTYAID5RXST4hKKmtFmNOdT0t7xxbA+T/Ult16Bc2XawmBUffs39hycTjHL3Ybu07l0znGexHJNlTMH1FRUPjBvzQcxreAs2w6r2Jtt2rBfgna9XN/nI2U4tVbOij6Bk7VUFJHzVPT8w3bmtuXb3OuXPO83WGWW2rc0zbHMK3v1RoIcWgdqlbwJsfFZ5YW6O+LL44mqW6SOxpvpGngs7Wm8vT1GgBAeNVSRyjNljZIDoIe1rh3OCAzOJcm2FT9KijaeuLOi8IyAe0IDN1XIrSgl1NVVMBOr0muaOrUGu7ypjJx3MhxT3orJ+TjGYf1fEI5gNkoIcdvrB/mtEcZfHdLnt+5RLCUy3x/0V1RDjtPfnsOErRthOcfwFx8Fqhmdi4kmZ5ZdB7m0cBy4Yx2ZUU88DupzfgbHwWmGZ1viTRnll01uaZ0S5a0QYXiQut6oa7OJ16iB36lc8woUddSlYG7XTQlQ4Zi+JsMkEfySnzSWvfcSSCxIzNpvo0gAbyubfmNk9kNi8zoU4CuG2W1+RcUs4kjZINT2tcODgD8V3oy6UU+040l0W0TKk8iUg5MQxGKBufK8MGy+s8BrPYqrboVLWb0LK6p2PSKKWhra/EXGPDac5gNnTyCzG9p9EHdpO5cm/M5PZWtO86dOXxW2zb3G3yc5IIGOE+ISOq5teaSRCDrtbpPtvsNy5kpOT1k9WdGMVFaJH0mngbG0MY1rGtFmtaA1oHUANAC8knogK/FMZgpx848X2NGl57NnEq+nDWXcK+vUU24iurif06zF4vllNJdsQ5pvWNLz2+r2d67FGW1w2z2vyOVdmE57IbF5mZe4kkkkk6ydJPErpJaLRGBvXayBUgRQgiUAigEUBEoBFCCJUgRQESgPCrpmSNLHtDmnYfMdR3rxZXGyPRktUe4TlB9KL0ZtuT/AC5khkjoK55exxDKeocfSv6sUx2k6g/bqK+cxmClQ9Vtj+bzu4XFq5aPYz6wsRsPk2VFf8txFwvenon83GNjqm3zjz15l8wdRzl08uo6T/UfVuOdj7+iv0117wXaOSCAEAIAQEo5HNN2ktO4keSiUVLY1qTGTjueh2w45UN1Sk+9Z3npWeWCol8PLYXxxd0fi5ndDlXIOkxjuF2n4rNLLK3wtrzNEcxmt6TO+HKyI9Jj28LOH5rNLLLFwtMvjmNb3po74Mcp3apWj3rt/qss8sHfHfF/Tb9jRHF0y+LnsO6OQOF2kEbiD5LM4uOxovTT3E1BIICE0TXjNe0OHU4AjuKAp2ZIYeJRM2ipw9puCImCx67AWvvtdAXd0B8gZT80Xw2sIpZYmj6jJHNZ2ZgaRuIX02Dl0qIv6cth89i49G6S/NoytJnEVIOKqwuCR2dJDG92jS5oJ0arnaNyqnRXPbKKZZC6yHC2aagyqnia2NrYsxos1oYGgAbAGWAHYsk8tpe7VfneaY5hat+jLany5b+0hI9xwPgbeazTyp/DLmaI5kvijyO9uWNLmk3eD7OYbncCNHis7y2/XTZzL/3CnTr5GdxbLCaS7Yvmm9Y0vPb6vZ3roUZbXDbPa/Iw3Y+c9kNi8zNOcSSSbk6STrPFdFLTYYH2kSpAkIIE7NqakiKkgRQCKAiUAigIlCBFSCJQCKARQHhUwNkYWOF2uFiF5nCM4uMtzPUJuElKO9H1XknyjdUUrqed+dPSuEbnE6XxkXikJOskAg72lfKX1OqxwfUfS02q2CmjE5KyZ9K2U65Hyyu958r3HzXcwSSoicbGPW6RbrWZgQAgBACASARQESpBEoBFCDrw7D5ZDeMEDa++a0fa/JUXX11r3+W8uppsm/c57jXYe6OBvztWHu6nPFhwF7rjXKdz9yvReB1qnGpe/Zq/EnLlJSt/aX91rj42svMcBe/h80epY2ldfkzjlywhHRZI77oHmro5Xa97SKZZjWtyZxS5Zu9WEfacT4AK+OVLrl5FLzJ9UfM4psrqg6sxvBtz4kq6OW0rfq/qVPMLXu0RRVEpe90jtLnnOcdVzYC+jcAttdca49GK2GSyyVkulLeea9ngiVIEUIIlAVuK43BTkCV+aSLgZrjcatgsqLsTXU9Jsvqw9lu2KKk5ZwOdmxRzSu2BrB+d/BZZZpStybNEcute9pHRDX4hKbQYVUuB1Oc17W9+bbxVMs2+WPmXRyztl5HbFk/j8p9Gjiiadr3x6OzPJ/CqJZpa9ySLY5dUt7Z2w8m2NSH5ysp4gfYzi7sswf1KiWOvfxF0cFSvhMx+g4HSZv6TfUgXDgDzYNtxeXW7AteGq/V222a92pmvt/S2V16d+he01KyJuZGwNaNgFv8A6uzCuMFpFaI5U5ym9ZPVnoV7PAigIlAIoCJQCKEESpAkBEoBFSCJQFFiuOTUk5MDs0yMZn78wvzf6ivns3WlqfcdvLHrW13mg5Oa28Bp3aHNJkZvje4m/Y7OB4ha8A2q1B9mq8H/ACZcak5uS8H4o163mMEAIAQAgEUBEoCJUgRQgRQCc46rpoNSKAiVJBX4tjMFMLzSBvU3W48GjSqbb66l77LaqJ2P3UVOHuxPEzagg5mHbPNoHYbHuaHFcm/Mpy2V7F5nUpy+Mds9v2LGoySyhgHo/J6ofVcAfxc2qo5jfHe0/EslgKX1aFZUYxX05tVYZOwDW5ocW9+aW/iWmGa/NHkzPLLflkQpst6R2hxfGfrsP9t1qhmNEt+q/O4zywFy3aMvaWqZK0PjcHNOojUtsJxmtYvYZJwcHpI9CvR4IlAaTIigp5ZJOdhike1rSwvY1xaLkOAJGgaWrkZrHZGXijqZbLbKPgbyGFrBZjWtHU0ADwXGOseiAEAIDDYpyT4VMS7mHROO2KRw8HXb4IDP1PIyWaaTEpo/qyNzx3tc23cVZC2cOFtHiVUJcSTKqpyDx2G5ZJTVIGoXzXHd6QYAftdq1QzG+PXr4maWBpl1aeBU1RxOn/WMMmttdGC5o6z6IcPFaYZtL4o8jPLLF8MuZxR5W09y14kjcNYe38rnvC1QzSl79UZ5Zdat2jLCnxenf0ZmHdex7jpWqGKpnukjNLD2x3xZ13V+8pYipIEUBFAIoCJUgRQGDyhqM+YyerbNYesNJBPC5K+ZzGfTs6fVuX0/k7+Bh0a+j1739f4NJhbHiGCaI5ssYu2+pwJOcx31T4aCu3Th3ZhK5Q2SS2ej7mci29V4myMuFvb6rvRucExmOpYS30Xt0SRu6TD1HrHUdqiu1T1W5reuwmytw2709z7SxVpWCAEAigEUAipBEoCJQgRQCKArsWxqCmbeaQNOxut54NGn4Km2+upe+y2qmdj91FTh7sTxQ2oYOYhOgzy6Bbcbf0hx3hcm7Mpy2Q2LzOnTgIR2z2/Y3GS/JLSU7ueqnGsn1kyfRg9YZpzjvcTq1Bc5tt6s3pJLRH0JrQAAAABoAGgAbgoJJICtxPHIYND3Xd7DdLu3q7Vpowlt3CtnazPdia6t729hgcoa9lWfSp4Q0G4vGxz9Gq7yL91l2KMvqr2y2vy5HLux1k9kdiK5bzEIoQRKAusj61sVVd7g1rmOaSdAGjO0/dWLH1OynSK1eq9P9mzBWKFusns0ZdYtlq0XbTtzj7b9Dexus9tljoytvba9O5Gq7MUtla+rKSHK6rbre125zBb8NitksuofVp4P/wBMscdeuvXxX/hZU+Xjh9JA072OI8CD5rNPKY/DLmi+OZv4o8i0pstaV3Sz2cW3He0lZp5Zct2j/O80xzGl79UWtNjdNJ0J4yerOAPcbFZZ4a6HFFmiGIqlukjvBVBcNACA5K7DIJhaaGOQfXY13mEBmMS5LsJm0mkEZ64nPZ+EHN8EBm6vkThH6rXVEJ2Z2a8cPQzF7jZKPC2jzKEZb0mVNVyaYzEfmaqCdvU+7XHvb/ctMMffH4tfEzSwVMurkU1VQYxACZsNe8DbF6Q/AXrVDNpriin5epnllkHwya8/Qhh9e6W+dBJHbQc8Aado06fBdTD4h3LXoteJzr6P0np0kztK0mciVIKbEKwykwRHdK8eqNrWn2j4LHZN3N1Vv/6fZ3Lv+xphBVL9Sf0Xb3vu+5n8p2Bro2gWAZYDddcvNoqMoRW5I6WVycozb36mnwL9Wi934ld/L/7avwOHjv7ifie01Mc8TRPMcrRYPbtHsvB0ObuK9YjCxtfST0kuv/T7URRiXWui1rHs9OxlzhmVIuIqoCGTUH/sZPdceidxWB2SrfRuWj7ep/nYzaq42LpVPXu61+dppAVeUggEgEUB4VVSyNue9wa0aydQ4nYN5USkorWW4mMXJ6IjT1UcgvG9rx1tcD5JGcZcL1EoyjvWh6FejyV2L41BTNvNIGnY0aXng0ae3UqbcRXUveZbVTOx+6iow52KYobUMHMQHQZ5dHGxt4NBO8Lk35lOWyGxeZ06cBCO2e1+RucmOSWjp3CaqJrJ9ZdL9Hfcwk532yeAXObberN6SS0R9Ba0AAAWA0ADUOCgkaArcTxuGDQ513ey3S7t6u1aaMJbbwrZ2sz3Ymure9vYZHFMqJpbtZ823qb0jxd+Vl2KMvqr2y2vv3cjl3Y6yeyOxfnWUJK3GIiVIEUIIlARKARUgigEUBEoBFARKkg9YKqSP6OR7Pdc5vkV4lXGXEk/FHqM5R4W14FpTZWVjP22cOp7Wu8bX8VmngMPL4dPA0Rxt8fi18S1puUCUfSQsdvaS0+N1lnlMHwya8dvoaY5nP4ootabLymd02yM7A4fhN/BZp5XcuFpmiOZVPemi2pco6STo1Edzscc09zrLLPB3w3xf3+xojiqZbpIs2OBFwQR1jSFnaa3mhPXcU2NZUU9NdrnZ7x6jNLu06m9q1UYK27alou1mW7GVVbG9X2IwWNZY1M92tPNM9lh9I+8/X3WC7VGX1VbXtff6HJux1tmxbF3epnSVuMZz1VUyNuc9waN/wAOteLLIVrWT0R7hXKb0itSplqZZ9DbxRdeqR43ewPFZ/6t+73Y+b9PuX/06d/vS8l6ntBC1jQxgsBqC1V1xrioxWiM05ynLpSe0zeVvTZ7p81w8344+B2cq4JeJpsB/Vovd+JXewH9tDwOJjv7ifiWC1mUjJGHAtcAQdYIuColFSWklqiYycXqnozxpefp/wBWls3/AEpLui+z6zOzQufPAuG2mWnc9q9Ubo4xS2XLXvWx+jLilyujHo1MboD7R9KI8HjV2gLPK2Vey6Lj371z9S9VKzbVLXu3PkX8E7JGh7HNe06i0gjvCujJSWqepU4uL0ZIqSCD2gggi4Ogg6iOopvBU0nJxh1Q+2fNTS3u0xuBYSToFnC7T1AELi4zBOH9Svd9v4OvhcWp+5Pf9zpn5KcQjv8AJsVJadGbKHiw3G7hfgAsccTbHdJmqWHqlvii+yX5J6OnPPVN6yfWXS6Y77mG+d9q6pbberLUkloj6A0AAACwGgAagFBI0BWYpjsEBzHvBktcRtsXkabG2waDpPUtFGGnc9IlF2IhUveMnimU00t2tPNt6mn0jxd+Vl2aMvrr2y2vv9DlXY6yexbEURW4xCKAipAigIlCCJQCKAiVIEUBEoBFARKARUkCKAiUAigIlAIoQOKVzOg5zb+ySPJQ4qW9akpuO7Z4HkvRBy1mIRRdN4B6tbjwaNJVVl9dfE/XkW10znwor34jNJ9FHzbfbk19jB8VV07rOCPRXbLfy9T30aq+N6vsXr6HnDQgOz3kyP8Aafpt7o1NHBWV4WMX0pe9Ltf+uw8TxEpLox2LsX++06VpKBFQSZjK3ps90+a4Gb8cfA7WV8EvE02Afq0Xu/Eru5f/AG0PA4uO/uJ+JYLYZQQAgEUBx/o1gdnxF0L/AGoiWX4gaD2hY7MBTJ6xXRfbHZ/BrhjbYrR+8ux7f5O2HFa2P1o5x9cc2/7zbtPcqHhsRDhkpLv2P0LliKJcScfDavU7YsrYx9PDNCdpzecZ96O/kqnbKH/JCS+mq5rUsVUZf8c0/J8mWdFjFPN9FNG49QcM77p0r1C6ufDJHmdM4cSZscLyoLGZkzXPt0XC17dTrnxWDEZd05dKtpfnUbaMf0Y6T2nU7LCPZE/vaFSsrn8yLv3KHys8nZZDZCe1/wD6XpZU+uXkeXmS6o+Z5OyzdshHa8/9q9rKl1y8v5PDzJ/L5/wYjLXCYMSlE8rXMkDAy7HaM1pJAs4W9Yr0srr65PyIeZT+VFdRZOc10aqp4GQEdxbZaK8Gobpy5meeKc98Y8i3iYWixc5292bfwAWuK069TO3r1EipPIipBEoBFCCJQESpAkBEoBFARKARUkESgEUAigIlARe4AXJsN6N6bwtpXTY5TtNucDj1Mu8/hus7xdSeier7tv2L1hrWtWtF37Pucz8Wld9FAR9aUhg+6LuT9S6fBDTvls8t4/Tqjxz/AMdvnuPF8Mz/AKSYgezEMwfe6RXr2ayf/JP6R2ee88+0Vx4IfV7fLcTpqKOPoMAO063HiTpKurorq4Fp9+ZVZfZZxM9laViUASgkRUEmXyt6bPdPmuDm/HHwO1lfBLxNPgA/y0Y6m2PEE3Xdy9//AJoeBxsd/cT8SwWwyAgBACAEAIAQHNUUMUnTja7eQL9+tU2YeqzjimW13218MmiEdCWfRTTR7myEt+664Wd5fWuByj4P11NCx03xpPxXpodDK2tZqnjk/wCSOx72EeSreEvjwzT8V6eh7WJpfFBrwfqe7cfqm9KmY/8A45beD2/FeXDEx3wT8H6pHpTw8t0mvFeh6jKlo0Pp6hu8Ma8fhcT4Lw7Zx4q5ctfselXB8M489PuejcqqT1pHM9+ORviW2Xn2qtcWq8U1/o9ezWPdo/Bo6I8cpXaqiL77R5le1iaXukuZ5dFq3xfI6o6qN3Rew8HA+RVinF7mitxkt6J3Xo8iKkCKEESgIlAIqQRQCIQEHOA1kKNRoc8tdE3pSxji9o+K8u2tb5Lme1XN7k+RySY9Sj9uw8DnHubdVPF0r4l9z2sNc/hZ4nKGH1RK/wB2J/xAT2qL4VJ+EWT7PJcTS8WjzdjTz0KWQ++WM+JU/qWvhrf1aX+zz+nUuKxfTVkHVlW7UyFnFznnwAC9dDFPqivq36EdPDr5nyXqeToZ3dOpcN0bWs8dJUrC2Pjsf0SXqR7TWuGtfVt+h5/omIm7w6Q9cjnO8CbL0sDTvktfFtnl4y3qengtDqjja0WaABuAHktMYRitIrQolKUnrJ6kipIEVAEVBIihIioJEVAIlQSZvKiFzpGZoJs3TbeT+S4Obv8AqR8DtZZwS8TdYxhxpK6ppHCwbI6aLYDDK4vbbgS5p3tXRya9SqdfXH7MwZtS42/qdT+6PFdg5QIAQAgBACAEAIAQAgBACARQHk+mYdbGni0FeJVVy3xXI9q2a3N8zwdhNOdcLPugeSpeCw73wXItWLvXxvmQ/Q0GxhHB7x5FeP2/D/L5v1Pft1/zeS9Btwpg1OlHCWT81H7fSt2v+T9SfbruvTkvQZw399Ufzn/mo/b6/ml/kx7dZ8seSAYcf9xU/wA0/EKP2+Hzz/yJ9un8seQfo93+5qP5n/pP2+Pzz5/wPbpfJHl/Iv0b+/qP5zvgn7fX80v8h7dP5Y8hjDBtlnPGZ/5r1+31dbl/kyPbrOyP+KI/oeLbnnjJIfin7dR1p836j2+7tXJegfoan/0geJcfMr0sBhvkXmzy8biPmZ6sw2FuqKMfZCsjhaI7oLkjw8Tc98nzPdsTRqaBwACtUIrcityk97JFSQRUASgkSgkRUEiQCUEiKgESoJEhIlBIioAlBJuOSbJZlWyoq52AxueyKG4GkRZ+e4X2Fz7fYK+Xx9ytubW5bD6LBVOupJ73tNnyj5HmuibNBZtVBcxE6BI09KF+52w7DY9apw98qLFOPUXX0xug4SPj0E1y5rmlkjDmyRuFnscNYcF9jhsVDEQ6UPquw+UxGHnRLoy/9PZaCgEAIAQAgBACAEAIAQAgBACAEAIAQAgBACAEAIAQAgEUAioJEVBIkJEoAioJEVBIlAEhJEqCRKCRKAJQSJCTtybwCXEqj5NDdsbT/mJhqjbta07ZDqA2a9i5GPxygnXB7evu/k6eCwbk1ZPd1d5+hcMw+OnhZTwtDY42hjGjYB5neuCdo6kBkMtsg4a8idjuYqmizZmgHOFuhK3126t4toOxW03zpn04PRlVtMLY9Ga1R8ixWlno5eYrY+acehILmCXex/X9U2IX02EzSu73Z+7LyZ8/istsq2w2rzEuoc0EAIAQAgBACAEAIAQAgBACAEAIAQAgBACAEAIAQCQkRUARUEiKgkRQCKgkiVBIlAEVBIihIlBIlAPKeZrBnOcGjrK8TsjBdKT0R7hCU3pFas02SeQVViFpJM+lpT6xFqiUfu2u6DT7ThwC4WKzNy92rYu3r/g7OGy9R96za+zqPtWCYPBRwNp6eMRxt1AbTtLjrc47SdK5J0zvQAgBAeFdRRzRuimjbIxws5r2hzTxBQHzXHeSgtJfh0wjGvmJs50XBj9Lo+GkLdhswuo2J6rsf5sMeIwNV21rR9qMFikE9I7NraeSDYHkZ0DvdlbdvYbFd3D5tRZsn7r793M41+V3Q2x95efIUcgcM5pBB1EG47wunGSktYvVHOlFxejWjJKSAQAgBACAEAIAQAgBACAEAIAQAgBACAEAkAISIqCSKgCUEiUARQkSgkRUEiKgCUEnPUVTGaHOAJ1DW48ANJVNt9dXHJItrpss4FqaDA8i8RrLFkPyaI/tKkFriPqRdI7s6wK5V+bdVS+r9Dp05Z12P6I+m5K8m9HRkSvBqagaedlAOaf3bOjH571x7bp2vpTep1K6oVrSC0NmqywEAIAQAgBACAjIwOBa4Ag6CCLgjeCgMZjPJhh85L42OpZDpz6c5gPFmlh7lbVdZU9YNorsqhYtJpMx+JcmWIxaYJoKpunQ+8Eu4C2cw8TZdOrObo7JpS8vzkc63KapcDa8/wA5mXr6eopyRU0lRDbW4xl8f8yPObs610qs4w8uLVeP8HPsyq+PDo/zvOenrY5OhI13Ai/cuhXfVZwST+pinTZXxRaOhWlQIAQAgBACAEAIAQAgBACAEAIAQCKASgkRQkSgCUEiUEiKgkiSoZJzGvjzsxrs92xrAXu7mAlZbMbRXvkvpt+xorwl090X9dn3LrDclsTqbc1RPY0+vUEQtGvTmn0zq2NWC3N4Lgjr47DbXlc3xvTwNZhXJDI6xraw746ZuaOHOv8ASI+yFzrcxvs2a6Lu/NTfXgKYdWvib3AMkKGi009MxjtryM6U8Xuu7xWFtt6s2JJbEXigkEAIAQAgBACAEAIAQAgBACApMXyRoKrTPSQvPtZgD/vts7xQGYq+SOiOmCaqg3Nlz2d0od5rTXjL6+GbM88LTPiiijq+SquYPma2CXqE0Toz2ujc7vzexbIZxiI79H9PQyzyqiW7VfneVNVkRi0f/SxS74Z2+UoatcM8+aHJ/wAGWWT/ACz5oqqigrIzaSgq27xCZG98ectMM5w736r6ehnllN63aMr5MSjboeXR/wDIx7P6gFojmWFl8fPVFEsvxEfh+xKPEIXapYz9pv5q+OJplumuaKZYa6O+L5Hu2QHUQeBBVylF7mVuMlvRNSeQQAgBACAEAIAQCJRko8n1DBre0cXAKuVkFva5nuNc3uT5HM/FYBrlZ2OBPgqJYzDx3zXMujhL3ug+R6wzOk+ihqJf+OCV3k1USzTDL4tfoy+OXYh/D5osqbJ/Epfo8On/AIhjiH43X8FmlnNS4Yt8kXxym34pItqfk3xZ+sUsI258j3uHYxlj3hZZ51N8MEvHb6GiOUwXFJ/b1Lqj5IHnTUYg63swRNjt9p5cT3BZZ5niJfFp4GqGX0R6tfEvqDkqwyOxfE+cjbPI947Wghvgsc7Zz4pN+LNUK4Q4UkazD8MggbmwQxxN6o2NaPwhVns60AIAQAgBACAEAIAQAgBACAEAIAQAgBACAEAIAQEXsB0EA8RdAVtTk5RSX5ykp33150MZPeQgKyo5PMKeLGggHuszD3ssgKfEeTPCmC7aZzeE9QP/ANF7Vk11vmeHCL6kZfE8j6ONpLI5B/HqP/IvaxNy3TfNnl4ep74rkjC19MGEhrpB/FkPm5evbMQvjfNnn2Wl/AuSKGtrJG9GR4+04+ZT2/Er42R7HQ/gRXwYvOTYyv71LzDE/Ox7Dh/kRd0cjndJ7z9t48int2IfxvmPZKPkXI0+A4RFK6z+cP8AGmHk9R7Xe/jlzZPs1PyLkjbUWQWHvPpQvP8AHqP/ACLw77Xvk+bPaprW6K5I0dNyX4QAD8jDj9eWZ47nvIXhzk97PailuRaQZD4Yw3bQUwI64mHzC8klpS4VTxfRwRM9yNrfIIDsQAgBACAEAIAQAgBACAEAIAQAgP/Z;" vertex="1" parent="LMzbSZaPqSbP6ukTdfSf-28">
          <mxGeometry width="94" height="45" as="geometry" />
        </mxCell>
        <mxCell id="LMzbSZaPqSbP6ukTdfSf-30" value="&lt;b&gt;RED-IPS&lt;/b&gt;" style="text;html=1;strokeColor=none;fillColor=none;align=left;verticalAlign=middle;whiteSpace=wrap;rounded=0;fontColor=#FFFFFF;" vertex="1" parent="LMzbSZaPqSbP6ukTdfSf-28">
          <mxGeometry x="17" y="25" width="70" height="20" as="geometry" />
        </mxCell>
        <mxCell id="LMzbSZaPqSbP6ukTdfSf-31" value="&lt;div style=&quot;&quot;&gt;&lt;font style=&quot;background-color: initial;&quot; color=&quot;#000000&quot;&gt;&lt;span style=&quot;background-color: rgb(255, 255, 255);&quot;&gt;VyOS RED-IPS&lt;/span&gt;&lt;/font&gt;&lt;/div&gt;&lt;div style=&quot;&quot;&gt;&lt;font style=&quot;background-color: initial;&quot; color=&quot;#000000&quot;&gt;&lt;span style=&quot;background-color: rgb(255, 255, 255);&quot;&gt;Device Ty&lt;/span&gt;&lt;/font&gt;&lt;span style=&quot;background-color: rgb(255, 255, 255); color: rgb(0, 0, 0);&quot;&gt;pe:router&lt;/span&gt;&lt;br&gt;&lt;/div&gt;&lt;div style=&quot;&quot;&gt;&lt;font color=&quot;#000000&quot;&gt;&lt;span style=&quot;background-color: rgb(255, 255, 255);&quot;&gt;OS: Linux VyOS&lt;/span&gt;&lt;/font&gt;&lt;/div&gt;&lt;div style=&quot;&quot;&gt;&lt;font color=&quot;#000000&quot;&gt;&lt;span style=&quot;background-color: rgb(255, 255, 255);&quot;&gt;Interface Type: eth0 - INTERNET&lt;/span&gt;&lt;/font&gt;&lt;/div&gt;&lt;div style=&quot;&quot;&gt;&lt;span style=&quot;background-color: rgb(255, 255, 255); color: rgb(0, 0, 0);&quot;&gt;Interface IP: 172.16.120.9/29&lt;/span&gt;&lt;br&gt;&lt;/div&gt;&lt;div style=&quot;&quot;&gt;&lt;font color=&quot;#000000&quot;&gt;&lt;span style=&quot;background-color: rgb(255, 255, 255);&quot;&gt;Interface: eth1 - REDNET&lt;/span&gt;&lt;/font&gt;&lt;/div&gt;&lt;div style=&quot;&quot;&gt;&lt;font color=&quot;#000000&quot;&gt;&lt;span style=&quot;background-color: rgb(255, 255, 255);&quot;&gt;Interface IP: 172.16.120.18/29&lt;/span&gt;&lt;/font&gt;&lt;/div&gt;&lt;div style=&quot;&quot;&gt;&lt;span style=&quot;background-color: rgb(255, 255, 255); color: rgb(0, 0, 0);&quot;&gt;Routing Protocol:BGP&lt;/span&gt;&lt;br&gt;&lt;/div&gt;&lt;div style=&quot;&quot;&gt;&lt;font color=&quot;#000000&quot;&gt;&lt;span style=&quot;background-color: rgb(255, 255, 255);&quot;&gt;IP Network:&lt;/span&gt;&lt;/font&gt;&lt;/div&gt;&lt;div style=&quot;&quot;&gt;&lt;font color=&quot;#000000&quot;&gt;&lt;span style=&quot;background-color: rgb(255, 255, 255);&quot;&gt;Network Name:&lt;/span&gt;&lt;/font&gt;&lt;/div&gt;&lt;div style=&quot;&quot;&gt;&lt;font color=&quot;#000000&quot;&gt;&lt;span style=&quot;background-color: rgb(255, 255, 255);&quot;&gt;Ports:22, 179&lt;/span&gt;&lt;/font&gt;&lt;/div&gt;" style="whiteSpace=wrap;html=1;fillColor=none;align=left;verticalAlign=top;" vertex="1" parent="LMzbSZaPqSbP6ukTdfSf-27">
          <mxGeometry y="45" width="190" height="156" as="geometry" />
        </mxCell>
        <mxCell id="LMzbSZaPqSbP6ukTdfSf-32" value="" style="group" vertex="1" connectable="0" parent="1">
          <mxGeometry x="-50" y="-410" width="190" height="201" as="geometry" />
        </mxCell>
        <mxCell id="LMzbSZaPqSbP6ukTdfSf-33" value="" style="group" vertex="1" connectable="0" parent="LMzbSZaPqSbP6ukTdfSf-32">
          <mxGeometry width="94" height="45" as="geometry" />
        </mxCell>
        <mxCell id="LMzbSZaPqSbP6ukTdfSf-34" value="" style="shape=image;verticalLabelPosition=bottom;labelBackgroundColor=#ffffff;verticalAlign=top;aspect=fixed;imageAspect=0;image=data:image/jpeg,/9j/4AAQSkZJRgABAQAAAQABAAD/2wCEAAkGBxISEBUQEhIVFRUWFRcVFRgWFxcYFRcXGBcXFhcYGBoYHiggGBolHhUVIjEjJSkrLi4uGB8zODUuNygtLisBCgoKDg0OGhAQGyslHyUtLS0tLysuLS4vLS8tLS0tLS0tLy0tLS0tLS0tLS0tLS0uLS0tLS0tLS0tLS0tLS0tLf/AABEIAJsBRQMBEQACEQEDEQH/xAAcAAACAwEBAQEAAAAAAAAAAAAAAQIFBgQDBwj/xABJEAABAwIBBwgFCAgFBQEAAAABAAIDBBEFBhIhMUFhcQcTMlGBkaGxIkJScsEUIzNigpKi0RU0Q2ODk7LCFiRTVHNE0tPh8cP/xAAaAQEAAwEBAQAAAAAAAAAAAAAAAQMEBQIG/8QAOBEAAgIAAwQHBwMEAwEBAAAAAAECAwQFESExMpESQVFhcaHRFCJCUoGx8BMV4SM0ksEzYvFyJP/aAAwDAQACEQMRAD8A+4oAQAgBACAEAIAQAgISytaM5xDR1kgDvKAztfl/hcOh9dASNFo3c66/VmxZxvusm8FXPyo0n7GCsn3sp3Nb96UtAV0cPbLdF8iqV9cd8kcEvKPVOPzWGEDrmqGN/CwOKvjl976tPqUyx1K69Tjly0xZ3RZRRceelPm0K6OV2Pe0VSzGHUmccmOYs6969jL7I6aPR2vLirVlS65eRU8yfVHzOaWeveLPxSq+xzUf9LLqxZXX1tnh5jZ1JHK6jlPSr693Gql8gVYsto7+ZW8fd3ciBwsHQ6aqd71TOf716WX0dnmzy8dd2+SPA5PU51iQ8ZpT5uXr2Gj5fuQ8Zd832IOyapTrivxc8+ZU+xUfKR7Xd8xD/DFH/oN8fzU+xUfKiPa7vmH/AIdptkZHB8g8nKPYaPlJ9su+YlHgsTdLTM33Z5h5PUewYf5fNk+23/N5I9fkTh0aqsbwqpv+5eXl1HZ5krH3dvkTZ8qb0MRrhxqHPHc+4Xl5ZS92p7WYWrfodTMZxNp9HEpeD4oH/wBgVbyqHVJntZlPrijphyvxdn/UU8v/ACU5b4xvHkqpZS+qXkWLM11x8zuh5R8Rb06Slk9yaSMn7zHKqWV3Lc0y1ZjU96Z3wcq1vp8OqG9fNOilH9TT4KiWBvj8JbHGUv4iyg5U8MP0kksJ/fQTN7yGlo7Ss8qpx4k19C+NkJbmmaHDMpaKo0QVcEh6mSsLhxaDcLwey1QAgBACAEAIAQAgBACAEAIAQAgBARe8AXJAA1k6AEBlsU5RcOhcWCfn5NPoUzXTu0bLxgtB4kL1GMpbIrU8yko73oUNVyg1sl/k1A2Nux9VKAduuKIOI2estcMvulvWniZZ46qO7b4FTVV+Jz/TYgYwfUpY2xD77s5/iFrhlcfilyM08xl8KKx+TtO4h0ofO4etPI+U/jJHgtcMFRH4eZmli7pdfI7qekjjFo42MHU1ob5LTGEY8K0M8pSlvZ6lejyIoCJQCKAiVJAigIlAIoCJQCUgRQEShBEoDlq6l7OjC+T3TGP6nAqqc5x3R1+qLYQi98tOZTT5SPabGiqL+7cd4WWzHShvrZphg4y3TQDF653QwqqcOvMl+EZWZ5t/08/4L/2z/t5fye8bsWf0MJmHvhw/qAXn92l8q5nr9sj8x7DDccd0cMt7z2jzeF5ea2dUUellsOtsP8PZQ2J+RRCwJ+kiJ4ACY6V5/dLuxfn1PX7dV2v8+hU4ZUU9XeOaBjZ2XD2ObZ1wbG19I06xrC3Ye2nFLSUV0vzcY767sO9YyfR/N5c0kUsFvk1VUwW1Bkriz7j7t8F6nltEt2q8DxDMLo79pe0WXGKw6HSU9S396wxP+9H6N/srJPKZfBLma4ZnH4o8jQYfysRjRWUk8H147TxcSWWePurFZg7q98eW0114uqe6XPYa/BMqKKsH+WqYpDa+aHWkHFjrOb2hZTQXCAEAIAQAgBACAEAICpx/KWkom51TOyO/Rbre7c1jbud2BAYquy+rJ9FFTCBn+tVXzzvbAw3GzS5w16ltqwFs9r2LvMduNrhsW19xnq6hdP6dfVS1NrGz3COAHdEyze+66FeAqhtlt8TDPG2z2R2eB3UsEbGhsbWtbsDAAPBboxilpExycm/ePQr0QIoCJUgRQEShAigEUBEoBFSQRKARQESgEUAipBEoBFCCJQHJX18ULc+V4YNl9Z4DWexV23QqWs3oWV1TsekVqVNDWV2IOMeG0zs29jPJoY3fc+iOvady5N+aSeytad7OnTlyW2x69x9oyKweakoo6eebnpQXOe8XIu5xdYF2kgXts1aguVKTk9XvOkkorRF6oJBAcOI4vBBbnZA0nZpLuNhpsrqsPbbwLUqsvrr4mYLLvJakxL/NUdRFFWt0tdnBoltqa8HSDsDrbjo1enRfU+l0WtDyrqbFpqmYLCsWcZHUtSwxVLDmua7RnW2jft3jSNC7WDxqt92WyX3ORisG6vejtj9i3K6BiIoDkqsPikN3MGcNThoeODhpCqsw9dnHFMtrvsr4WWuGZSYlS/Q1XPMH7OqHODgJBZ47SVzbcqT21vTxN1WZNbJrkbPBeVancQytidSPOjPJ5ynJ2WkaPR+0BbrXLuw1tXGvQ6VWIrt4Wb+nqGSND43Ne1wu1zSC0jrBGgqguPRACAEAIDwrq2OGN0sr2xsaLuc4gNA3koD5viuXNVVksw8cxB/uZWXlfvhidoaPrP69S24fAzt2vYjHfjIV7FtZSQYdDCXTvcXyHTJPM7OkPF7uiNwsF16sPVQtVzZy7LrLno+SKSsyy5yT5PQQuqpjoGaDmDfo0uGrqG9ZrsxjHZXtfkaacBKW2ez7lzhPJbVVhE2LVLg3WKeEjRts53RbtGgE/WXKtvstfvM6VdMK17qOyp5F4m3+SV9TAdlyHgdfQzCq4zlHhbR7lCMt61OCfITHYT8zWQVDRskGa4/eb/ctMcdfH4uZnlg6ZdRXT1GNU/6xhZkA9aEk6PsF/wAFohmc1xRT8vUoll0fhbOVmXsAdmTxTQu2hzb269/gtUMyqe9NGeWX2Lc0y1pMp6OTo1DLnY45p7nWWmGLplukiiWGtjviyzZIHC7SCOsG48FemnuKGmt4ypIIlAIoQRKkCKAiUAigEgIlSBFCDkxDEIoG58rwwbL6zwGs9iqtuhUtZvQsrqnY9Iop6GsrsRcY8Opjm3s6eQWY3tPog7tJ3Lk35nJ7K1p3nUpy6K22PXuNtk3yQQMeJ8QldVza80kiEbbe0+2nXYaeiuZKcpPWT1Z0IxUVokfSqeBsbQxjWsa0Wa1oAaB1ADQF5PR6ICvxTGYKcfOPAOxo0vPZ8Sr6cNZc/cX16im3EV1cTMVi+Wc0l2wjmm9euQ9upvZ3rsUZbXDbPa/I5V2YTnshsXmZh7iSSSSTrJNyeJOtdJJJaIwN6vVkCpIPKaBjrZzWutquAbW1W6l5cIy3o9KUluZIr0eRFARKECKAi4X0FNNQLCaqoon59FMYrm7oj6VO/jH6p3tsVzsRltdm2Gx+RvozCcNktq8z6dkfyiw1Tm01S0U1UdAaTeKXfE86yfZOkb9a4l1E6ZaTR2KroWrWLNwqS0EBX47jENHTvqZ3ZrGDZpc4nQ1rRtcTYAID5RXST4hKKmtFmNOdT0t7xxbA+T/Ult16Bc2XawmBUffs39hycTjHL3Ybu07l0znGexHJNlTMH1FRUPjBvzQcxreAs2w6r2Jtt2rBfgna9XN/nI2U4tVbOij6Bk7VUFJHzVPT8w3bmtuXb3OuXPO83WGWW2rc0zbHMK3v1RoIcWgdqlbwJsfFZ5YW6O+LL44mqW6SOxpvpGngs7Wm8vT1GgBAeNVSRyjNljZIDoIe1rh3OCAzOJcm2FT9KijaeuLOi8IyAe0IDN1XIrSgl1NVVMBOr0muaOrUGu7ypjJx3MhxT3orJ+TjGYf1fEI5gNkoIcdvrB/mtEcZfHdLnt+5RLCUy3x/0V1RDjtPfnsOErRthOcfwFx8Fqhmdi4kmZ5ZdB7m0cBy4Yx2ZUU88DupzfgbHwWmGZ1viTRnll01uaZ0S5a0QYXiQut6oa7OJ16iB36lc8woUddSlYG7XTQlQ4Zi+JsMkEfySnzSWvfcSSCxIzNpvo0gAbyubfmNk9kNi8zoU4CuG2W1+RcUs4kjZINT2tcODgD8V3oy6UU+040l0W0TKk8iUg5MQxGKBufK8MGy+s8BrPYqrboVLWb0LK6p2PSKKWhra/EXGPDac5gNnTyCzG9p9EHdpO5cm/M5PZWtO86dOXxW2zb3G3yc5IIGOE+ISOq5teaSRCDrtbpPtvsNy5kpOT1k9WdGMVFaJH0mngbG0MY1rGtFmtaA1oHUANAC8knogK/FMZgpx848X2NGl57NnEq+nDWXcK+vUU24iurif06zF4vllNJdsQ5pvWNLz2+r2d67FGW1w2z2vyOVdmE57IbF5mZe4kkkkk6ydJPErpJaLRGBvXayBUgRQgiUAigEUBEoBFCCJUgRQESgPCrpmSNLHtDmnYfMdR3rxZXGyPRktUe4TlB9KL0ZtuT/AC5khkjoK55exxDKeocfSv6sUx2k6g/bqK+cxmClQ9Vtj+bzu4XFq5aPYz6wsRsPk2VFf8txFwvenon83GNjqm3zjz15l8wdRzl08uo6T/UfVuOdj7+iv0117wXaOSCAEAIAQEo5HNN2ktO4keSiUVLY1qTGTjueh2w45UN1Sk+9Z3npWeWCol8PLYXxxd0fi5ndDlXIOkxjuF2n4rNLLK3wtrzNEcxmt6TO+HKyI9Jj28LOH5rNLLLFwtMvjmNb3po74Mcp3apWj3rt/qss8sHfHfF/Tb9jRHF0y+LnsO6OQOF2kEbiD5LM4uOxovTT3E1BIICE0TXjNe0OHU4AjuKAp2ZIYeJRM2ipw9puCImCx67AWvvtdAXd0B8gZT80Xw2sIpZYmj6jJHNZ2ZgaRuIX02Dl0qIv6cth89i49G6S/NoytJnEVIOKqwuCR2dJDG92jS5oJ0arnaNyqnRXPbKKZZC6yHC2aagyqnia2NrYsxos1oYGgAbAGWAHYsk8tpe7VfneaY5hat+jLany5b+0hI9xwPgbeazTyp/DLmaI5kvijyO9uWNLmk3eD7OYbncCNHis7y2/XTZzL/3CnTr5GdxbLCaS7Yvmm9Y0vPb6vZ3roUZbXDbPa/Iw3Y+c9kNi8zNOcSSSbk6STrPFdFLTYYH2kSpAkIIE7NqakiKkgRQCKAiUAigIlCBFSCJQCKARQHhUwNkYWOF2uFiF5nCM4uMtzPUJuElKO9H1XknyjdUUrqed+dPSuEbnE6XxkXikJOskAg72lfKX1OqxwfUfS02q2CmjE5KyZ9K2U65Hyyu958r3HzXcwSSoicbGPW6RbrWZgQAgBACASARQESpBEoBFCDrw7D5ZDeMEDa++a0fa/JUXX11r3+W8uppsm/c57jXYe6OBvztWHu6nPFhwF7rjXKdz9yvReB1qnGpe/Zq/EnLlJSt/aX91rj42svMcBe/h80epY2ldfkzjlywhHRZI77oHmro5Xa97SKZZjWtyZxS5Zu9WEfacT4AK+OVLrl5FLzJ9UfM4psrqg6sxvBtz4kq6OW0rfq/qVPMLXu0RRVEpe90jtLnnOcdVzYC+jcAttdca49GK2GSyyVkulLeea9ngiVIEUIIlAVuK43BTkCV+aSLgZrjcatgsqLsTXU9Jsvqw9lu2KKk5ZwOdmxRzSu2BrB+d/BZZZpStybNEcute9pHRDX4hKbQYVUuB1Oc17W9+bbxVMs2+WPmXRyztl5HbFk/j8p9Gjiiadr3x6OzPJ/CqJZpa9ySLY5dUt7Z2w8m2NSH5ysp4gfYzi7sswf1KiWOvfxF0cFSvhMx+g4HSZv6TfUgXDgDzYNtxeXW7AteGq/V222a92pmvt/S2V16d+he01KyJuZGwNaNgFv8A6uzCuMFpFaI5U5ym9ZPVnoV7PAigIlAIoCJQCKEESpAkBEoBFSCJQFFiuOTUk5MDs0yMZn78wvzf6ivns3WlqfcdvLHrW13mg5Oa28Bp3aHNJkZvje4m/Y7OB4ha8A2q1B9mq8H/ACZcak5uS8H4o163mMEAIAQAgEUBEoCJUgRQgRQCc46rpoNSKAiVJBX4tjMFMLzSBvU3W48GjSqbb66l77LaqJ2P3UVOHuxPEzagg5mHbPNoHYbHuaHFcm/Mpy2V7F5nUpy+Mds9v2LGoySyhgHo/J6ofVcAfxc2qo5jfHe0/EslgKX1aFZUYxX05tVYZOwDW5ocW9+aW/iWmGa/NHkzPLLflkQpst6R2hxfGfrsP9t1qhmNEt+q/O4zywFy3aMvaWqZK0PjcHNOojUtsJxmtYvYZJwcHpI9CvR4IlAaTIigp5ZJOdhike1rSwvY1xaLkOAJGgaWrkZrHZGXijqZbLbKPgbyGFrBZjWtHU0ADwXGOseiAEAIDDYpyT4VMS7mHROO2KRw8HXb4IDP1PIyWaaTEpo/qyNzx3tc23cVZC2cOFtHiVUJcSTKqpyDx2G5ZJTVIGoXzXHd6QYAftdq1QzG+PXr4maWBpl1aeBU1RxOn/WMMmttdGC5o6z6IcPFaYZtL4o8jPLLF8MuZxR5W09y14kjcNYe38rnvC1QzSl79UZ5Zdat2jLCnxenf0ZmHdex7jpWqGKpnukjNLD2x3xZ13V+8pYipIEUBFAIoCJUgRQGDyhqM+YyerbNYesNJBPC5K+ZzGfTs6fVuX0/k7+Bh0a+j1739f4NJhbHiGCaI5ssYu2+pwJOcx31T4aCu3Th3ZhK5Q2SS2ej7mci29V4myMuFvb6rvRucExmOpYS30Xt0SRu6TD1HrHUdqiu1T1W5reuwmytw2709z7SxVpWCAEAigEUAipBEoCJQgRQCKArsWxqCmbeaQNOxut54NGn4Km2+upe+y2qmdj91FTh7sTxQ2oYOYhOgzy6Bbcbf0hx3hcm7Mpy2Q2LzOnTgIR2z2/Y3GS/JLSU7ueqnGsn1kyfRg9YZpzjvcTq1Bc5tt6s3pJLRH0JrQAAAABoAGgAbgoJJICtxPHIYND3Xd7DdLu3q7Vpowlt3CtnazPdia6t729hgcoa9lWfSp4Q0G4vGxz9Gq7yL91l2KMvqr2y2vy5HLux1k9kdiK5bzEIoQRKAusj61sVVd7g1rmOaSdAGjO0/dWLH1OynSK1eq9P9mzBWKFusns0ZdYtlq0XbTtzj7b9Dexus9tljoytvba9O5Gq7MUtla+rKSHK6rbre125zBb8NitksuofVp4P/wBMscdeuvXxX/hZU+Xjh9JA072OI8CD5rNPKY/DLmi+OZv4o8i0pstaV3Sz2cW3He0lZp5Zct2j/O80xzGl79UWtNjdNJ0J4yerOAPcbFZZ4a6HFFmiGIqlukjvBVBcNACA5K7DIJhaaGOQfXY13mEBmMS5LsJm0mkEZ64nPZ+EHN8EBm6vkThH6rXVEJ2Z2a8cPQzF7jZKPC2jzKEZb0mVNVyaYzEfmaqCdvU+7XHvb/ctMMffH4tfEzSwVMurkU1VQYxACZsNe8DbF6Q/AXrVDNpriin5epnllkHwya8/Qhh9e6W+dBJHbQc8Aado06fBdTD4h3LXoteJzr6P0np0kztK0mciVIKbEKwykwRHdK8eqNrWn2j4LHZN3N1Vv/6fZ3Lv+xphBVL9Sf0Xb3vu+5n8p2Bro2gWAZYDddcvNoqMoRW5I6WVycozb36mnwL9Wi934ld/L/7avwOHjv7ifie01Mc8TRPMcrRYPbtHsvB0ObuK9YjCxtfST0kuv/T7URRiXWui1rHs9OxlzhmVIuIqoCGTUH/sZPdceidxWB2SrfRuWj7ep/nYzaq42LpVPXu61+dppAVeUggEgEUB4VVSyNue9wa0aydQ4nYN5USkorWW4mMXJ6IjT1UcgvG9rx1tcD5JGcZcL1EoyjvWh6FejyV2L41BTNvNIGnY0aXng0ae3UqbcRXUveZbVTOx+6iow52KYobUMHMQHQZ5dHGxt4NBO8Lk35lOWyGxeZ06cBCO2e1+RucmOSWjp3CaqJrJ9ZdL9Hfcwk532yeAXObberN6SS0R9Ba0AAAWA0ADUOCgkaArcTxuGDQ513ey3S7t6u1aaMJbbwrZ2sz3Ymure9vYZHFMqJpbtZ823qb0jxd+Vl2KMvqr2y2vv3cjl3Y6yeyOxfnWUJK3GIiVIEUIIlARKARUgigEUBEoBFARKkg9YKqSP6OR7Pdc5vkV4lXGXEk/FHqM5R4W14FpTZWVjP22cOp7Wu8bX8VmngMPL4dPA0Rxt8fi18S1puUCUfSQsdvaS0+N1lnlMHwya8dvoaY5nP4ootabLymd02yM7A4fhN/BZp5XcuFpmiOZVPemi2pco6STo1Edzscc09zrLLPB3w3xf3+xojiqZbpIs2OBFwQR1jSFnaa3mhPXcU2NZUU9NdrnZ7x6jNLu06m9q1UYK27alou1mW7GVVbG9X2IwWNZY1M92tPNM9lh9I+8/X3WC7VGX1VbXtff6HJux1tmxbF3epnSVuMZz1VUyNuc9waN/wAOteLLIVrWT0R7hXKb0itSplqZZ9DbxRdeqR43ewPFZ/6t+73Y+b9PuX/06d/vS8l6ntBC1jQxgsBqC1V1xrioxWiM05ynLpSe0zeVvTZ7p81w8344+B2cq4JeJpsB/Vovd+JXewH9tDwOJjv7ifiWC1mUjJGHAtcAQdYIuColFSWklqiYycXqnozxpefp/wBWls3/AEpLui+z6zOzQufPAuG2mWnc9q9Ubo4xS2XLXvWx+jLilyujHo1MboD7R9KI8HjV2gLPK2Vey6Lj371z9S9VKzbVLXu3PkX8E7JGh7HNe06i0gjvCujJSWqepU4uL0ZIqSCD2gggi4Ogg6iOopvBU0nJxh1Q+2fNTS3u0xuBYSToFnC7T1AELi4zBOH9Svd9v4OvhcWp+5Pf9zpn5KcQjv8AJsVJadGbKHiw3G7hfgAsccTbHdJmqWHqlvii+yX5J6OnPPVN6yfWXS6Y77mG+d9q6pbberLUkloj6A0AAACwGgAagFBI0BWYpjsEBzHvBktcRtsXkabG2waDpPUtFGGnc9IlF2IhUveMnimU00t2tPNt6mn0jxd+Vl2aMvrr2y2vv9DlXY6yexbEURW4xCKAipAigIlCCJQCKAiVIEUBEoBFARKARUkCKAiUAigIlAIoQOKVzOg5zb+ySPJQ4qW9akpuO7Z4HkvRBy1mIRRdN4B6tbjwaNJVVl9dfE/XkW10znwor34jNJ9FHzbfbk19jB8VV07rOCPRXbLfy9T30aq+N6vsXr6HnDQgOz3kyP8Aafpt7o1NHBWV4WMX0pe9Ltf+uw8TxEpLox2LsX++06VpKBFQSZjK3ps90+a4Gb8cfA7WV8EvE02Afq0Xu/Eru5f/AG0PA4uO/uJ+JYLYZQQAgEUBx/o1gdnxF0L/AGoiWX4gaD2hY7MBTJ6xXRfbHZ/BrhjbYrR+8ux7f5O2HFa2P1o5x9cc2/7zbtPcqHhsRDhkpLv2P0LliKJcScfDavU7YsrYx9PDNCdpzecZ96O/kqnbKH/JCS+mq5rUsVUZf8c0/J8mWdFjFPN9FNG49QcM77p0r1C6ufDJHmdM4cSZscLyoLGZkzXPt0XC17dTrnxWDEZd05dKtpfnUbaMf0Y6T2nU7LCPZE/vaFSsrn8yLv3KHys8nZZDZCe1/wD6XpZU+uXkeXmS6o+Z5OyzdshHa8/9q9rKl1y8v5PDzJ/L5/wYjLXCYMSlE8rXMkDAy7HaM1pJAs4W9Yr0srr65PyIeZT+VFdRZOc10aqp4GQEdxbZaK8Gobpy5meeKc98Y8i3iYWixc5292bfwAWuK069TO3r1EipPIipBEoBFCCJQESpAkBEoBFARKARUkESgEUAigIlARe4AXJsN6N6bwtpXTY5TtNucDj1Mu8/hus7xdSeier7tv2L1hrWtWtF37Pucz8Wld9FAR9aUhg+6LuT9S6fBDTvls8t4/Tqjxz/AMdvnuPF8Mz/AKSYgezEMwfe6RXr2ayf/JP6R2ee88+0Vx4IfV7fLcTpqKOPoMAO063HiTpKurorq4Fp9+ZVZfZZxM9laViUASgkRUEmXyt6bPdPmuDm/HHwO1lfBLxNPgA/y0Y6m2PEE3Xdy9//AJoeBxsd/cT8SwWwyAgBACAEAIAQHNUUMUnTja7eQL9+tU2YeqzjimW13218MmiEdCWfRTTR7myEt+664Wd5fWuByj4P11NCx03xpPxXpodDK2tZqnjk/wCSOx72EeSreEvjwzT8V6eh7WJpfFBrwfqe7cfqm9KmY/8A45beD2/FeXDEx3wT8H6pHpTw8t0mvFeh6jKlo0Pp6hu8Ma8fhcT4Lw7Zx4q5ctfselXB8M489PuejcqqT1pHM9+ORviW2Xn2qtcWq8U1/o9ezWPdo/Bo6I8cpXaqiL77R5le1iaXukuZ5dFq3xfI6o6qN3Rew8HA+RVinF7mitxkt6J3Xo8iKkCKEESgIlAIqQRQCIQEHOA1kKNRoc8tdE3pSxji9o+K8u2tb5Lme1XN7k+RySY9Sj9uw8DnHubdVPF0r4l9z2sNc/hZ4nKGH1RK/wB2J/xAT2qL4VJ+EWT7PJcTS8WjzdjTz0KWQ++WM+JU/qWvhrf1aX+zz+nUuKxfTVkHVlW7UyFnFznnwAC9dDFPqivq36EdPDr5nyXqeToZ3dOpcN0bWs8dJUrC2Pjsf0SXqR7TWuGtfVt+h5/omIm7w6Q9cjnO8CbL0sDTvktfFtnl4y3qengtDqjja0WaABuAHktMYRitIrQolKUnrJ6kipIEVAEVBIihIioJEVAIlQSZvKiFzpGZoJs3TbeT+S4Obv8AqR8DtZZwS8TdYxhxpK6ppHCwbI6aLYDDK4vbbgS5p3tXRya9SqdfXH7MwZtS42/qdT+6PFdg5QIAQAgBACAEAIAQAgBACARQHk+mYdbGni0FeJVVy3xXI9q2a3N8zwdhNOdcLPugeSpeCw73wXItWLvXxvmQ/Q0GxhHB7x5FeP2/D/L5v1Pft1/zeS9Btwpg1OlHCWT81H7fSt2v+T9SfbruvTkvQZw399Ufzn/mo/b6/ml/kx7dZ8seSAYcf9xU/wA0/EKP2+Hzz/yJ9un8seQfo93+5qP5n/pP2+Pzz5/wPbpfJHl/Iv0b+/qP5zvgn7fX80v8h7dP5Y8hjDBtlnPGZ/5r1+31dbl/kyPbrOyP+KI/oeLbnnjJIfin7dR1p836j2+7tXJegfoan/0geJcfMr0sBhvkXmzy8biPmZ6sw2FuqKMfZCsjhaI7oLkjw8Tc98nzPdsTRqaBwACtUIrcityk97JFSQRUASgkSgkRUEiQCUEiKgESoJEhIlBIioAlBJuOSbJZlWyoq52AxueyKG4GkRZ+e4X2Fz7fYK+Xx9ytubW5bD6LBVOupJ73tNnyj5HmuibNBZtVBcxE6BI09KF+52w7DY9apw98qLFOPUXX0xug4SPj0E1y5rmlkjDmyRuFnscNYcF9jhsVDEQ6UPquw+UxGHnRLoy/9PZaCgEAIAQAgBACAEAIAQAgBACAEAIAQAgBACAEAIAQAgEUAioJEVBIkJEoAioJEVBIlAEhJEqCRKCRKAJQSJCTtybwCXEqj5NDdsbT/mJhqjbta07ZDqA2a9i5GPxygnXB7evu/k6eCwbk1ZPd1d5+hcMw+OnhZTwtDY42hjGjYB5neuCdo6kBkMtsg4a8idjuYqmizZmgHOFuhK3126t4toOxW03zpn04PRlVtMLY9Ga1R8ixWlno5eYrY+acehILmCXex/X9U2IX02EzSu73Z+7LyZ8/istsq2w2rzEuoc0EAIAQAgBACAEAIAQAgBACAEAIAQAgBACAEAIAQCQkRUARUEiKgkRQCKgkiVBIlAEVBIihIlBIlAPKeZrBnOcGjrK8TsjBdKT0R7hCU3pFas02SeQVViFpJM+lpT6xFqiUfu2u6DT7ThwC4WKzNy92rYu3r/g7OGy9R96za+zqPtWCYPBRwNp6eMRxt1AbTtLjrc47SdK5J0zvQAgBAeFdRRzRuimjbIxws5r2hzTxBQHzXHeSgtJfh0wjGvmJs50XBj9Lo+GkLdhswuo2J6rsf5sMeIwNV21rR9qMFikE9I7NraeSDYHkZ0DvdlbdvYbFd3D5tRZsn7r793M41+V3Q2x95efIUcgcM5pBB1EG47wunGSktYvVHOlFxejWjJKSAQAgBACAEAIAQAgBACAEAIAQAgBACAEAkAISIqCSKgCUEiUARQkSgkRUEiKgCUEnPUVTGaHOAJ1DW48ANJVNt9dXHJItrpss4FqaDA8i8RrLFkPyaI/tKkFriPqRdI7s6wK5V+bdVS+r9Dp05Z12P6I+m5K8m9HRkSvBqagaedlAOaf3bOjH571x7bp2vpTep1K6oVrSC0NmqywEAIAQAgBACAjIwOBa4Ag6CCLgjeCgMZjPJhh85L42OpZDpz6c5gPFmlh7lbVdZU9YNorsqhYtJpMx+JcmWIxaYJoKpunQ+8Eu4C2cw8TZdOrObo7JpS8vzkc63KapcDa8/wA5mXr6eopyRU0lRDbW4xl8f8yPObs610qs4w8uLVeP8HPsyq+PDo/zvOenrY5OhI13Ai/cuhXfVZwST+pinTZXxRaOhWlQIAQAgBACAEAIAQAgBACAEAIAQCKASgkRQkSgCUEiUEiKgkiSoZJzGvjzsxrs92xrAXu7mAlZbMbRXvkvpt+xorwl090X9dn3LrDclsTqbc1RPY0+vUEQtGvTmn0zq2NWC3N4Lgjr47DbXlc3xvTwNZhXJDI6xraw746ZuaOHOv8ASI+yFzrcxvs2a6Lu/NTfXgKYdWvib3AMkKGi009MxjtryM6U8Xuu7xWFtt6s2JJbEXigkEAIAQAgBACAEAIAQAgBACApMXyRoKrTPSQvPtZgD/vts7xQGYq+SOiOmCaqg3Nlz2d0od5rTXjL6+GbM88LTPiiijq+SquYPma2CXqE0Toz2ujc7vzexbIZxiI79H9PQyzyqiW7VfneVNVkRi0f/SxS74Z2+UoatcM8+aHJ/wAGWWT/ACz5oqqigrIzaSgq27xCZG98ectMM5w736r6ehnllN63aMr5MSjboeXR/wDIx7P6gFojmWFl8fPVFEsvxEfh+xKPEIXapYz9pv5q+OJplumuaKZYa6O+L5Hu2QHUQeBBVylF7mVuMlvRNSeQQAgBACAEAIAQCJRko8n1DBre0cXAKuVkFva5nuNc3uT5HM/FYBrlZ2OBPgqJYzDx3zXMujhL3ug+R6wzOk+ihqJf+OCV3k1USzTDL4tfoy+OXYh/D5osqbJ/Epfo8On/AIhjiH43X8FmlnNS4Yt8kXxym34pItqfk3xZ+sUsI258j3uHYxlj3hZZ51N8MEvHb6GiOUwXFJ/b1Lqj5IHnTUYg63swRNjt9p5cT3BZZ5niJfFp4GqGX0R6tfEvqDkqwyOxfE+cjbPI947Wghvgsc7Zz4pN+LNUK4Q4UkazD8MggbmwQxxN6o2NaPwhVns60AIAQAgBACAEAIAQAgBACAEAIAQAgBACAEAIAQEXsB0EA8RdAVtTk5RSX5ykp33150MZPeQgKyo5PMKeLGggHuszD3ssgKfEeTPCmC7aZzeE9QP/ANF7Vk11vmeHCL6kZfE8j6ONpLI5B/HqP/IvaxNy3TfNnl4ep74rkjC19MGEhrpB/FkPm5evbMQvjfNnn2Wl/AuSKGtrJG9GR4+04+ZT2/Er42R7HQ/gRXwYvOTYyv71LzDE/Ox7Dh/kRd0cjndJ7z9t48int2IfxvmPZKPkXI0+A4RFK6z+cP8AGmHk9R7Xe/jlzZPs1PyLkjbUWQWHvPpQvP8AHqP/ACLw77Xvk+bPaprW6K5I0dNyX4QAD8jDj9eWZ47nvIXhzk97PailuRaQZD4Yw3bQUwI64mHzC8klpS4VTxfRwRM9yNrfIIDsQAgBACAEAIAQAgBACAEAIAQAgP/Z;" vertex="1" parent="LMzbSZaPqSbP6ukTdfSf-33">
          <mxGeometry width="94" height="45" as="geometry" />
        </mxCell>
        <mxCell id="LMzbSZaPqSbP6ukTdfSf-35" value="&lt;b&gt;RED-POP&lt;/b&gt;" style="text;html=1;strokeColor=none;fillColor=none;align=left;verticalAlign=middle;whiteSpace=wrap;rounded=0;fontColor=#FFFFFF;" vertex="1" parent="LMzbSZaPqSbP6ukTdfSf-33">
          <mxGeometry x="17" y="25" width="70" height="20" as="geometry" />
        </mxCell>
        <mxCell id="LMzbSZaPqSbP6ukTdfSf-36" value="&lt;div style=&quot;&quot;&gt;&lt;font style=&quot;background-color: initial;&quot; color=&quot;#000000&quot;&gt;&lt;span style=&quot;background-color: rgb(255, 255, 255);&quot;&gt;VyOS RED-POP&lt;/span&gt;&lt;/font&gt;&lt;/div&gt;&lt;div style=&quot;&quot;&gt;&lt;font style=&quot;background-color: initial;&quot; color=&quot;#000000&quot;&gt;&lt;span style=&quot;background-color: rgb(255, 255, 255);&quot;&gt;Device Ty&lt;/span&gt;&lt;/font&gt;&lt;span style=&quot;background-color: rgb(255, 255, 255); color: rgb(0, 0, 0);&quot;&gt;pe:router&lt;/span&gt;&lt;br&gt;&lt;/div&gt;&lt;div style=&quot;&quot;&gt;&lt;font color=&quot;#000000&quot;&gt;&lt;span style=&quot;background-color: rgb(255, 255, 255);&quot;&gt;OS: Linux VyOS&lt;/span&gt;&lt;/font&gt;&lt;/div&gt;&lt;div style=&quot;&quot;&gt;&lt;font color=&quot;#000000&quot;&gt;&lt;span style=&quot;background-color: rgb(255, 255, 255);&quot;&gt;Interface Type: eth0 - INTERNET&lt;/span&gt;&lt;/font&gt;&lt;/div&gt;&lt;div style=&quot;&quot;&gt;&lt;span style=&quot;background-color: rgb(255, 255, 255); color: rgb(0, 0, 0);&quot;&gt;Interface IP: 172.16.120.17/29&lt;/span&gt;&lt;br&gt;&lt;/div&gt;&lt;div style=&quot;&quot;&gt;&lt;font color=&quot;#000000&quot;&gt;&lt;span style=&quot;background-color: rgb(255, 255, 255);&quot;&gt;Interface: eth1 - REDHOSTS&lt;/span&gt;&lt;/font&gt;&lt;/div&gt;&lt;div style=&quot;&quot;&gt;&lt;font color=&quot;#000000&quot;&gt;&lt;span style=&quot;background-color: rgb(255, 255, 255);&quot;&gt;Interface IP: 172.16.182.126/27&lt;/span&gt;&lt;/font&gt;&lt;/div&gt;&lt;div style=&quot;&quot;&gt;&lt;div&gt;&lt;font color=&quot;#000000&quot;&gt;&lt;span style=&quot;background-color: rgb(255, 255, 255);&quot;&gt;Interface: eth2 - REDINTDMZ&lt;/span&gt;&lt;/font&gt;&lt;/div&gt;&lt;div&gt;&lt;font color=&quot;#000000&quot;&gt;&lt;span style=&quot;background-color: rgb(255, 255, 255);&quot;&gt;Interface IP: 172.16.140.6/29&lt;/span&gt;&lt;/font&gt;&lt;/div&gt;&lt;/div&gt;&lt;div style=&quot;&quot;&gt;&lt;span style=&quot;background-color: rgb(255, 255, 255); color: rgb(0, 0, 0);&quot;&gt;Routing Protocol:OSPF&lt;/span&gt;&lt;br&gt;&lt;/div&gt;&lt;div style=&quot;&quot;&gt;&lt;font color=&quot;#000000&quot;&gt;&lt;span style=&quot;background-color: rgb(255, 255, 255);&quot;&gt;IP Network:&lt;/span&gt;&lt;/font&gt;&lt;/div&gt;&lt;div style=&quot;&quot;&gt;&lt;font color=&quot;#000000&quot;&gt;&lt;span style=&quot;background-color: rgb(255, 255, 255);&quot;&gt;Network Name:&lt;/span&gt;&lt;/font&gt;&lt;/div&gt;&lt;div style=&quot;&quot;&gt;&lt;font color=&quot;#000000&quot;&gt;&lt;span style=&quot;background-color: rgb(255, 255, 255);&quot;&gt;Ports:22&lt;/span&gt;&lt;/font&gt;&lt;/div&gt;" style="whiteSpace=wrap;html=1;fillColor=none;align=left;verticalAlign=top;" vertex="1" parent="LMzbSZaPqSbP6ukTdfSf-32">
          <mxGeometry y="45" width="190" height="156" as="geometry" />
        </mxCell>
        <mxCell id="LMzbSZaPqSbP6ukTdfSf-37" value="" style="group" vertex="1" connectable="0" parent="1">
          <mxGeometry x="-380" y="-430" width="230" height="220" as="geometry" />
        </mxCell>
        <object label="" placeholders="1" deviceType="" Hostname="" InterfaceType="" InterfaceIP="" SubnetMaskCIDR="" RoutingProtocol="" IPnetwork="" NetworkName="" OpenPorts="" OStype="" OSVersion="" id="LMzbSZaPqSbP6ukTdfSf-38">
          <mxCell style="group" vertex="1" connectable="0" parent="LMzbSZaPqSbP6ukTdfSf-37">
            <mxGeometry x="10" width="220" height="142" as="geometry" />
          </mxCell>
        </object>
        <mxCell id="LMzbSZaPqSbP6ukTdfSf-39" value="Hostname:&lt;br&gt;IP/CIDR:&amp;nbsp;&lt;br&gt;Iface:&lt;br&gt;TCP Ports:&lt;br&gt;UDP Ports" style="text;html=1;strokeColor=none;fillColor=none;align=left;verticalAlign=middle;whiteSpace=wrap;rounded=0;" vertex="1" parent="LMzbSZaPqSbP6ukTdfSf-38">
          <mxGeometry y="62" width="80" height="80" as="geometry" />
        </mxCell>
        <mxCell id="LMzbSZaPqSbP6ukTdfSf-40" value="" style="points=[];aspect=fixed;html=1;align=center;shadow=0;dashed=0;image;image=img/lib/allied_telesis/computer_and_terminals/Personal_Computer.svg;" vertex="1" parent="LMzbSZaPqSbP6ukTdfSf-38">
          <mxGeometry width="45.6" height="61.800000000000004" as="geometry" />
        </mxCell>
        <mxCell id="LMzbSZaPqSbP6ukTdfSf-41" value="&lt;div style=&quot;&quot;&gt;&lt;font color=&quot;#000000&quot; style=&quot;background-color: initial;&quot;&gt;&lt;span style=&quot;background-color: rgb(255, 255, 255);&quot;&gt;red-host-1&lt;/span&gt;&lt;/font&gt;&lt;/div&gt;&lt;div style=&quot;&quot;&gt;&lt;font color=&quot;#000000&quot; style=&quot;background-color: initial;&quot;&gt;&lt;span style=&quot;background-color: rgb(255, 255, 255);&quot;&gt;fa463e6a8f41&lt;/span&gt;&lt;/font&gt;&lt;/div&gt;&lt;div style=&quot;&quot;&gt;&lt;font color=&quot;#000000&quot; style=&quot;background-color: initial;&quot;&gt;&lt;span style=&quot;background-color: rgb(255, 255, 255);&quot;&gt;Device Ty&lt;/span&gt;&lt;/font&gt;&lt;span style=&quot;background-color: rgb(255, 255, 255); color: rgb(0, 0, 0);&quot;&gt;pe:computer&lt;/span&gt;&lt;br&gt;&lt;/div&gt;&lt;div style=&quot;&quot;&gt;&lt;font color=&quot;#000000&quot;&gt;&lt;span style=&quot;background-color: rgb(255, 255, 255);&quot;&gt;OS: Debian 10 (buster)&lt;/span&gt;&lt;/font&gt;&lt;/div&gt;&lt;div style=&quot;&quot;&gt;&lt;font color=&quot;#000000&quot;&gt;&lt;span style=&quot;background-color: rgb(255, 255, 255);&quot;&gt;Interface Type: eth0&lt;/span&gt;&lt;/font&gt;&lt;/div&gt;&lt;div style=&quot;&quot;&gt;&lt;span style=&quot;background-color: rgb(255, 255, 255); color: rgb(0, 0, 0);&quot;&gt;Interface IP: 172.16.182.106&lt;/span&gt;&lt;br&gt;&lt;/div&gt;&lt;div style=&quot;&quot;&gt;&lt;font color=&quot;#000000&quot;&gt;&lt;span style=&quot;background-color: rgb(255, 255, 255);&quot;&gt;Subnet Mask CIDR:&lt;/span&gt;&lt;/font&gt;&lt;/div&gt;&lt;div style=&quot;&quot;&gt;&lt;span style=&quot;background-color: rgb(255, 255, 255); color: rgb(0, 0, 0);&quot;&gt;Routing Protocol:&lt;/span&gt;&lt;/div&gt;&lt;div style=&quot;&quot;&gt;&lt;font color=&quot;#000000&quot;&gt;&lt;span style=&quot;background-color: rgb(255, 255, 255);&quot;&gt;IP Network:&lt;/span&gt;&lt;/font&gt;&lt;span style=&quot;background-color: rgb(255, 255, 255); color: rgb(0, 0, 0);&quot;&gt;172.16.182.126/27&lt;/span&gt;&lt;/div&gt;&lt;div&gt;&lt;span style=&quot;background-color: rgb(255, 255, 255); color: rgb(0, 0, 0);&quot;&gt;Network Name:REDHOSTS&lt;/span&gt;&lt;br&gt;&lt;/div&gt;&lt;div style=&quot;&quot;&gt;&lt;font color=&quot;#000000&quot;&gt;&lt;span style=&quot;background-color: rgb(255, 255, 255);&quot;&gt;Ports:22&lt;/span&gt;&lt;/font&gt;&lt;/div&gt;" style="whiteSpace=wrap;html=1;fillColor=none;align=left;verticalAlign=top;" vertex="1" parent="LMzbSZaPqSbP6ukTdfSf-37">
          <mxGeometry y="64" width="210" height="156" as="geometry" />
        </mxCell>
        <mxCell id="LMzbSZaPqSbP6ukTdfSf-42" value="" style="group" vertex="1" connectable="0" parent="1">
          <mxGeometry x="-560" y="-430" width="230" height="220" as="geometry" />
        </mxCell>
        <object label="" placeholders="1" deviceType="" Hostname="" InterfaceType="" InterfaceIP="" SubnetMaskCIDR="" RoutingProtocol="" IPnetwork="" NetworkName="" OpenPorts="" OStype="" OSVersion="" id="LMzbSZaPqSbP6ukTdfSf-43">
          <mxCell style="group" vertex="1" connectable="0" parent="LMzbSZaPqSbP6ukTdfSf-42">
            <mxGeometry x="10" width="220" height="142" as="geometry" />
          </mxCell>
        </object>
        <mxCell id="LMzbSZaPqSbP6ukTdfSf-44" value="Hostname:&lt;br&gt;IP/CIDR:&amp;nbsp;&lt;br&gt;Iface:&lt;br&gt;TCP Ports:&lt;br&gt;UDP Ports" style="text;html=1;strokeColor=none;fillColor=none;align=left;verticalAlign=middle;whiteSpace=wrap;rounded=0;" vertex="1" parent="LMzbSZaPqSbP6ukTdfSf-43">
          <mxGeometry y="62" width="80" height="80" as="geometry" />
        </mxCell>
        <mxCell id="LMzbSZaPqSbP6ukTdfSf-46" value="&lt;div style=&quot;&quot;&gt;&lt;font color=&quot;#000000&quot;&gt;&lt;span style=&quot;background-color: rgb(255, 255, 255);&quot;&gt;UNKNOWN&lt;/span&gt;&lt;/font&gt;&lt;/div&gt;&lt;div style=&quot;&quot;&gt;&lt;font color=&quot;#000000&quot; style=&quot;background-color: initial;&quot;&gt;&lt;span style=&quot;background-color: rgb(255, 255, 255);&quot;&gt;Device Ty&lt;/span&gt;&lt;/font&gt;&lt;span style=&quot;background-color: rgb(255, 255, 255); color: rgb(0, 0, 0);&quot;&gt;pe:Web Server&lt;/span&gt;&lt;br&gt;&lt;/div&gt;&lt;div style=&quot;&quot;&gt;&lt;font color=&quot;#000000&quot;&gt;&lt;span style=&quot;background-color: rgb(255, 255, 255);&quot;&gt;OS:&amp;nbsp;&lt;/span&gt;&lt;/font&gt;&lt;/div&gt;&lt;div style=&quot;&quot;&gt;&lt;font color=&quot;#000000&quot;&gt;&lt;span style=&quot;background-color: rgb(255, 255, 255);&quot;&gt;Interface Type:&amp;nbsp;&lt;/span&gt;&lt;/font&gt;&lt;/div&gt;&lt;div style=&quot;&quot;&gt;&lt;span style=&quot;background-color: rgb(255, 255, 255); color: rgb(0, 0, 0);&quot;&gt;Interface IP: 172.16.182.110&lt;/span&gt;&lt;br&gt;&lt;/div&gt;&lt;div style=&quot;&quot;&gt;&lt;font color=&quot;#000000&quot;&gt;&lt;span style=&quot;background-color: rgb(255, 255, 255);&quot;&gt;Subnet Mask CIDR:&lt;/span&gt;&lt;/font&gt;&lt;/div&gt;&lt;div style=&quot;&quot;&gt;&lt;span style=&quot;background-color: rgb(255, 255, 255); color: rgb(0, 0, 0);&quot;&gt;Routing Protocol:&lt;/span&gt;&lt;/div&gt;&lt;div style=&quot;&quot;&gt;&lt;font color=&quot;#000000&quot;&gt;&lt;span style=&quot;background-color: rgb(255, 255, 255);&quot;&gt;IP Network:&lt;/span&gt;&lt;/font&gt;&lt;span style=&quot;background-color: rgb(255, 255, 255); color: rgb(0, 0, 0);&quot;&gt;172.16.182.126/27&lt;/span&gt;&lt;/div&gt;&lt;div&gt;&lt;span style=&quot;background-color: rgb(255, 255, 255); color: rgb(0, 0, 0);&quot;&gt;Network Name:REDHOSTS&lt;/span&gt;&lt;br&gt;&lt;/div&gt;&lt;div style=&quot;&quot;&gt;&lt;font color=&quot;#000000&quot;&gt;&lt;span style=&quot;background-color: rgb(255, 255, 255);&quot;&gt;Ports:22, 80, 1980, 1982, 1988, 1989&lt;/span&gt;&lt;/font&gt;&lt;/div&gt;&lt;div style=&quot;&quot;&gt;&lt;font color=&quot;#000000&quot;&gt;&lt;span style=&quot;background-color: rgb(255, 255, 255);&quot;&gt;1984 (U), 1989 (U)&lt;/span&gt;&lt;/font&gt;&lt;/div&gt;" style="whiteSpace=wrap;html=1;fillColor=none;align=left;verticalAlign=top;" vertex="1" parent="LMzbSZaPqSbP6ukTdfSf-42">
          <mxGeometry y="64" width="210" height="156" as="geometry" />
        </mxCell>
        <mxCell id="LMzbSZaPqSbP6ukTdfSf-47" value="" style="group" vertex="1" connectable="0" parent="1">
          <mxGeometry x="-730" y="-430" width="230" height="220" as="geometry" />
        </mxCell>
        <object label="" placeholders="1" deviceType="" Hostname="" InterfaceType="" InterfaceIP="" SubnetMaskCIDR="" RoutingProtocol="" IPnetwork="" NetworkName="" OpenPorts="" OStype="" OSVersion="" id="LMzbSZaPqSbP6ukTdfSf-48">
          <mxCell style="group" vertex="1" connectable="0" parent="LMzbSZaPqSbP6ukTdfSf-47">
            <mxGeometry x="10" width="220" height="142" as="geometry" />
          </mxCell>
        </object>
        <mxCell id="LMzbSZaPqSbP6ukTdfSf-49" value="Hostname:&lt;br&gt;IP/CIDR:&amp;nbsp;&lt;br&gt;Iface:&lt;br&gt;TCP Ports:&lt;br&gt;UDP Ports" style="text;html=1;strokeColor=none;fillColor=none;align=left;verticalAlign=middle;whiteSpace=wrap;rounded=0;" vertex="1" parent="LMzbSZaPqSbP6ukTdfSf-48">
          <mxGeometry y="62" width="80" height="80" as="geometry" />
        </mxCell>
        <mxCell id="LMzbSZaPqSbP6ukTdfSf-50" value="" style="points=[];aspect=fixed;html=1;align=center;shadow=0;dashed=0;image;image=img/lib/allied_telesis/computer_and_terminals/Personal_Computer.svg;" vertex="1" parent="LMzbSZaPqSbP6ukTdfSf-48">
          <mxGeometry width="45.6" height="61.800000000000004" as="geometry" />
        </mxCell>
        <mxCell id="LMzbSZaPqSbP6ukTdfSf-65" value="" style="image;aspect=fixed;perimeter=ellipsePerimeter;html=1;align=center;shadow=0;dashed=0;spacingTop=3;image=img/lib/active_directory/web_server.svg;" vertex="1" parent="LMzbSZaPqSbP6ukTdfSf-48">
          <mxGeometry x="170" width="48" height="60" as="geometry" />
        </mxCell>
        <mxCell id="LMzbSZaPqSbP6ukTdfSf-51" value="&lt;div style=&quot;&quot;&gt;&lt;font color=&quot;#000000&quot;&gt;&lt;span style=&quot;background-color: rgb(255, 255, 255);&quot;&gt;red-host-3&lt;/span&gt;&lt;/font&gt;&lt;/div&gt;&lt;div style=&quot;&quot;&gt;&lt;font color=&quot;#000000&quot; style=&quot;background-color: initial;&quot;&gt;&lt;span style=&quot;background-color: rgb(255, 255, 255);&quot;&gt;Device Ty&lt;/span&gt;&lt;/font&gt;&lt;span style=&quot;background-color: rgb(255, 255, 255); color: rgb(0, 0, 0);&quot;&gt;pe:computer&lt;/span&gt;&lt;br&gt;&lt;/div&gt;&lt;div style=&quot;&quot;&gt;&lt;font color=&quot;#000000&quot;&gt;&lt;span style=&quot;background-color: rgb(255, 255, 255);&quot;&gt;OS: Debian 10 (buster)&lt;/span&gt;&lt;/font&gt;&lt;/div&gt;&lt;div style=&quot;&quot;&gt;&lt;font color=&quot;#000000&quot;&gt;&lt;span style=&quot;background-color: rgb(255, 255, 255);&quot;&gt;Interface Type: eth0&lt;/span&gt;&lt;/font&gt;&lt;/div&gt;&lt;div style=&quot;&quot;&gt;&lt;span style=&quot;background-color: rgb(255, 255, 255); color: rgb(0, 0, 0);&quot;&gt;Interface IP: 172.16.182.114&lt;/span&gt;&lt;br&gt;&lt;/div&gt;&lt;div style=&quot;&quot;&gt;&lt;font color=&quot;#000000&quot;&gt;&lt;span style=&quot;background-color: rgb(255, 255, 255);&quot;&gt;Subnet Mask CIDR:&lt;/span&gt;&lt;/font&gt;&lt;/div&gt;&lt;div style=&quot;&quot;&gt;&lt;span style=&quot;background-color: rgb(255, 255, 255); color: rgb(0, 0, 0);&quot;&gt;Routing Protocol:&lt;/span&gt;&lt;/div&gt;&lt;div style=&quot;&quot;&gt;&lt;font color=&quot;#000000&quot;&gt;&lt;span style=&quot;background-color: rgb(255, 255, 255);&quot;&gt;IP Network:&lt;/span&gt;&lt;/font&gt;&lt;span style=&quot;background-color: rgb(255, 255, 255); color: rgb(0, 0, 0);&quot;&gt;172.16.182.126/27&lt;/span&gt;&lt;/div&gt;&lt;div&gt;&lt;span style=&quot;background-color: rgb(255, 255, 255); color: rgb(0, 0, 0);&quot;&gt;Network Name:REDHOSTS&lt;/span&gt;&lt;br&gt;&lt;/div&gt;&lt;div style=&quot;&quot;&gt;&lt;font color=&quot;#000000&quot;&gt;&lt;span style=&quot;background-color: rgb(255, 255, 255);&quot;&gt;Ports:22&lt;/span&gt;&lt;/font&gt;&lt;/div&gt;" style="whiteSpace=wrap;html=1;fillColor=none;align=left;verticalAlign=top;" vertex="1" parent="LMzbSZaPqSbP6ukTdfSf-47">
          <mxGeometry y="64" width="210" height="156" as="geometry" />
        </mxCell>
        <mxCell id="LMzbSZaPqSbP6ukTdfSf-52" value="" style="group" vertex="1" connectable="0" parent="1">
          <mxGeometry x="-900" y="-430" width="230" height="220" as="geometry" />
        </mxCell>
        <object label="" placeholders="1" deviceType="" Hostname="" InterfaceType="" InterfaceIP="" SubnetMaskCIDR="" RoutingProtocol="" IPnetwork="" NetworkName="" OpenPorts="" OStype="" OSVersion="" id="LMzbSZaPqSbP6ukTdfSf-53">
          <mxCell style="group" vertex="1" connectable="0" parent="LMzbSZaPqSbP6ukTdfSf-52">
            <mxGeometry x="10" width="220" height="142" as="geometry" />
          </mxCell>
        </object>
        <mxCell id="LMzbSZaPqSbP6ukTdfSf-54" value="Hostname:&lt;br&gt;IP/CIDR:&amp;nbsp;&lt;br&gt;Iface:&lt;br&gt;TCP Ports:&lt;br&gt;UDP Ports" style="text;html=1;strokeColor=none;fillColor=none;align=left;verticalAlign=middle;whiteSpace=wrap;rounded=0;" vertex="1" parent="LMzbSZaPqSbP6ukTdfSf-53">
          <mxGeometry y="62" width="80" height="80" as="geometry" />
        </mxCell>
        <mxCell id="LMzbSZaPqSbP6ukTdfSf-55" value="" style="points=[];aspect=fixed;html=1;align=center;shadow=0;dashed=0;image;image=img/lib/allied_telesis/computer_and_terminals/Personal_Computer.svg;" vertex="1" parent="LMzbSZaPqSbP6ukTdfSf-53">
          <mxGeometry width="45.6" height="61.800000000000004" as="geometry" />
        </mxCell>
        <mxCell id="LMzbSZaPqSbP6ukTdfSf-56" value="&lt;div style=&quot;&quot;&gt;&lt;font style=&quot;background-color: initial;&quot; color=&quot;#000000&quot;&gt;&lt;span style=&quot;background-color: rgb(255, 255, 255);&quot;&gt;red-host-4&lt;/span&gt;&lt;/font&gt;&lt;/div&gt;&lt;div style=&quot;&quot;&gt;&lt;font style=&quot;background-color: initial;&quot; color=&quot;#000000&quot;&gt;&lt;span style=&quot;background-color: rgb(255, 255, 255);&quot;&gt;Device Ty&lt;/span&gt;&lt;/font&gt;&lt;span style=&quot;background-color: rgb(255, 255, 255); color: rgb(0, 0, 0);&quot;&gt;pe:computer&lt;/span&gt;&lt;br&gt;&lt;/div&gt;&lt;div style=&quot;&quot;&gt;&lt;font color=&quot;#000000&quot;&gt;&lt;span style=&quot;background-color: rgb(255, 255, 255);&quot;&gt;OS: Debian 10 (buster)&lt;/span&gt;&lt;/font&gt;&lt;/div&gt;&lt;div style=&quot;&quot;&gt;&lt;font color=&quot;#000000&quot;&gt;&lt;span style=&quot;background-color: rgb(255, 255, 255);&quot;&gt;Interface Type: eth0&lt;/span&gt;&lt;/font&gt;&lt;/div&gt;&lt;div style=&quot;&quot;&gt;&lt;span style=&quot;background-color: rgb(255, 255, 255); color: rgb(0, 0, 0);&quot;&gt;Interface IP: 172.16.182.118&lt;/span&gt;&lt;br&gt;&lt;/div&gt;&lt;div style=&quot;&quot;&gt;&lt;font color=&quot;#000000&quot;&gt;&lt;span style=&quot;background-color: rgb(255, 255, 255);&quot;&gt;Subnet Mask CIDR:&lt;/span&gt;&lt;/font&gt;&lt;/div&gt;&lt;div style=&quot;&quot;&gt;&lt;span style=&quot;background-color: rgb(255, 255, 255); color: rgb(0, 0, 0);&quot;&gt;Routing Protocol:&lt;/span&gt;&lt;/div&gt;&lt;div style=&quot;&quot;&gt;&lt;font color=&quot;#000000&quot;&gt;&lt;span style=&quot;background-color: rgb(255, 255, 255);&quot;&gt;IP Network:&lt;/span&gt;&lt;/font&gt;&lt;span style=&quot;background-color: rgb(255, 255, 255); color: rgb(0, 0, 0);&quot;&gt;172.16.182.126/27&lt;/span&gt;&lt;/div&gt;&lt;div&gt;&lt;span style=&quot;background-color: rgb(255, 255, 255); color: rgb(0, 0, 0);&quot;&gt;Network Name:REDHOSTS&lt;/span&gt;&lt;br&gt;&lt;/div&gt;&lt;div style=&quot;&quot;&gt;&lt;font color=&quot;#000000&quot;&gt;&lt;span style=&quot;background-color: rgb(255, 255, 255);&quot;&gt;Ports:22&lt;/span&gt;&lt;/font&gt;&lt;/div&gt;" style="whiteSpace=wrap;html=1;fillColor=none;align=left;verticalAlign=top;" vertex="1" parent="LMzbSZaPqSbP6ukTdfSf-52">
          <mxGeometry y="64" width="210" height="156" as="geometry" />
        </mxCell>
        <mxCell id="LMzbSZaPqSbP6ukTdfSf-57" value="&lt;div style=&quot;font-size: 24px;&quot;&gt;&lt;font color=&quot;#ff0000&quot;&gt;T1&lt;/font&gt;&lt;/div&gt;" style="whiteSpace=wrap;html=1;fillColor=none;align=left;verticalAlign=top;fontStyle=1" vertex="1" parent="1">
          <mxGeometry x="-371" y="-1620" width="51.5" height="30" as="geometry" />
        </mxCell>
        <mxCell id="LMzbSZaPqSbP6ukTdfSf-58" value="&lt;div style=&quot;font-size: 24px;&quot;&gt;&lt;font color=&quot;#ff0000&quot;&gt;RED BOUNDARY ROUTER&lt;/font&gt;&lt;/div&gt;" style="whiteSpace=wrap;html=1;fillColor=none;align=left;verticalAlign=top;fontStyle=1" vertex="1" parent="1">
          <mxGeometry x="-130.5" y="-1059.5" width="340" height="30" as="geometry" />
        </mxCell>
        <mxCell id="LMzbSZaPqSbP6ukTdfSf-59" value="&lt;div style=&quot;font-size: 24px;&quot;&gt;&lt;font color=&quot;#ff0000&quot;&gt;T4&lt;/font&gt;&lt;/div&gt;" style="whiteSpace=wrap;html=1;fillColor=none;align=left;verticalAlign=top;fontStyle=1" vertex="1" parent="1">
          <mxGeometry x="-371" y="-470" width="41" height="30" as="geometry" />
        </mxCell>
        <mxCell id="LMzbSZaPqSbP6ukTdfSf-60" value="&lt;div style=&quot;font-size: 24px;&quot;&gt;&lt;font color=&quot;#ff0000&quot;&gt;T2&lt;/font&gt;&lt;/div&gt;" style="whiteSpace=wrap;html=1;fillColor=none;align=left;verticalAlign=top;fontStyle=1" vertex="1" parent="1">
          <mxGeometry x="-550" y="-470" width="41" height="30" as="geometry" />
        </mxCell>
        <mxCell id="LMzbSZaPqSbP6ukTdfSf-61" value="&lt;div style=&quot;font-size: 24px;&quot;&gt;&lt;font color=&quot;#ff0000&quot;&gt;T3&lt;/font&gt;&lt;/div&gt;" style="whiteSpace=wrap;html=1;fillColor=none;align=left;verticalAlign=top;fontStyle=1" vertex="1" parent="1">
          <mxGeometry x="640" y="-480" width="41" height="30" as="geometry" />
        </mxCell>
        <mxCell id="LMzbSZaPqSbP6ukTdfSf-62" value="&lt;div style=&quot;font-size: 24px;&quot;&gt;&lt;font color=&quot;#ff0000&quot;&gt;T5&lt;/font&gt;&lt;/div&gt;" style="whiteSpace=wrap;html=1;fillColor=none;align=left;verticalAlign=top;fontStyle=1" vertex="1" parent="1">
          <mxGeometry x="-711" y="-470" width="41" height="30" as="geometry" />
        </mxCell>
        <mxCell id="LMzbSZaPqSbP6ukTdfSf-63" value="&lt;div style=&quot;font-size: 24px;&quot;&gt;&lt;font color=&quot;#ff0000&quot;&gt;T6&lt;/font&gt;&lt;/div&gt;" style="whiteSpace=wrap;html=1;fillColor=none;align=left;verticalAlign=top;fontStyle=1" vertex="1" parent="1">
          <mxGeometry x="-890" y="-470" width="41" height="30" as="geometry" />
        </mxCell>
        <mxCell id="LMzbSZaPqSbP6ukTdfSf-64" value="&lt;div style=&quot;font-size: 24px;&quot;&gt;&lt;font color=&quot;#ff0000&quot;&gt;T7&lt;/font&gt;&lt;/div&gt;" style="whiteSpace=wrap;html=1;fillColor=none;align=left;verticalAlign=top;fontStyle=1" vertex="1" parent="1">
          <mxGeometry x="890" y="-480" width="41" height="30" as="geometry" />
        </mxCell>
        <mxCell id="LMzbSZaPqSbP6ukTdfSf-66" value="&lt;div style=&quot;font-size: 24px;&quot;&gt;&lt;font color=&quot;#ff0000&quot;&gt;Donovian Inner Boundary&lt;/font&gt;&lt;/div&gt;" style="whiteSpace=wrap;html=1;fillColor=none;align=left;verticalAlign=top;fontStyle=1" vertex="1" parent="1">
          <mxGeometry x="-130.5" y="-450" width="340" height="30" as="geometry" />
        </mxCell>
        <mxCell id="LMzbSZaPqSbP6ukTdfSf-67" value="" style="group" vertex="1" connectable="0" parent="1">
          <mxGeometry x="290" y="-411" width="190" height="201" as="geometry" />
        </mxCell>
        <mxCell id="LMzbSZaPqSbP6ukTdfSf-68" value="" style="group" vertex="1" connectable="0" parent="LMzbSZaPqSbP6ukTdfSf-67">
          <mxGeometry width="94" height="45" as="geometry" />
        </mxCell>
        <mxCell id="LMzbSZaPqSbP6ukTdfSf-69" value="" style="shape=image;verticalLabelPosition=bottom;labelBackgroundColor=#ffffff;verticalAlign=top;aspect=fixed;imageAspect=0;image=data:image/jpeg,/9j/4AAQSkZJRgABAQAAAQABAAD/2wCEAAkGBxISEBUQEhIVFRUWFRcVFRgWFxcYFRcXGBcXFhcYGBoYHiggGBolHhUVIjEjJSkrLi4uGB8zODUuNygtLisBCgoKDg0OGhAQGyslHyUtLS0tLysuLS4vLS8tLS0tLS0tLy0tLS0tLS0tLS0tLS0uLS0tLS0tLS0tLS0tLS0tLf/AABEIAJsBRQMBEQACEQEDEQH/xAAcAAACAwEBAQEAAAAAAAAAAAAAAQIFBgQDBwj/xABJEAABAwIBBwgFCAgFBQEAAAABAAIDBBEFBhIhMUFhcQcTMlGBkaGxIkJScsEUIzNigpKi0RU0Q2ODk7LCFiRTVHNE0tPh8cP/xAAaAQEAAwEBAQAAAAAAAAAAAAAAAQMEBQIG/8QAOBEAAgIAAwQHBwMEAwEBAAAAAAECAwQFESExMpESQVFhcaHRFCJCUoGx8BMV4SM0ksEzYvFyJP/aAAwDAQACEQMRAD8A+4oAQAgBACAEAIAQAgISytaM5xDR1kgDvKAztfl/hcOh9dASNFo3c66/VmxZxvusm8FXPyo0n7GCsn3sp3Nb96UtAV0cPbLdF8iqV9cd8kcEvKPVOPzWGEDrmqGN/CwOKvjl976tPqUyx1K69Tjly0xZ3RZRRceelPm0K6OV2Pe0VSzGHUmccmOYs6969jL7I6aPR2vLirVlS65eRU8yfVHzOaWeveLPxSq+xzUf9LLqxZXX1tnh5jZ1JHK6jlPSr693Gql8gVYsto7+ZW8fd3ciBwsHQ6aqd71TOf716WX0dnmzy8dd2+SPA5PU51iQ8ZpT5uXr2Gj5fuQ8Zd832IOyapTrivxc8+ZU+xUfKR7Xd8xD/DFH/oN8fzU+xUfKiPa7vmH/AIdptkZHB8g8nKPYaPlJ9su+YlHgsTdLTM33Z5h5PUewYf5fNk+23/N5I9fkTh0aqsbwqpv+5eXl1HZ5krH3dvkTZ8qb0MRrhxqHPHc+4Xl5ZS92p7WYWrfodTMZxNp9HEpeD4oH/wBgVbyqHVJntZlPrijphyvxdn/UU8v/ACU5b4xvHkqpZS+qXkWLM11x8zuh5R8Rb06Slk9yaSMn7zHKqWV3Lc0y1ZjU96Z3wcq1vp8OqG9fNOilH9TT4KiWBvj8JbHGUv4iyg5U8MP0kksJ/fQTN7yGlo7Ss8qpx4k19C+NkJbmmaHDMpaKo0QVcEh6mSsLhxaDcLwey1QAgBACAEAIAQAgBACAEAIAQAgBARe8AXJAA1k6AEBlsU5RcOhcWCfn5NPoUzXTu0bLxgtB4kL1GMpbIrU8yko73oUNVyg1sl/k1A2Nux9VKAduuKIOI2estcMvulvWniZZ46qO7b4FTVV+Jz/TYgYwfUpY2xD77s5/iFrhlcfilyM08xl8KKx+TtO4h0ofO4etPI+U/jJHgtcMFRH4eZmli7pdfI7qekjjFo42MHU1ob5LTGEY8K0M8pSlvZ6lejyIoCJQCKAiVJAigIlAIoCJQCUgRQEShBEoDlq6l7OjC+T3TGP6nAqqc5x3R1+qLYQi98tOZTT5SPabGiqL+7cd4WWzHShvrZphg4y3TQDF653QwqqcOvMl+EZWZ5t/08/4L/2z/t5fye8bsWf0MJmHvhw/qAXn92l8q5nr9sj8x7DDccd0cMt7z2jzeF5ea2dUUellsOtsP8PZQ2J+RRCwJ+kiJ4ACY6V5/dLuxfn1PX7dV2v8+hU4ZUU9XeOaBjZ2XD2ObZ1wbG19I06xrC3Ye2nFLSUV0vzcY767sO9YyfR/N5c0kUsFvk1VUwW1Bkriz7j7t8F6nltEt2q8DxDMLo79pe0WXGKw6HSU9S396wxP+9H6N/srJPKZfBLma4ZnH4o8jQYfysRjRWUk8H147TxcSWWePurFZg7q98eW0114uqe6XPYa/BMqKKsH+WqYpDa+aHWkHFjrOb2hZTQXCAEAIAQAgBACAEAICpx/KWkom51TOyO/Rbre7c1jbud2BAYquy+rJ9FFTCBn+tVXzzvbAw3GzS5w16ltqwFs9r2LvMduNrhsW19xnq6hdP6dfVS1NrGz3COAHdEyze+66FeAqhtlt8TDPG2z2R2eB3UsEbGhsbWtbsDAAPBboxilpExycm/ePQr0QIoCJUgRQEShAigEUBEoBFSQRKARQESgEUAipBEoBFCCJQHJX18ULc+V4YNl9Z4DWexV23QqWs3oWV1TsekVqVNDWV2IOMeG0zs29jPJoY3fc+iOvady5N+aSeytad7OnTlyW2x69x9oyKweakoo6eebnpQXOe8XIu5xdYF2kgXts1aguVKTk9XvOkkorRF6oJBAcOI4vBBbnZA0nZpLuNhpsrqsPbbwLUqsvrr4mYLLvJakxL/NUdRFFWt0tdnBoltqa8HSDsDrbjo1enRfU+l0WtDyrqbFpqmYLCsWcZHUtSwxVLDmua7RnW2jft3jSNC7WDxqt92WyX3ORisG6vejtj9i3K6BiIoDkqsPikN3MGcNThoeODhpCqsw9dnHFMtrvsr4WWuGZSYlS/Q1XPMH7OqHODgJBZ47SVzbcqT21vTxN1WZNbJrkbPBeVancQytidSPOjPJ5ynJ2WkaPR+0BbrXLuw1tXGvQ6VWIrt4Wb+nqGSND43Ne1wu1zSC0jrBGgqguPRACAEAIDwrq2OGN0sr2xsaLuc4gNA3koD5viuXNVVksw8cxB/uZWXlfvhidoaPrP69S24fAzt2vYjHfjIV7FtZSQYdDCXTvcXyHTJPM7OkPF7uiNwsF16sPVQtVzZy7LrLno+SKSsyy5yT5PQQuqpjoGaDmDfo0uGrqG9ZrsxjHZXtfkaacBKW2ez7lzhPJbVVhE2LVLg3WKeEjRts53RbtGgE/WXKtvstfvM6VdMK17qOyp5F4m3+SV9TAdlyHgdfQzCq4zlHhbR7lCMt61OCfITHYT8zWQVDRskGa4/eb/ctMcdfH4uZnlg6ZdRXT1GNU/6xhZkA9aEk6PsF/wAFohmc1xRT8vUoll0fhbOVmXsAdmTxTQu2hzb269/gtUMyqe9NGeWX2Lc0y1pMp6OTo1DLnY45p7nWWmGLplukiiWGtjviyzZIHC7SCOsG48FemnuKGmt4ypIIlAIoQRKkCKAiUAigEgIlSBFCDkxDEIoG58rwwbL6zwGs9iqtuhUtZvQsrqnY9Iop6GsrsRcY8Opjm3s6eQWY3tPog7tJ3Lk35nJ7K1p3nUpy6K22PXuNtk3yQQMeJ8QldVza80kiEbbe0+2nXYaeiuZKcpPWT1Z0IxUVokfSqeBsbQxjWsa0Wa1oAaB1ADQF5PR6ICvxTGYKcfOPAOxo0vPZ8Sr6cNZc/cX16im3EV1cTMVi+Wc0l2wjmm9euQ9upvZ3rsUZbXDbPa/I5V2YTnshsXmZh7iSSSSTrJNyeJOtdJJJaIwN6vVkCpIPKaBjrZzWutquAbW1W6l5cIy3o9KUluZIr0eRFARKECKAi4X0FNNQLCaqoon59FMYrm7oj6VO/jH6p3tsVzsRltdm2Gx+RvozCcNktq8z6dkfyiw1Tm01S0U1UdAaTeKXfE86yfZOkb9a4l1E6ZaTR2KroWrWLNwqS0EBX47jENHTvqZ3ZrGDZpc4nQ1rRtcTYAID5RXST4hKKmtFmNOdT0t7xxbA+T/Ult16Bc2XawmBUffs39hycTjHL3Ybu07l0znGexHJNlTMH1FRUPjBvzQcxreAs2w6r2Jtt2rBfgna9XN/nI2U4tVbOij6Bk7VUFJHzVPT8w3bmtuXb3OuXPO83WGWW2rc0zbHMK3v1RoIcWgdqlbwJsfFZ5YW6O+LL44mqW6SOxpvpGngs7Wm8vT1GgBAeNVSRyjNljZIDoIe1rh3OCAzOJcm2FT9KijaeuLOi8IyAe0IDN1XIrSgl1NVVMBOr0muaOrUGu7ypjJx3MhxT3orJ+TjGYf1fEI5gNkoIcdvrB/mtEcZfHdLnt+5RLCUy3x/0V1RDjtPfnsOErRthOcfwFx8Fqhmdi4kmZ5ZdB7m0cBy4Yx2ZUU88DupzfgbHwWmGZ1viTRnll01uaZ0S5a0QYXiQut6oa7OJ16iB36lc8woUddSlYG7XTQlQ4Zi+JsMkEfySnzSWvfcSSCxIzNpvo0gAbyubfmNk9kNi8zoU4CuG2W1+RcUs4kjZINT2tcODgD8V3oy6UU+040l0W0TKk8iUg5MQxGKBufK8MGy+s8BrPYqrboVLWb0LK6p2PSKKWhra/EXGPDac5gNnTyCzG9p9EHdpO5cm/M5PZWtO86dOXxW2zb3G3yc5IIGOE+ISOq5teaSRCDrtbpPtvsNy5kpOT1k9WdGMVFaJH0mngbG0MY1rGtFmtaA1oHUANAC8knogK/FMZgpx848X2NGl57NnEq+nDWXcK+vUU24iurif06zF4vllNJdsQ5pvWNLz2+r2d67FGW1w2z2vyOVdmE57IbF5mZe4kkkkk6ydJPErpJaLRGBvXayBUgRQgiUAigEUBEoBFCCJUgRQESgPCrpmSNLHtDmnYfMdR3rxZXGyPRktUe4TlB9KL0ZtuT/AC5khkjoK55exxDKeocfSv6sUx2k6g/bqK+cxmClQ9Vtj+bzu4XFq5aPYz6wsRsPk2VFf8txFwvenon83GNjqm3zjz15l8wdRzl08uo6T/UfVuOdj7+iv0117wXaOSCAEAIAQEo5HNN2ktO4keSiUVLY1qTGTjueh2w45UN1Sk+9Z3npWeWCol8PLYXxxd0fi5ndDlXIOkxjuF2n4rNLLK3wtrzNEcxmt6TO+HKyI9Jj28LOH5rNLLLFwtMvjmNb3po74Mcp3apWj3rt/qss8sHfHfF/Tb9jRHF0y+LnsO6OQOF2kEbiD5LM4uOxovTT3E1BIICE0TXjNe0OHU4AjuKAp2ZIYeJRM2ipw9puCImCx67AWvvtdAXd0B8gZT80Xw2sIpZYmj6jJHNZ2ZgaRuIX02Dl0qIv6cth89i49G6S/NoytJnEVIOKqwuCR2dJDG92jS5oJ0arnaNyqnRXPbKKZZC6yHC2aagyqnia2NrYsxos1oYGgAbAGWAHYsk8tpe7VfneaY5hat+jLany5b+0hI9xwPgbeazTyp/DLmaI5kvijyO9uWNLmk3eD7OYbncCNHis7y2/XTZzL/3CnTr5GdxbLCaS7Yvmm9Y0vPb6vZ3roUZbXDbPa/Iw3Y+c9kNi8zNOcSSSbk6STrPFdFLTYYH2kSpAkIIE7NqakiKkgRQCKAiUAigIlCBFSCJQCKARQHhUwNkYWOF2uFiF5nCM4uMtzPUJuElKO9H1XknyjdUUrqed+dPSuEbnE6XxkXikJOskAg72lfKX1OqxwfUfS02q2CmjE5KyZ9K2U65Hyyu958r3HzXcwSSoicbGPW6RbrWZgQAgBACASARQESpBEoBFCDrw7D5ZDeMEDa++a0fa/JUXX11r3+W8uppsm/c57jXYe6OBvztWHu6nPFhwF7rjXKdz9yvReB1qnGpe/Zq/EnLlJSt/aX91rj42svMcBe/h80epY2ldfkzjlywhHRZI77oHmro5Xa97SKZZjWtyZxS5Zu9WEfacT4AK+OVLrl5FLzJ9UfM4psrqg6sxvBtz4kq6OW0rfq/qVPMLXu0RRVEpe90jtLnnOcdVzYC+jcAttdca49GK2GSyyVkulLeea9ngiVIEUIIlAVuK43BTkCV+aSLgZrjcatgsqLsTXU9Jsvqw9lu2KKk5ZwOdmxRzSu2BrB+d/BZZZpStybNEcute9pHRDX4hKbQYVUuB1Oc17W9+bbxVMs2+WPmXRyztl5HbFk/j8p9Gjiiadr3x6OzPJ/CqJZpa9ySLY5dUt7Z2w8m2NSH5ysp4gfYzi7sswf1KiWOvfxF0cFSvhMx+g4HSZv6TfUgXDgDzYNtxeXW7AteGq/V222a92pmvt/S2V16d+he01KyJuZGwNaNgFv8A6uzCuMFpFaI5U5ym9ZPVnoV7PAigIlAIoCJQCKEESpAkBEoBFSCJQFFiuOTUk5MDs0yMZn78wvzf6ivns3WlqfcdvLHrW13mg5Oa28Bp3aHNJkZvje4m/Y7OB4ha8A2q1B9mq8H/ACZcak5uS8H4o163mMEAIAQAgEUBEoCJUgRQgRQCc46rpoNSKAiVJBX4tjMFMLzSBvU3W48GjSqbb66l77LaqJ2P3UVOHuxPEzagg5mHbPNoHYbHuaHFcm/Mpy2V7F5nUpy+Mds9v2LGoySyhgHo/J6ofVcAfxc2qo5jfHe0/EslgKX1aFZUYxX05tVYZOwDW5ocW9+aW/iWmGa/NHkzPLLflkQpst6R2hxfGfrsP9t1qhmNEt+q/O4zywFy3aMvaWqZK0PjcHNOojUtsJxmtYvYZJwcHpI9CvR4IlAaTIigp5ZJOdhike1rSwvY1xaLkOAJGgaWrkZrHZGXijqZbLbKPgbyGFrBZjWtHU0ADwXGOseiAEAIDDYpyT4VMS7mHROO2KRw8HXb4IDP1PIyWaaTEpo/qyNzx3tc23cVZC2cOFtHiVUJcSTKqpyDx2G5ZJTVIGoXzXHd6QYAftdq1QzG+PXr4maWBpl1aeBU1RxOn/WMMmttdGC5o6z6IcPFaYZtL4o8jPLLF8MuZxR5W09y14kjcNYe38rnvC1QzSl79UZ5Zdat2jLCnxenf0ZmHdex7jpWqGKpnukjNLD2x3xZ13V+8pYipIEUBFAIoCJUgRQGDyhqM+YyerbNYesNJBPC5K+ZzGfTs6fVuX0/k7+Bh0a+j1739f4NJhbHiGCaI5ssYu2+pwJOcx31T4aCu3Th3ZhK5Q2SS2ej7mci29V4myMuFvb6rvRucExmOpYS30Xt0SRu6TD1HrHUdqiu1T1W5reuwmytw2709z7SxVpWCAEAigEUAipBEoCJQgRQCKArsWxqCmbeaQNOxut54NGn4Km2+upe+y2qmdj91FTh7sTxQ2oYOYhOgzy6Bbcbf0hx3hcm7Mpy2Q2LzOnTgIR2z2/Y3GS/JLSU7ueqnGsn1kyfRg9YZpzjvcTq1Bc5tt6s3pJLRH0JrQAAAABoAGgAbgoJJICtxPHIYND3Xd7DdLu3q7Vpowlt3CtnazPdia6t729hgcoa9lWfSp4Q0G4vGxz9Gq7yL91l2KMvqr2y2vy5HLux1k9kdiK5bzEIoQRKAusj61sVVd7g1rmOaSdAGjO0/dWLH1OynSK1eq9P9mzBWKFusns0ZdYtlq0XbTtzj7b9Dexus9tljoytvba9O5Gq7MUtla+rKSHK6rbre125zBb8NitksuofVp4P/wBMscdeuvXxX/hZU+Xjh9JA072OI8CD5rNPKY/DLmi+OZv4o8i0pstaV3Sz2cW3He0lZp5Zct2j/O80xzGl79UWtNjdNJ0J4yerOAPcbFZZ4a6HFFmiGIqlukjvBVBcNACA5K7DIJhaaGOQfXY13mEBmMS5LsJm0mkEZ64nPZ+EHN8EBm6vkThH6rXVEJ2Z2a8cPQzF7jZKPC2jzKEZb0mVNVyaYzEfmaqCdvU+7XHvb/ctMMffH4tfEzSwVMurkU1VQYxACZsNe8DbF6Q/AXrVDNpriin5epnllkHwya8/Qhh9e6W+dBJHbQc8Aado06fBdTD4h3LXoteJzr6P0np0kztK0mciVIKbEKwykwRHdK8eqNrWn2j4LHZN3N1Vv/6fZ3Lv+xphBVL9Sf0Xb3vu+5n8p2Bro2gWAZYDddcvNoqMoRW5I6WVycozb36mnwL9Wi934ld/L/7avwOHjv7ifie01Mc8TRPMcrRYPbtHsvB0ObuK9YjCxtfST0kuv/T7URRiXWui1rHs9OxlzhmVIuIqoCGTUH/sZPdceidxWB2SrfRuWj7ep/nYzaq42LpVPXu61+dppAVeUggEgEUB4VVSyNue9wa0aydQ4nYN5USkorWW4mMXJ6IjT1UcgvG9rx1tcD5JGcZcL1EoyjvWh6FejyV2L41BTNvNIGnY0aXng0ae3UqbcRXUveZbVTOx+6iow52KYobUMHMQHQZ5dHGxt4NBO8Lk35lOWyGxeZ06cBCO2e1+RucmOSWjp3CaqJrJ9ZdL9Hfcwk532yeAXObberN6SS0R9Ba0AAAWA0ADUOCgkaArcTxuGDQ513ey3S7t6u1aaMJbbwrZ2sz3Ymure9vYZHFMqJpbtZ823qb0jxd+Vl2KMvqr2y2vv3cjl3Y6yeyOxfnWUJK3GIiVIEUIIlARKARUgigEUBEoBFARKkg9YKqSP6OR7Pdc5vkV4lXGXEk/FHqM5R4W14FpTZWVjP22cOp7Wu8bX8VmngMPL4dPA0Rxt8fi18S1puUCUfSQsdvaS0+N1lnlMHwya8dvoaY5nP4ootabLymd02yM7A4fhN/BZp5XcuFpmiOZVPemi2pco6STo1Edzscc09zrLLPB3w3xf3+xojiqZbpIs2OBFwQR1jSFnaa3mhPXcU2NZUU9NdrnZ7x6jNLu06m9q1UYK27alou1mW7GVVbG9X2IwWNZY1M92tPNM9lh9I+8/X3WC7VGX1VbXtff6HJux1tmxbF3epnSVuMZz1VUyNuc9waN/wAOteLLIVrWT0R7hXKb0itSplqZZ9DbxRdeqR43ewPFZ/6t+73Y+b9PuX/06d/vS8l6ntBC1jQxgsBqC1V1xrioxWiM05ynLpSe0zeVvTZ7p81w8344+B2cq4JeJpsB/Vovd+JXewH9tDwOJjv7ifiWC1mUjJGHAtcAQdYIuColFSWklqiYycXqnozxpefp/wBWls3/AEpLui+z6zOzQufPAuG2mWnc9q9Ubo4xS2XLXvWx+jLilyujHo1MboD7R9KI8HjV2gLPK2Vey6Lj371z9S9VKzbVLXu3PkX8E7JGh7HNe06i0gjvCujJSWqepU4uL0ZIqSCD2gggi4Ogg6iOopvBU0nJxh1Q+2fNTS3u0xuBYSToFnC7T1AELi4zBOH9Svd9v4OvhcWp+5Pf9zpn5KcQjv8AJsVJadGbKHiw3G7hfgAsccTbHdJmqWHqlvii+yX5J6OnPPVN6yfWXS6Y77mG+d9q6pbberLUkloj6A0AAACwGgAagFBI0BWYpjsEBzHvBktcRtsXkabG2waDpPUtFGGnc9IlF2IhUveMnimU00t2tPNt6mn0jxd+Vl2aMvrr2y2vv9DlXY6yexbEURW4xCKAipAigIlCCJQCKAiVIEUBEoBFARKARUkCKAiUAigIlAIoQOKVzOg5zb+ySPJQ4qW9akpuO7Z4HkvRBy1mIRRdN4B6tbjwaNJVVl9dfE/XkW10znwor34jNJ9FHzbfbk19jB8VV07rOCPRXbLfy9T30aq+N6vsXr6HnDQgOz3kyP8Aafpt7o1NHBWV4WMX0pe9Ltf+uw8TxEpLox2LsX++06VpKBFQSZjK3ps90+a4Gb8cfA7WV8EvE02Afq0Xu/Eru5f/AG0PA4uO/uJ+JYLYZQQAgEUBx/o1gdnxF0L/AGoiWX4gaD2hY7MBTJ6xXRfbHZ/BrhjbYrR+8ux7f5O2HFa2P1o5x9cc2/7zbtPcqHhsRDhkpLv2P0LliKJcScfDavU7YsrYx9PDNCdpzecZ96O/kqnbKH/JCS+mq5rUsVUZf8c0/J8mWdFjFPN9FNG49QcM77p0r1C6ufDJHmdM4cSZscLyoLGZkzXPt0XC17dTrnxWDEZd05dKtpfnUbaMf0Y6T2nU7LCPZE/vaFSsrn8yLv3KHys8nZZDZCe1/wD6XpZU+uXkeXmS6o+Z5OyzdshHa8/9q9rKl1y8v5PDzJ/L5/wYjLXCYMSlE8rXMkDAy7HaM1pJAs4W9Yr0srr65PyIeZT+VFdRZOc10aqp4GQEdxbZaK8Gobpy5meeKc98Y8i3iYWixc5292bfwAWuK069TO3r1EipPIipBEoBFCCJQESpAkBEoBFARKARUkESgEUAigIlARe4AXJsN6N6bwtpXTY5TtNucDj1Mu8/hus7xdSeier7tv2L1hrWtWtF37Pucz8Wld9FAR9aUhg+6LuT9S6fBDTvls8t4/Tqjxz/AMdvnuPF8Mz/AKSYgezEMwfe6RXr2ayf/JP6R2ee88+0Vx4IfV7fLcTpqKOPoMAO063HiTpKurorq4Fp9+ZVZfZZxM9laViUASgkRUEmXyt6bPdPmuDm/HHwO1lfBLxNPgA/y0Y6m2PEE3Xdy9//AJoeBxsd/cT8SwWwyAgBACAEAIAQHNUUMUnTja7eQL9+tU2YeqzjimW13218MmiEdCWfRTTR7myEt+664Wd5fWuByj4P11NCx03xpPxXpodDK2tZqnjk/wCSOx72EeSreEvjwzT8V6eh7WJpfFBrwfqe7cfqm9KmY/8A45beD2/FeXDEx3wT8H6pHpTw8t0mvFeh6jKlo0Pp6hu8Ma8fhcT4Lw7Zx4q5ctfselXB8M489PuejcqqT1pHM9+ORviW2Xn2qtcWq8U1/o9ezWPdo/Bo6I8cpXaqiL77R5le1iaXukuZ5dFq3xfI6o6qN3Rew8HA+RVinF7mitxkt6J3Xo8iKkCKEESgIlAIqQRQCIQEHOA1kKNRoc8tdE3pSxji9o+K8u2tb5Lme1XN7k+RySY9Sj9uw8DnHubdVPF0r4l9z2sNc/hZ4nKGH1RK/wB2J/xAT2qL4VJ+EWT7PJcTS8WjzdjTz0KWQ++WM+JU/qWvhrf1aX+zz+nUuKxfTVkHVlW7UyFnFznnwAC9dDFPqivq36EdPDr5nyXqeToZ3dOpcN0bWs8dJUrC2Pjsf0SXqR7TWuGtfVt+h5/omIm7w6Q9cjnO8CbL0sDTvktfFtnl4y3qengtDqjja0WaABuAHktMYRitIrQolKUnrJ6kipIEVAEVBIihIioJEVAIlQSZvKiFzpGZoJs3TbeT+S4Obv8AqR8DtZZwS8TdYxhxpK6ppHCwbI6aLYDDK4vbbgS5p3tXRya9SqdfXH7MwZtS42/qdT+6PFdg5QIAQAgBACAEAIAQAgBACARQHk+mYdbGni0FeJVVy3xXI9q2a3N8zwdhNOdcLPugeSpeCw73wXItWLvXxvmQ/Q0GxhHB7x5FeP2/D/L5v1Pft1/zeS9Btwpg1OlHCWT81H7fSt2v+T9SfbruvTkvQZw399Ufzn/mo/b6/ml/kx7dZ8seSAYcf9xU/wA0/EKP2+Hzz/yJ9un8seQfo93+5qP5n/pP2+Pzz5/wPbpfJHl/Iv0b+/qP5zvgn7fX80v8h7dP5Y8hjDBtlnPGZ/5r1+31dbl/kyPbrOyP+KI/oeLbnnjJIfin7dR1p836j2+7tXJegfoan/0geJcfMr0sBhvkXmzy8biPmZ6sw2FuqKMfZCsjhaI7oLkjw8Tc98nzPdsTRqaBwACtUIrcityk97JFSQRUASgkSgkRUEiQCUEiKgESoJEhIlBIioAlBJuOSbJZlWyoq52AxueyKG4GkRZ+e4X2Fz7fYK+Xx9ytubW5bD6LBVOupJ73tNnyj5HmuibNBZtVBcxE6BI09KF+52w7DY9apw98qLFOPUXX0xug4SPj0E1y5rmlkjDmyRuFnscNYcF9jhsVDEQ6UPquw+UxGHnRLoy/9PZaCgEAIAQAgBACAEAIAQAgBACAEAIAQAgBACAEAIAQAgEUAioJEVBIkJEoAioJEVBIlAEhJEqCRKCRKAJQSJCTtybwCXEqj5NDdsbT/mJhqjbta07ZDqA2a9i5GPxygnXB7evu/k6eCwbk1ZPd1d5+hcMw+OnhZTwtDY42hjGjYB5neuCdo6kBkMtsg4a8idjuYqmizZmgHOFuhK3126t4toOxW03zpn04PRlVtMLY9Ga1R8ixWlno5eYrY+acehILmCXex/X9U2IX02EzSu73Z+7LyZ8/istsq2w2rzEuoc0EAIAQAgBACAEAIAQAgBACAEAIAQAgBACAEAIAQCQkRUARUEiKgkRQCKgkiVBIlAEVBIihIlBIlAPKeZrBnOcGjrK8TsjBdKT0R7hCU3pFas02SeQVViFpJM+lpT6xFqiUfu2u6DT7ThwC4WKzNy92rYu3r/g7OGy9R96za+zqPtWCYPBRwNp6eMRxt1AbTtLjrc47SdK5J0zvQAgBAeFdRRzRuimjbIxws5r2hzTxBQHzXHeSgtJfh0wjGvmJs50XBj9Lo+GkLdhswuo2J6rsf5sMeIwNV21rR9qMFikE9I7NraeSDYHkZ0DvdlbdvYbFd3D5tRZsn7r793M41+V3Q2x95efIUcgcM5pBB1EG47wunGSktYvVHOlFxejWjJKSAQAgBACAEAIAQAgBACAEAIAQAgBACAEAkAISIqCSKgCUEiUARQkSgkRUEiKgCUEnPUVTGaHOAJ1DW48ANJVNt9dXHJItrpss4FqaDA8i8RrLFkPyaI/tKkFriPqRdI7s6wK5V+bdVS+r9Dp05Z12P6I+m5K8m9HRkSvBqagaedlAOaf3bOjH571x7bp2vpTep1K6oVrSC0NmqywEAIAQAgBACAjIwOBa4Ag6CCLgjeCgMZjPJhh85L42OpZDpz6c5gPFmlh7lbVdZU9YNorsqhYtJpMx+JcmWIxaYJoKpunQ+8Eu4C2cw8TZdOrObo7JpS8vzkc63KapcDa8/wA5mXr6eopyRU0lRDbW4xl8f8yPObs610qs4w8uLVeP8HPsyq+PDo/zvOenrY5OhI13Ai/cuhXfVZwST+pinTZXxRaOhWlQIAQAgBACAEAIAQAgBACAEAIAQCKASgkRQkSgCUEiUEiKgkiSoZJzGvjzsxrs92xrAXu7mAlZbMbRXvkvpt+xorwl090X9dn3LrDclsTqbc1RPY0+vUEQtGvTmn0zq2NWC3N4Lgjr47DbXlc3xvTwNZhXJDI6xraw746ZuaOHOv8ASI+yFzrcxvs2a6Lu/NTfXgKYdWvib3AMkKGi009MxjtryM6U8Xuu7xWFtt6s2JJbEXigkEAIAQAgBACAEAIAQAgBACApMXyRoKrTPSQvPtZgD/vts7xQGYq+SOiOmCaqg3Nlz2d0od5rTXjL6+GbM88LTPiiijq+SquYPma2CXqE0Toz2ujc7vzexbIZxiI79H9PQyzyqiW7VfneVNVkRi0f/SxS74Z2+UoatcM8+aHJ/wAGWWT/ACz5oqqigrIzaSgq27xCZG98ectMM5w736r6ehnllN63aMr5MSjboeXR/wDIx7P6gFojmWFl8fPVFEsvxEfh+xKPEIXapYz9pv5q+OJplumuaKZYa6O+L5Hu2QHUQeBBVylF7mVuMlvRNSeQQAgBACAEAIAQCJRko8n1DBre0cXAKuVkFva5nuNc3uT5HM/FYBrlZ2OBPgqJYzDx3zXMujhL3ug+R6wzOk+ihqJf+OCV3k1USzTDL4tfoy+OXYh/D5osqbJ/Epfo8On/AIhjiH43X8FmlnNS4Yt8kXxym34pItqfk3xZ+sUsI258j3uHYxlj3hZZ51N8MEvHb6GiOUwXFJ/b1Lqj5IHnTUYg63swRNjt9p5cT3BZZ5niJfFp4GqGX0R6tfEvqDkqwyOxfE+cjbPI947Wghvgsc7Zz4pN+LNUK4Q4UkazD8MggbmwQxxN6o2NaPwhVns60AIAQAgBACAEAIAQAgBACAEAIAQAgBACAEAIAQEXsB0EA8RdAVtTk5RSX5ykp33150MZPeQgKyo5PMKeLGggHuszD3ssgKfEeTPCmC7aZzeE9QP/ANF7Vk11vmeHCL6kZfE8j6ONpLI5B/HqP/IvaxNy3TfNnl4ep74rkjC19MGEhrpB/FkPm5evbMQvjfNnn2Wl/AuSKGtrJG9GR4+04+ZT2/Er42R7HQ/gRXwYvOTYyv71LzDE/Ox7Dh/kRd0cjndJ7z9t48int2IfxvmPZKPkXI0+A4RFK6z+cP8AGmHk9R7Xe/jlzZPs1PyLkjbUWQWHvPpQvP8AHqP/ACLw77Xvk+bPaprW6K5I0dNyX4QAD8jDj9eWZ47nvIXhzk97PailuRaQZD4Yw3bQUwI64mHzC8klpS4VTxfRwRM9yNrfIIDsQAgBACAEAIAQAgBACAEAIAQAgP/Z;" vertex="1" parent="LMzbSZaPqSbP6ukTdfSf-68">
          <mxGeometry width="94" height="45" as="geometry" />
        </mxCell>
        <mxCell id="LMzbSZaPqSbP6ukTdfSf-70" value="&lt;b&gt;RED-POP2&lt;/b&gt;" style="text;html=1;strokeColor=none;fillColor=none;align=left;verticalAlign=middle;whiteSpace=wrap;rounded=0;fontColor=#FFFFFF;" vertex="1" parent="LMzbSZaPqSbP6ukTdfSf-68">
          <mxGeometry x="17" y="25" width="70" height="20" as="geometry" />
        </mxCell>
        <mxCell id="LMzbSZaPqSbP6ukTdfSf-71" value="&lt;div style=&quot;&quot;&gt;&lt;font style=&quot;background-color: initial;&quot; color=&quot;#000000&quot;&gt;&lt;span style=&quot;background-color: rgb(255, 255, 255);&quot;&gt;VyOS RED-POP2&lt;/span&gt;&lt;/font&gt;&lt;/div&gt;&lt;div style=&quot;&quot;&gt;&lt;font style=&quot;background-color: initial;&quot; color=&quot;#000000&quot;&gt;&lt;span style=&quot;background-color: rgb(255, 255, 255);&quot;&gt;Device Ty&lt;/span&gt;&lt;/font&gt;&lt;span style=&quot;background-color: rgb(255, 255, 255); color: rgb(0, 0, 0);&quot;&gt;pe:router&lt;/span&gt;&lt;br&gt;&lt;/div&gt;&lt;div style=&quot;&quot;&gt;&lt;font color=&quot;#000000&quot;&gt;&lt;span style=&quot;background-color: rgb(255, 255, 255);&quot;&gt;OS: Linux VyOS&lt;/span&gt;&lt;/font&gt;&lt;/div&gt;&lt;div style=&quot;&quot;&gt;&lt;font color=&quot;#000000&quot;&gt;&lt;span style=&quot;background-color: rgb(255, 255, 255);&quot;&gt;Interface Type: eth0 - REDINTDMZ&lt;/span&gt;&lt;/font&gt;&lt;/div&gt;&lt;div style=&quot;&quot;&gt;&lt;span style=&quot;background-color: rgb(255, 255, 255); color: rgb(0, 0, 0);&quot;&gt;Interface IP: 172.16.140.5/29&lt;/span&gt;&lt;br&gt;&lt;/div&gt;&lt;div style=&quot;&quot;&gt;&lt;font color=&quot;#000000&quot;&gt;&lt;span style=&quot;background-color: rgb(255, 255, 255);&quot;&gt;Interface: eth1 - REDINTDMZ2&lt;/span&gt;&lt;/font&gt;&lt;/div&gt;&lt;div style=&quot;&quot;&gt;&lt;font color=&quot;#000000&quot;&gt;&lt;span style=&quot;background-color: rgb(255, 255, 255);&quot;&gt;Interface IP: 172.16.140.62/27&lt;/span&gt;&lt;/font&gt;&lt;/div&gt;&lt;div style=&quot;&quot;&gt;&lt;div&gt;&lt;span style=&quot;background-color: rgb(255, 255, 255); color: rgb(0, 0, 0);&quot;&gt;Routing Protocol:OSPF&lt;/span&gt;&lt;br&gt;&lt;/div&gt;&lt;/div&gt;&lt;div style=&quot;&quot;&gt;&lt;font color=&quot;#000000&quot;&gt;&lt;span style=&quot;background-color: rgb(255, 255, 255);&quot;&gt;IP Network:&lt;/span&gt;&lt;/font&gt;&lt;/div&gt;&lt;div style=&quot;&quot;&gt;&lt;font color=&quot;#000000&quot;&gt;&lt;span style=&quot;background-color: rgb(255, 255, 255);&quot;&gt;Network Name:&lt;/span&gt;&lt;/font&gt;&lt;/div&gt;&lt;div style=&quot;&quot;&gt;&lt;font color=&quot;#000000&quot;&gt;&lt;span style=&quot;background-color: rgb(255, 255, 255);&quot;&gt;Ports:22&amp;nbsp;&lt;/span&gt;&lt;/font&gt;&lt;/div&gt;" style="whiteSpace=wrap;html=1;fillColor=none;align=left;verticalAlign=top;" vertex="1" parent="LMzbSZaPqSbP6ukTdfSf-67">
          <mxGeometry y="45" width="190" height="156" as="geometry" />
        </mxCell>
        <mxCell id="LMzbSZaPqSbP6ukTdfSf-72" value="" style="group" vertex="1" connectable="0" parent="1">
          <mxGeometry x="880" y="-440" width="230" height="220" as="geometry" />
        </mxCell>
        <object label="" placeholders="1" deviceType="" Hostname="" InterfaceType="" InterfaceIP="" SubnetMaskCIDR="" RoutingProtocol="" IPnetwork="" NetworkName="" OpenPorts="" OStype="" OSVersion="" id="LMzbSZaPqSbP6ukTdfSf-73">
          <mxCell style="group" vertex="1" connectable="0" parent="LMzbSZaPqSbP6ukTdfSf-72">
            <mxGeometry x="10" width="220" height="142" as="geometry" />
          </mxCell>
        </object>
        <mxCell id="LMzbSZaPqSbP6ukTdfSf-74" value="Hostname:&lt;br&gt;IP/CIDR:&amp;nbsp;&lt;br&gt;Iface:&lt;br&gt;TCP Ports:&lt;br&gt;UDP Ports" style="text;html=1;strokeColor=none;fillColor=none;align=left;verticalAlign=middle;whiteSpace=wrap;rounded=0;" vertex="1" parent="LMzbSZaPqSbP6ukTdfSf-73">
          <mxGeometry y="62" width="80" height="80" as="geometry" />
        </mxCell>
        <mxCell id="LMzbSZaPqSbP6ukTdfSf-75" value="" style="points=[];aspect=fixed;html=1;align=center;shadow=0;dashed=0;image;image=img/lib/allied_telesis/computer_and_terminals/Personal_Computer.svg;" vertex="1" parent="LMzbSZaPqSbP6ukTdfSf-73">
          <mxGeometry width="45.6" height="61.800000000000004" as="geometry" />
        </mxCell>
        <mxCell id="LMzbSZaPqSbP6ukTdfSf-76" value="&lt;div style=&quot;&quot;&gt;&lt;font color=&quot;#000000&quot; style=&quot;background-color: initial;&quot;&gt;&lt;span style=&quot;background-color: rgb(255, 255, 255);&quot;&gt;red-int-dmz2-host-2&lt;/span&gt;&lt;/font&gt;&lt;/div&gt;&lt;div style=&quot;&quot;&gt;&lt;font color=&quot;#000000&quot; style=&quot;background-color: initial;&quot;&gt;&lt;span style=&quot;background-color: rgb(255, 255, 255);&quot;&gt;fa163e37af48&lt;/span&gt;&lt;/font&gt;&lt;/div&gt;&lt;div style=&quot;&quot;&gt;&lt;font color=&quot;#000000&quot; style=&quot;background-color: initial;&quot;&gt;&lt;span style=&quot;background-color: rgb(255, 255, 255);&quot;&gt;Device Ty&lt;/span&gt;&lt;/font&gt;&lt;span style=&quot;background-color: rgb(255, 255, 255); color: rgb(0, 0, 0);&quot;&gt;pe:computer&lt;/span&gt;&lt;br&gt;&lt;/div&gt;&lt;div style=&quot;&quot;&gt;&lt;font color=&quot;#000000&quot;&gt;&lt;span style=&quot;background-color: rgb(255, 255, 255);&quot;&gt;OS: Debian 10 (buster)&lt;/span&gt;&lt;/font&gt;&lt;/div&gt;&lt;div style=&quot;&quot;&gt;&lt;font color=&quot;#000000&quot;&gt;&lt;span style=&quot;background-color: rgb(255, 255, 255);&quot;&gt;Interface Type: eth0&lt;/span&gt;&lt;/font&gt;&lt;/div&gt;&lt;div style=&quot;&quot;&gt;&lt;span style=&quot;background-color: rgb(255, 255, 255); color: rgb(0, 0, 0);&quot;&gt;Interface IP: 172.16.140.35&lt;/span&gt;&lt;br&gt;&lt;/div&gt;&lt;div style=&quot;&quot;&gt;&lt;font color=&quot;#000000&quot;&gt;&lt;span style=&quot;background-color: rgb(255, 255, 255);&quot;&gt;Subnet Mask CIDR:27&lt;/span&gt;&lt;/font&gt;&lt;/div&gt;&lt;div style=&quot;&quot;&gt;&lt;span style=&quot;background-color: rgb(255, 255, 255); color: rgb(0, 0, 0);&quot;&gt;Routing Protocol:&lt;/span&gt;&lt;/div&gt;&lt;div style=&quot;&quot;&gt;&lt;font color=&quot;#000000&quot;&gt;&lt;span style=&quot;background-color: rgb(255, 255, 255);&quot;&gt;IP Network:172.16.140.62/27&lt;/span&gt;&lt;/font&gt;&lt;/div&gt;&lt;div&gt;&lt;span style=&quot;background-color: rgb(255, 255, 255); color: rgb(0, 0, 0);&quot;&gt;Network Name:REDINTDMZ2&lt;/span&gt;&lt;br&gt;&lt;/div&gt;&lt;div style=&quot;&quot;&gt;&lt;font color=&quot;#000000&quot;&gt;&lt;span style=&quot;background-color: rgb(255, 255, 255);&quot;&gt;Ports:22&lt;/span&gt;&lt;/font&gt;&lt;/div&gt;" style="whiteSpace=wrap;html=1;fillColor=none;align=left;verticalAlign=top;" vertex="1" parent="LMzbSZaPqSbP6ukTdfSf-72">
          <mxGeometry y="64" width="210" height="156" as="geometry" />
        </mxCell>
        <mxCell id="LMzbSZaPqSbP6ukTdfSf-77" value="" style="group" vertex="1" connectable="0" parent="1">
          <mxGeometry x="630" y="-440" width="230" height="220" as="geometry" />
        </mxCell>
        <object label="" placeholders="1" deviceType="" Hostname="" InterfaceType="" InterfaceIP="" SubnetMaskCIDR="" RoutingProtocol="" IPnetwork="" NetworkName="" OpenPorts="" OStype="" OSVersion="" id="LMzbSZaPqSbP6ukTdfSf-78">
          <mxCell style="group" vertex="1" connectable="0" parent="LMzbSZaPqSbP6ukTdfSf-77">
            <mxGeometry x="10" width="220" height="142" as="geometry" />
          </mxCell>
        </object>
        <mxCell id="LMzbSZaPqSbP6ukTdfSf-79" value="Hostname:&lt;br&gt;IP/CIDR:&amp;nbsp;&lt;br&gt;Iface:&lt;br&gt;TCP Ports:&lt;br&gt;UDP Ports" style="text;html=1;strokeColor=none;fillColor=none;align=left;verticalAlign=middle;whiteSpace=wrap;rounded=0;" vertex="1" parent="LMzbSZaPqSbP6ukTdfSf-78">
          <mxGeometry y="62" width="80" height="80" as="geometry" />
        </mxCell>
        <mxCell id="LMzbSZaPqSbP6ukTdfSf-82" value="" style="image;aspect=fixed;perimeter=ellipsePerimeter;html=1;align=center;shadow=0;dashed=0;spacingTop=3;image=img/lib/active_directory/web_server.svg;" vertex="1" parent="LMzbSZaPqSbP6ukTdfSf-78">
          <mxGeometry y="4" width="48" height="60" as="geometry" />
        </mxCell>
        <mxCell id="LMzbSZaPqSbP6ukTdfSf-81" value="&lt;div style=&quot;&quot;&gt;&lt;font color=&quot;#000000&quot; style=&quot;background-color: initial;&quot;&gt;&lt;span style=&quot;background-color: rgb(255, 255, 255);&quot;&gt;red-int-dmz2-host-1?&lt;/span&gt;&lt;/font&gt;&lt;/div&gt;&lt;div style=&quot;&quot;&gt;&lt;br&gt;&lt;/div&gt;&lt;div style=&quot;&quot;&gt;&lt;font color=&quot;#000000&quot; style=&quot;background-color: initial;&quot;&gt;&lt;span style=&quot;background-color: rgb(255, 255, 255);&quot;&gt;Device Ty&lt;/span&gt;&lt;/font&gt;&lt;span style=&quot;background-color: rgb(255, 255, 255); color: rgb(0, 0, 0);&quot;&gt;pe:webserver&lt;/span&gt;&lt;br&gt;&lt;/div&gt;&lt;div style=&quot;&quot;&gt;&lt;font color=&quot;#000000&quot;&gt;&lt;span style=&quot;background-color: rgb(255, 255, 255);&quot;&gt;OS: Linux?&lt;/span&gt;&lt;/font&gt;&lt;/div&gt;&lt;div style=&quot;&quot;&gt;&lt;font color=&quot;#000000&quot;&gt;&lt;span style=&quot;background-color: rgb(255, 255, 255);&quot;&gt;Interface Type: eth0&lt;/span&gt;&lt;/font&gt;&lt;/div&gt;&lt;div style=&quot;&quot;&gt;&lt;span style=&quot;background-color: rgb(255, 255, 255); color: rgb(0, 0, 0);&quot;&gt;Interface IP: 172.16.140.33&lt;/span&gt;&lt;br&gt;&lt;/div&gt;&lt;div style=&quot;&quot;&gt;&lt;font color=&quot;#000000&quot;&gt;&lt;span style=&quot;background-color: rgb(255, 255, 255);&quot;&gt;Subnet Mask CIDR:27&lt;/span&gt;&lt;/font&gt;&lt;/div&gt;&lt;div style=&quot;&quot;&gt;&lt;span style=&quot;background-color: rgb(255, 255, 255); color: rgb(0, 0, 0);&quot;&gt;Routing Protocol:&lt;/span&gt;&lt;/div&gt;&lt;div style=&quot;&quot;&gt;&lt;font color=&quot;#000000&quot;&gt;&lt;span style=&quot;background-color: rgb(255, 255, 255);&quot;&gt;IP Network:&lt;/span&gt;&lt;/font&gt;&lt;span style=&quot;background-color: rgb(255, 255, 255); color: rgb(0, 0, 0);&quot;&gt;172.16.140.62/27&lt;/span&gt;&lt;/div&gt;&lt;div&gt;&lt;span style=&quot;background-color: rgb(255, 255, 255); color: rgb(0, 0, 0);&quot;&gt;Network Name:REDINTDMZ2&lt;/span&gt;&lt;br&gt;&lt;/div&gt;&lt;div style=&quot;&quot;&gt;&lt;font color=&quot;#000000&quot;&gt;&lt;span style=&quot;background-color: rgb(255, 255, 255);&quot;&gt;Ports:22, 80, 2305, 2800, 2828&lt;/span&gt;&lt;/font&gt;&lt;/div&gt;&lt;div style=&quot;&quot;&gt;&lt;font color=&quot;#000000&quot;&gt;&lt;span style=&quot;background-color: rgb(255, 255, 255);&quot;&gt;UDP 2000,2011,2200,2250,2999&lt;/span&gt;&lt;/font&gt;&lt;/div&gt;" style="whiteSpace=wrap;html=1;fillColor=none;align=left;verticalAlign=top;" vertex="1" parent="LMzbSZaPqSbP6ukTdfSf-77">
          <mxGeometry y="64" width="210" height="156" as="geometry" />
        </mxCell>
        <mxCell id="LMzbSZaPqSbP6ukTdfSf-83" value="" style="whiteSpace=wrap;html=1;fillColor=none;strokeColor=#000000;strokeWidth=4;movable=1;resizable=1;rotatable=1;deletable=1;editable=1;locked=0;connectable=1;" vertex="1" parent="1">
          <mxGeometry x="-940" y="-520" width="790" height="350" as="geometry" />
        </mxCell>
        <mxCell id="LMzbSZaPqSbP6ukTdfSf-84" value="" style="whiteSpace=wrap;html=1;fillColor=none;strokeColor=#000000;strokeWidth=4;movable=1;resizable=1;rotatable=1;deletable=1;editable=1;locked=0;connectable=1;" vertex="1" parent="1">
          <mxGeometry x="-525.75" y="-1120" width="395.25" height="350" as="geometry" />
        </mxCell>
        <mxCell id="LMzbSZaPqSbP6ukTdfSf-85" value="" style="whiteSpace=wrap;html=1;fillColor=none;strokeColor=#000000;strokeWidth=4;movable=1;resizable=1;rotatable=1;deletable=1;editable=1;locked=0;connectable=1;" vertex="1" parent="1">
          <mxGeometry x="547.38" y="-540" width="602.62" height="350" as="geometry" />
        </mxCell>
      </root>
    </mxGraphModel>
  </diagram>
</mxfile>
